999
dxfrw 0.6.3
  0
SECTION
  2
HEADER
  9
$ACADVER
  1
AC1021
  9
$DWGCODEPAGE
  3
ANSI_1252
  9
$INSBASE
 10
0
 20
0
 30
0
  9
$EXTMIN
 10
0.5781819682991082
 20
0.4388859855007492
 30
0
  9
$EXTMAX
 10
9.947015166406745
 20
7.344090542064855
 30
0
  9
$LIMMIN
 10
0
 20
0
  9
$LIMMAX
 10
420
 20
297
  9
$ORTHOMODE
 70
    0
  9
$REGENMODE
 70
    1
  9
$FILLMODE
 70
    1
  9
$QTEXTMODE
 70
    0
  9
$MIRRTEXT
 70
    0
  9
$LTSCALE
 40
1
  9
$ATTMODE
 70
    0
  9
$TEXTSIZE
 40
2.5
  9
$TRACEWID
 40
15.68
  9
$TEXTSTYLE
  7
STANDARD
  9
$CLAYER
  8
0
  9
$CELTYPE
  6
BYLAYER
  9
$CECOLOR
 62
  256
  9
$CELTSCALE
 40
1
  9
$DISPSILH
 70
    0
  9
$DIMSCALE
 40
2.5
  9
$DIMASZ
 40
2.5
  9
$DIMEXO
 40
0.625
  9
$DIMDLI
 40
3.75
  9
$DIMRND
 40
0
  9
$DIMDLE
 40
0
  9
$DIMEXE
 40
1.25
  9
$DIMTP
 40
0
  9
$DIMTM
 40
0
  9
$DIMTXT
 40
2.5
  9
$DIMCEN
 40
2.5
  9
$DIMTSZ
 40
0
  9
$DIMTOL
 70
    0
  9
$DIMLIM
 70
    0
  9
$DIMTIH
 70
    0
  9
$DIMTOH
 70
    0
  9
$DIMSE1
 70
    0
  9
$DIMSE2
 70
    0
  9
$DIMTAD
 70
    1
  9
$DIMZIN
 70
    8
  9
$DIMBLK
  1

  9
$DIMASO
 70
    1
  9
$DIMSHO
 70
    1
  9
$DIMPOST
  1

  9
$DIMAPOST
  1

  9
$DIMALT
 70
    0
  9
$DIMALTD
 70
    3
  9
$DIMALTF
 40
0.03937
  9
$DIMLFAC
 40
1
  9
$DIMTOFL
 70
    1
  9
$DIMTVP
 40
0
  9
$DIMTIX
 70
    0
  9
$DIMSOXD
 70
    0
  9
$DIMSAH
 70
    0
  9
$DIMBLK1
  1

  9
$DIMBLK2
  1

  9
$DIMSTYLE
  2
STANDARD
  9
$DIMCLRD
 70
    0
  9
$DIMCLRE
 70
    0
  9
$DIMCLRT
 70
    0
  9
$DIMTFAC
 40
1
  9
$DIMGAP
 40
0.625
  9
$DIMJUST
 70
    0
  9
$DIMSD1
 70
    0
  9
$DIMSD2
 70
    0
  9
$DIMTOLJ
 70
    0
  9
$DIMTZIN
 70
    8
  9
$DIMALTZ
 70
    0
  9
$DIMALTTZ
 70
    0
  9
$DIMUPT
 70
    0
  9
$DIMDEC
 70
    2
  9
$DIMTDEC
 70
    2
  9
$DIMALTU
 70
    2
  9
$DIMALTTD
 70
    3
  9
$DIMTXSTY
  7
STANDARD
  9
$DIMAUNIT
 70
    0
  9
$DIMADEC
 70
    0
  9
$DIMALTRND
 40
0
  9
$DIMAZIN
 70
    0
  9
$DIMDSEP
 70
   44
  9
$DIMATFIT
 70
    3
  9
$DIMFRAC
 70
    0
  9
$DIMLDRBLK
  1
STANDARD
  9
$DIMLUNIT
 70
    2
  9
$DIMLWD
 70
   -2
  9
$DIMLWE
 70
   -2
  9
$DIMTMOVE
 70
    0
  9
$DIMFXL
 40
1
  9
$DIMFXLON
 70
    0
  9
$DIMJOGANG
 40
0.7854
  9
$DIMTFILL
 70
    0
  9
$DIMTFILLCLR
 70
    0
  9
$DIMARCSYM
 70
    0
  9
$DIMLTYPE
  6

  9
$DIMLTEX1
  6

  9
$DIMLTEX2
  6

  9
$LUNITS
 70
    2
  9
$LUPREC
 70
    4
  9
$SKETCHINC
 40
1
  9
$FILLETRAD
 40
0
  9
$AUNITS
 70
    0
  9
$AUPREC
 70
    2
  9
$MENU
  1
.
  9
$ELEVATION
 40
0
  9
$PELEVATION
 40
0
  9
$THICKNESS
 40
0
  9
$LIMCHECK
 70
    0
  9
$CHAMFERA
 40
0
  9
$CHAMFERB
 40
0
  9
$CHAMFERC
 40
0
  9
$CHAMFERD
 40
0
  9
$SKPOLY
 70
    0
  9
$USRTIMER
 70
    1
  9
$ANGBASE
 50
0
  9
$ANGDIR
 70
    0
  9
$PDMODE
 70
   34
  9
$PDSIZE
 40
0
  9
$PLINEWID
 40
0
  9
$SPLFRAME
 70
    0
  9
$SPLINETYPE
 70
    2
  9
$SPLINESEGS
 70
    8
  9
$HANDSEED
  5
20000
  9
$SURFTAB1
 70
    6
  9
$SURFTAB2
 70
    6
  9
$SURFTYPE
 70
    6
  9
$SURFU
 70
    6
  9
$SURFV
 70
    6
  9
$UCSBASE
  2

  9
$UCSNAME
  2

  9
$UCSORG
 10
0
 20
0
 30
0
  9
$UCSXDIR
 10
1
 20
0
 30
0
  9
$UCSYDIR
 10
0
 20
1
 30
0
  9
$UCSORTHOREF
  2

  9
$UCSORTHOVIEW
 70
    0
  9
$UCSORGTOP
 10
0
 20
0
 30
0
  9
$UCSORGBOTTOM
 10
0
 20
0
 30
0
  9
$UCSORGLEFT
 10
0
 20
0
 30
0
  9
$UCSORGRIGHT
 10
0
 20
0
 30
0
  9
$UCSORGFRONT
 10
0
 20
0
 30
0
  9
$UCSORGBACK
 10
0
 20
0
 30
0
  9
$PUCSBASE
  2

  9
$PUCSNAME
  2

  9
$PUCSORG
 10
0
 20
0
 30
0
  9
$PUCSXDIR
 10
1
 20
0
 30
0
  9
$PUCSYDIR
 10
0
 20
1
 30
0
  9
$PUCSORTHOREF
  2

  9
$PUCSORTHOVIEW
 70
    0
  9
$PUCSORGTOP
 10
0
 20
0
 30
0
  9
$PUCSORGBOTTOM
 10
0
 20
0
 30
0
  9
$PUCSORGLEFT
 10
0
 20
0
 30
0
  9
$PUCSORGRIGHT
 10
0
 20
0
 30
0
  9
$PUCSORGFRONT
 10
0
 20
0
 30
0
  9
$PUCSORGBACK
 10
0
 20
0
 30
0
  9
$USERI1
 70
    0
  9
$USERI2
 70
    0
  9
$USERI3
 70
    0
  9
$USERI4
 70
    0
  9
$USERI5
 70
    0
  9
$USERR1
 40
0
  9
$USERR2
 40
0
  9
$USERR3
 40
0
  9
$USERR4
 40
0
  9
$USERR5
 40
0
  9
$WORLDVIEW
 70
    1
  9
$SHADEDGE
 70
    3
  9
$SHADEDIF
 70
   70
  9
$TILEMODE
 70
    1
  9
$MAXACTVP
 70
   64
  9
$PINSBASE
 10
0
 20
0
 30
0
  9
$PLIMCHECK
 70
    0
  9
$PEXTMIN
 10
0
 20
0
 30
0
  9
$PEXTMAX
 10
0
 20
0
 30
0
  9
$GRIDMODE
 70
    1
  9
$SNAPSTYLE
 70
    0
  9
$PLIMMIN
 10
0
 20
0
  9
$PLIMMAX
 10
210
 20
297
  9
$UNITMODE
 70
    0
  9
$VISRETAIN
 70
    1
  9
$PLINEGEN
 70
    0
  9
$PSLTSCALE
 70
    1
  9
$TREEDEPTH
 70
 3020
  9
$CMLSTYLE
  2
Standard
  9
$CMLJUST
 70
    0
  9
$CMLSCALE
 40
20
  9
$PROXYGRAPHICS
 70
    1
  9
$MEASUREMENT
 70
    1
  9
$CELWEIGHT
370
   -1
  9
$ENDCAPS
280
    0
  9
$JOINSTYLE
280
    0
  9
$LWDISPLAY
290
    0
  9
$INSUNITS
 70
    4
  9
$HYPERLINKBASE
  1

  9
$STYLESHEET
  1

  9
$XEDIT
290
    1
  9
$CEPSNTYPE
380
    0
  9
$PSTYLEMODE
290
    1
  9
$EXTNAMES
290
    1
  9
$PSVPSCALE
 40
1
  9
$OLESTARTUP
290
    0
  9
$SORTENTS
280
  127
  9
$INDEXCTL
280
    0
  9
$HIDETEXT
280
    1
  9
$XCLIPFRAME
290
    0
  9
$HALOGAP
280
    0
  9
$OBSCOLOR
 70
  257
  9
$OBSLTYPE
280
    0
  9
$INTERSECTIONDISPLAY
280
    0
  9
$INTERSECTIONCOLOR
 70
  257
  9
$DIMASSOC
280
    1
  9
$PROJECTNAME
  1

  9
$CAMERADISPLAY
290
    0
  9
$LENSLENGTH
 40
50
  9
$CAMERAHEIGHT
 40
0
  9
$STEPSPERSEC
 40
2
  9
$STEPSIZE
 40
50
  9
$3DDWFPREC
 40
2
  9
$PSOLWIDTH
 40
5
  9
$PSOLHEIGHT
 40
80
  9
$LOFTANG1
 40
1.570796326794897
  9
$LOFTANG2
 40
1.570796326794897
  9
$LOFTMAG1
 40
0
  9
$LOFTMAG2
 40
0
  9
$LOFTPARAM
 70
    7
  9
$LOFTNORMALS
280
    1
  9
$LATITUDE
 40
1
  9
$LONGITUDE
 40
1
  9
$NORTHDIRECTION
 40
0
  9
$TIMEZONE
 70
-8000
  9
$LIGHTGLYPHDISPLAY
280
    1
  9
$TILEMODELIGHTSYNCH
280
    1
  9
$SOLIDHIST
280
    1
  9
$SHOWHIST
280
    1
  9
$DWFFRAME
280
    2
  9
$DGNFRAME
280
    0
  9
$REALWORLDSCALE
290
    1
  9
$INTERFERECOLOR
 62
    1
  9
$CSHADOW
280
    0
  9
$SHADOWPLANELOCATION
 40
0
  0
ENDSEC
  0
SECTION
  2
CLASSES
  0
ENDSEC
  0
SECTION
  2
TABLES
  0
TABLE
  2
VPORT
  5
8
330
0
100
AcDbSymbolTable
 70
    1
  0
VPORT
  5
31
330
2
100
AcDbSymbolTableRecord
100
AcDbViewportTableRecord
  2
*ACTIVE
 70
    0
 10
0
 20
0
 11
1
 21
1
 12
32.42426366362245
 22
18.28797093408547
 13
0
 23
0
 14
10
 24
10
 15
10
 25
10
 16
0
 26
0
 36
1
 17
0
 27
0
 37
0
 40
66.70134239373762
 41
1.60082304526749
 42
50
 43
0
 44
0
 50
0
 51
0
 71
    0
 72
  100
 73
    1
 74
    3
 75
    0
 76
    1
 77
    0
 78
    0
281
    0
 65
    1
110
0
120
0
130
0
111
1
121
0
131
0
112
0
122
1
132
0
 79
    0
146
0
348
10020
 60
    7
 61
    5
292
1
282
    1
141
0
142
0
 63
  250
421
3358443
  0
ENDTAB
  0
TABLE
  2
LTYPE
  5
5
330
0
100
AcDbSymbolTable
 70
    4
  0
LTYPE
  5
14
330
5
100
AcDbSymbolTableRecord
100
AcDbLinetypeTableRecord
  2
ByBlock
 70
    0
  3

 72
   65
 73
    0
 40
0
  0
LTYPE
  5
15
330
5
100
AcDbSymbolTableRecord
100
AcDbLinetypeTableRecord
  2
ByLayer
 70
    0
  3

 72
   65
 73
    0
 40
0
  0
LTYPE
  5
16
330
5
100
AcDbSymbolTableRecord
100
AcDbLinetypeTableRecord
  2
Continuous
 70
    0
  3
Solid line
 72
   65
 73
    0
 40
0
  0
LTYPE
  5
32
330
5
100
AcDbSymbolTableRecord
100
AcDbLinetypeTableRecord
  2
DOT
 70
    0
  3
Dot . . . . . . . . . . . . . . . . . . . . . .
 72
   65
 73
    2
 40
6.35
 49
0
 74
    0
 49
-6.35
 74
    0
  0
LTYPE
  5
33
330
5
100
AcDbSymbolTableRecord
100
AcDbLinetypeTableRecord
  2
DOTTINY
 70
    0
  3
Dot (.15x) .....................................
 72
   65
 73
    2
 40
0.9525
 49
0
 74
    0
 49
-0.9525
 74
    0
  0
LTYPE
  5
34
330
5
100
AcDbSymbolTableRecord
100
AcDbLinetypeTableRecord
  2
DOT2
 70
    0
  3
Dot (.5x) .....................................
 72
   65
 73
    2
 40
3.175
 49
0
 74
    0
 49
-3.175
 74
    0
  0
LTYPE
  5
35
330
5
100
AcDbSymbolTableRecord
100
AcDbLinetypeTableRecord
  2
DOTX2
 70
    0
  3
Dot (2x) .  .  .  .  .  .  .  .  .  .  .  .  .
 72
   65
 73
    2
 40
12.7
 49
0
 74
    0
 49
-12.7
 74
    0
  0
LTYPE
  5
36
330
5
100
AcDbSymbolTableRecord
100
AcDbLinetypeTableRecord
  2
DASHED
 70
    0
  3
Dashed _ _ _ _ _ _ _ _ _ _ _ _ _ _ _ _ _
 72
   65
 73
    2
 40
19.05
 49
12.7
 74
    0
 49
-6.35
 74
    0
  0
LTYPE
  5
37
330
5
100
AcDbSymbolTableRecord
100
AcDbLinetypeTableRecord
  2
DASHEDTINY
 70
    0
  3
Dashed (.15x) _ _ _ _ _ _ _ _ _ _ _ _ _ _ _ _ _
 72
   65
 73
    2
 40
2.8575
 49
1.905
 74
    0
 49
-0.9525
 74
    0
  0
LTYPE
  5
38
330
5
100
AcDbSymbolTableRecord
100
AcDbLinetypeTableRecord
  2
DASHED2
 70
    0
  3
Dashed (.5x) _ _ _ _ _ _ _ _ _ _ _ _ _ _ _ _ _
 72
   65
 73
    2
 40
9.524999999999999
 49
6.35
 74
    0
 49
-3.175
 74
    0
  0
LTYPE
  5
39
330
5
100
AcDbSymbolTableRecord
100
AcDbLinetypeTableRecord
  2
DASHEDX2
 70
    0
  3
Dashed (2x) ____  ____  ____  ____  ____  ___
 72
   65
 73
    2
 40
38.09999999999999
 49
25.4
 74
    0
 49
-12.7
 74
    0
  0
LTYPE
  5
3A
330
5
100
AcDbSymbolTableRecord
100
AcDbLinetypeTableRecord
  2
DASHDOT
 70
    0
  3
Dash dot __ . __ . __ . __ . __ . __ . __ . __
 72
   65
 73
    4
 40
25.4
 49
12.7
 74
    0
 49
-6.35
 74
    0
 49
0
 74
    0
 49
-6.35
 74
    0
  0
LTYPE
  5
3B
330
5
100
AcDbSymbolTableRecord
100
AcDbLinetypeTableRecord
  2
DASHDOTTINY
 70
    0
  3
Dash dot (.15x) _._._._._._._._._._._._._._._.
 72
   65
 73
    4
 40
3.81
 49
1.905
 74
    0
 49
-0.9525
 74
    0
 49
0
 74
    0
 49
-0.9525
 74
    0
  0
LTYPE
  5
3C
330
5
100
AcDbSymbolTableRecord
100
AcDbLinetypeTableRecord
  2
DASHDOT2
 70
    0
  3
Dash dot (.5x) _._._._._._._._._._._._._._._.
 72
   65
 73
    4
 40
12.7
 49
6.35
 74
    0
 49
-3.175
 74
    0
 49
0
 74
    0
 49
-3.175
 74
    0
  0
LTYPE
  5
3D
330
5
100
AcDbSymbolTableRecord
100
AcDbLinetypeTableRecord
  2
DASHDOTX2
 70
    0
  3
Dash dot (2x) ____  .  ____  .  ____  .  ___
 72
   65
 73
    4
 40
50.8
 49
25.4
 74
    0
 49
-12.7
 74
    0
 49
0
 74
    0
 49
-12.7
 74
    0
  0
LTYPE
  5
3E
330
5
100
AcDbSymbolTableRecord
100
AcDbLinetypeTableRecord
  2
DIVIDE
 70
    0
  3
Divide ____ . . ____ . . ____ . . ____ . . ____
 72
   65
 73
    6
 40
31.75
 49
12.7
 74
    0
 49
-6.35
 74
    0
 49
0
 74
    0
 49
-6.35
 74
    0
 49
0
 74
    0
 49
-6.35
 74
    0
  0
LTYPE
  5
3F
330
5
100
AcDbSymbolTableRecord
100
AcDbLinetypeTableRecord
  2
DIVIDETINY
 70
    0
  3
Divide (.15x) __..__..__..__..__..__..__..__.._
 72
   65
 73
    6
 40
4.7625
 49
1.905
 74
    0
 49
-0.9525
 74
    0
 49
0
 74
    0
 49
-0.9525
 74
    0
 49
0
 74
    0
 49
-0.9525
 74
    0
  0
LTYPE
  5
40
330
5
100
AcDbSymbolTableRecord
100
AcDbLinetypeTableRecord
  2
DIVIDE2
 70
    0
  3
Divide (.5x) __..__..__..__..__..__..__..__.._
 72
   65
 73
    6
 40
15.875
 49
6.35
 74
    0
 49
-3.175
 74
    0
 49
0
 74
    0
 49
-3.175
 74
    0
 49
0
 74
    0
 49
-3.175
 74
    0
  0
LTYPE
  5
41
330
5
100
AcDbSymbolTableRecord
100
AcDbLinetypeTableRecord
  2
DIVIDEX2
 70
    0
  3
Divide (2x) ________  .  .  ________  .  .  _
 72
   65
 73
    6
 40
63.5
 49
25.4
 74
    0
 49
-12.7
 74
    0
 49
0
 74
    0
 49
-12.7
 74
    0
 49
0
 74
    0
 49
-12.7
 74
    0
  0
LTYPE
  5
42
330
5
100
AcDbSymbolTableRecord
100
AcDbLinetypeTableRecord
  2
BORDER
 70
    0
  3
Border __ __ . __ __ . __ __ . __ __ . __ __ .
 72
   65
 73
    6
 40
44.45
 49
12.7
 74
    0
 49
-6.35
 74
    0
 49
12.7
 74
    0
 49
-6.35
 74
    0
 49
0
 74
    0
 49
-6.35
 74
    0
  0
LTYPE
  5
43
330
5
100
AcDbSymbolTableRecord
100
AcDbLinetypeTableRecord
  2
BORDERTINY
 70
    0
  3
Border (.15x) __.__.__.__.__.__.__.__.__.__.__.
 72
   65
 73
    6
 40
6.6675
 49
1.905
 74
    0
 49
-0.9525
 74
    0
 49
1.905
 74
    0
 49
-0.9525
 74
    0
 49
0
 74
    0
 49
-0.9525
 74
    0
  0
LTYPE
  5
44
330
5
100
AcDbSymbolTableRecord
100
AcDbLinetypeTableRecord
  2
BORDER2
 70
    0
  3
Border (.5x) __.__.__.__.__.__.__.__.__.__.__.
 72
   65
 73
    6
 40
22.225
 49
6.35
 74
    0
 49
-3.175
 74
    0
 49
6.35
 74
    0
 49
-3.175
 74
    0
 49
0
 74
    0
 49
-3.175
 74
    0
  0
LTYPE
  5
45
330
5
100
AcDbSymbolTableRecord
100
AcDbLinetypeTableRecord
  2
BORDERX2
 70
    0
  3
Border (2x) ____  ____  .  ____  ____  .  ___
 72
   65
 73
    6
 40
88.89999999999999
 49
25.4
 74
    0
 49
-12.7
 74
    0
 49
25.4
 74
    0
 49
-12.7
 74
    0
 49
0
 74
    0
 49
-12.7
 74
    0
  0
LTYPE
  5
46
330
5
100
AcDbSymbolTableRecord
100
AcDbLinetypeTableRecord
  2
CENTER
 70
    0
  3
Center ____ _ ____ _ ____ _ ____ _ ____ _ ____
 72
   65
 73
    4
 40
50.8
 49
31.75
 74
    0
 49
-6.35
 74
    0
 49
6.35
 74
    0
 49
-6.35
 74
    0
  0
LTYPE
  5
47
330
5
100
AcDbSymbolTableRecord
100
AcDbLinetypeTableRecord
  2
CENTERTINY
 70
    0
  3
Center (.15x) ___ _ ___ _ ___ _ ___ _ ___ _ ___
 72
   65
 73
    4
 40
7.619999999999999
 49
4.7625
 74
    0
 49
-0.9525
 74
    0
 49
0.9525
 74
    0
 49
-0.9525
 74
    0
  0
LTYPE
  5
48
330
5
100
AcDbSymbolTableRecord
100
AcDbLinetypeTableRecord
  2
CENTER2
 70
    0
  3
Center (.5x) ___ _ ___ _ ___ _ ___ _ ___ _ ___
 72
   65
 73
    4
 40
28.575
 49
19.05
 74
    0
 49
-3.175
 74
    0
 49
3.175
 74
    0
 49
-3.175
 74
    0
  0
LTYPE
  5
49
330
5
100
AcDbSymbolTableRecord
100
AcDbLinetypeTableRecord
  2
CENTERX2
 70
    0
  3
Center (2x) ________  __  ________  __  _____
 72
   65
 73
    4
 40
101.6
 49
63.5
 74
    0
 49
-12.7
 74
    0
 49
12.7
 74
    0
 49
-12.7
 74
    0
  0
ENDTAB
  0
TABLE
  2
LAYER
  5
2
330
0
100
AcDbSymbolTable
 70
    1
  0
LAYER
  5
10
330
2
100
AcDbSymbolTableRecord
100
AcDbLayerTableRecord
  2
0
 70
    0
 62
    7
  6
CONTINUOUS
370
    0
390
F
  0
ENDTAB
  0
TABLE
  2
STYLE
  5
3
330
0
100
AcDbSymbolTable
 70
    3
  0
STYLE
  5
4A
330
2
100
AcDbSymbolTableRecord
100
AcDbTextStyleTableRecord
  2
Standard
 70
    0
 40
0
 41
1
 50
0
 71
    0
 42
1
  3
txt
  4

  0
ENDTAB
  0
TABLE
  2
VIEW
  5
6
330
0
100
AcDbSymbolTable
 70
    0
  0
ENDTAB
  0
TABLE
  2
UCS
  5
7
330
0
100
AcDbSymbolTable
 70
    0
  0
ENDTAB
  0
TABLE
  2
APPID
  5
9
330
0
100
AcDbSymbolTable
 70
    1
  0
APPID
  5
12
330
9
100
AcDbSymbolTableRecord
100
AcDbRegAppTableRecord
  2
ACAD
 70
    0
  0
APPID
  5
4B
330
9
100
AcDbSymbolTableRecord
100
AcDbRegAppTableRecord
  2
LibreCad
 70
    0
  0
ENDTAB
  0
TABLE
  2
DIMSTYLE
  5
A
330
0
100
AcDbSymbolTable
 70
    1
100
AcDbDimStyleTable
 71
    1
  0
DIMSTYLE
105
4C
330
A
100
AcDbSymbolTableRecord
100
AcDbDimStyleTableRecord
  2
Standard
 70
    0
 40
2.5
 41
2.5
 42
0.625
 43
0.38
 44
1.25
 45
0
 46
0
 47
0
 48
0
 49
1
140
2.5
141
0.09
142
0
143
25.4
144
1
145
0
146
1
147
0.625
148
0
 71
    0
 72
    0
 73
    0
 74
    1
 75
    0
 76
    0
 77
    0
 78
    8
 79
    0
170
    0
171
    2
172
    0
173
    0
174
    0
175
    0
176
    0
177
    0
178
    0
179
    0
271
    2
272
    4
273
    2
274
    2
275
    0
276
    0
277
    2
278
   44
279
    0
280
    0
281
    0
282
    0
283
    1
284
    0
285
    0
286
    0
288
    0
289
    3
340
STANDARD
341

371
   -2
372
   -2
  0
ENDTAB
  0
TABLE
  2
BLOCK_RECORD
  5
1
330
0
100
AcDbSymbolTable
 70
    2
  0
BLOCK_RECORD
  5
1F
330
1
100
AcDbSymbolTableRecord
100
AcDbBlockTableRecord
  2
*Model_Space
 70
    0
280
    1
281
    0
  0
BLOCK_RECORD
  5
1E
330
1
100
AcDbSymbolTableRecord
100
AcDbBlockTableRecord
  2
*Paper_Space
 70
    0
280
    1
281
    0
  0
ENDTAB
  0
ENDSEC
  0
SECTION
  2
BLOCKS
  0
BLOCK
  5
20
330
1F
100
AcDbEntity
  8
0
100
AcDbBlockBegin
  2
*Model_Space
 70
    0
 10
0
 20
0
 30
0
  3
*Model_Space
  1

  0
ENDBLK
  5
21
330
1F
100
AcDbEntity
  8
0
100
AcDbBlockEnd
  0
BLOCK
  5
1C
330
1B
100
AcDbEntity
  8
0
100
AcDbBlockBegin
  2
*Paper_Space
 70
    0
 10
0
 20
0
 30
0
  3
*Paper_Space
  1

  0
ENDBLK
  5
1D
330
1F
100
AcDbEntity
  8
0
100
AcDbBlockEnd
  0
ENDSEC
  0
SECTION
  2
ENTITIES
  0
SPLINE
  5
4D
100
AcDbEntity
  8
0
  6
ByLayer
 62
  256
370
   -1
100
AcDbSpline
210
0
220
0
230
0
 70
    8
 71
    2
 72
   17
 73
   14
 74
    0
 42
1e-07
 43
1e-07
 40
0
 40
0
 40
0
 40
0.08333333333333333
 40
0.1666666666666667
 40
0.25
 40
0.3333333333333333
 40
0.4166666666666667
 40
0.5
 40
0.5833333333333334
 40
0.6666666666666666
 40
0.75
 40
0.8333333333333334
 40
0.9166666666666666
 40
1
 40
1
 40
1
 10
1.70984436255695
 20
5.748839813040725
 30
0
 10
1.995799576170096
 20
6.884016977902348
 30
0
 10
3.552072106302802
 20
7.50058047917004
 30
0
 10
4.352488847485315
 20
6.864933659412436
 30
0
 10
4.845392453872336
 20
6.521326948102597
 30
0
 10
4.908179114323477
 20
5.952217255730169
 30
0
 10
4.970561114402877
 20
5.040828378186546
 30
0
 10
4.451650250311598
 20
4.069755616269589
 30
0
 10
3.599082127153
 20
3.741022487311291
 30
0
 10
2.883264389934784
 20
3.827834685210178
 30
0
 10
2.205459641890116
 20
4.172250125756968
 30
0
 10
1.929931098354597
 20
4.719511990661637
 30
0
 10
1.586781278929131
 20
5.308765689431162
 30
0
 10
1.70984436255695
 20
5.748839813040725
 30
0
  0
SPLINE
  5
4E
100
AcDbEntity
  8
0
  6
ByLayer
 62
  256
370
   -1
100
AcDbSpline
210
0
220
0
230
0
 70
    8
 71
    2
 72
   18
 73
   15
 74
    0
 42
1e-07
 43
1e-07
 40
0
 40
0
 40
0
 40
0.07692307692307693
 40
0.1538461538461539
 40
0.2307692307692308
 40
0.3076923076923077
 40
0.3846153846153846
 40
0.4615384615384616
 40
0.5384615384615384
 40
0.6153846153846154
 40
0.6923076923076923
 40
0.7692307692307693
 40
0.8461538461538461
 40
0.9230769230769231
 40
1
 40
1
 40
1
 10
1.851388404560584
 20
5.524361928378823
 30
0
 10
1.918361217875194
 20
6.288060169081739
 30
0
 10
2.652439069448207
 20
7.001918365868782
 30
0
 10
3.383527836013254
 20
7.186151056152369
 30
0
 10
4.066501712028963
 20
7.007450780165954
 30
0
 10
4.490195306400192
 20
6.594020768129035
 30
0
 10
4.79478249986877
 20
6.050035529786555
 30
0
 10
4.806723101186954
 20
5.176523451067638
 30
0
 10
4.323237105061054
 20
4.266819323239829
 30
0
 10
3.458717768785
 20
3.853590508880906
 30
0
 10
2.804394774738082
 20
3.998623413231428
 30
0
 10
2.339888440419312
 20
4.333577800794394
 30
0
 10
2.040442091065756
 20
4.706767203301261
 30
0
 10
1.89055225659461
 20
5.192271033692251
 30
0
 10
1.851388404560584
 20
5.524361928378823
 30
0
  0
SPLINE
  5
4F
100
AcDbEntity
  8
0
  6
ByLayer
 62
  256
370
   -1
100
AcDbSpline
210
0
220
0
230
0
 70
    8
 71
    2
 72
   17
 73
   14
 74
    0
 42
1e-07
 43
1e-07
 40
0
 40
0
 40
0
 40
0.08333333333333333
 40
0.1666666666666667
 40
0.25
 40
0.3333333333333333
 40
0.4166666666666667
 40
0.5
 40
0.5833333333333334
 40
0.6666666666666666
 40
0.75
 40
0.8333333333333334
 40
0.9166666666666666
 40
1
 40
1
 40
1
 10
2.097427480446296
 20
5.715381854576606
 30
0
 10
2.298900585695172
 20
6.233162046978755
 30
0
 10
2.749233746326833
 20
6.689460080232067
 30
0
 10
3.186029802299107
 20
6.894496088696506
 30
0
 10
3.807931130841872
 20
6.862937451507527
 30
0
 10
4.344580520966225
 20
6.503632272248744
 30
0
 10
4.579084299033624
 20
5.831994106563577
 30
0
 10
4.543270038893276
 20
4.956153041716071
 30
0
 10
3.973434521323419
 20
4.342379922897173
 30
0
 10
3.278433716819347
 20
4.149487625984008
 30
0
 10
2.646445696530431
 20
4.28585894935798
 30
0
 10
2.227858843455685
 20
4.764712462768713
 30
0
 10
2.06771465296961
 20
5.397211928864664
 30
0
 10
2.104906904457973
 20
5.722861278588283
 30
0
  0
SPLINE
  5
50
100
AcDbEntity
  8
0
  6
ByLayer
 62
  256
370
   -1
100
AcDbSpline
210
0
220
0
230
0
 70
    8
 71
    2
 72
   15
 73
   12
 74
    0
 42
1e-07
 43
1e-07
 40
0
 40
0
 40
0
 40
0.1
 40
0.2
 40
0.3
 40
0.4
 40
0.5
 40
0.6
 40
0.7
 40
0.8
 40
0.9
 40
1
 40
1
 40
1
 10
2.434001560971666
 20
5.805134942716705
 30
0
 10
2.605732749825425
 20
6.111749161531982
 30
0
 10
3.006572595638879
 20
6.69505636018382
 30
0
 10
3.768169581297055
 20
6.671398614597358
 30
0
 10
4.210974038858225
 20
6.146264611862968
 30
0
 10
4.386577027194619
 20
5.503757106036879
 30
0
 10
4.031994564187155
 20
4.806010882805246
 30
0
 10
3.390787859795129
 20
4.489419085328898
 30
0
 10
2.688699904586908
 20
4.585437386397025
 30
0
 10
2.366600740023397
 20
5.188676554107531
 30
0
 10
2.345868543727363
 20
5.650385495435948
 30
0
 10
2.434001560971666
 20
5.805134942716705
 30
0
  0
SPLINE
  5
51
100
AcDbEntity
  8
0
  6
ByLayer
 62
  256
370
   -1
100
AcDbSpline
210
0
220
0
230
0
 70
    8
 71
    2
 72
   17
 73
   14
 74
    0
 42
1e-07
 43
1e-07
 40
0
 40
0
 40
0
 40
0.08333333333333333
 40
0.1666666666666667
 40
0.25
 40
0.3333333333333333
 40
0.4166666666666667
 40
0.5
 40
0.5833333333333334
 40
0.6666666666666666
 40
0.75
 40
0.8333333333333334
 40
0.9166666666666666
 40
1
 40
1
 40
1
 10
2.793013913532061
 20
5.977161694985227
 30
0
 10
2.98645470347639
 20
6.204169190309365
 30
0
 10
3.375877146025132
 20
6.429036148180622
 30
0
 10
3.761775718020726
 20
6.339279496927311
 30
0
 10
3.985578704295055
 20
5.947525583736571
 30
0
 10
4.008814111909896
 20
5.450894807948941
 30
0
 10
3.790030684021069
 20
4.997213734184712
 30
0
 10
3.351785889311067
 20
4.755570852471806
 30
0
 10
2.919643014582803
 20
4.815316817261014
 30
0
 10
2.644311758995457
 20
5.11762766210488
 30
0
 10
2.548714986649451
 20
5.511648531741812
 30
0
 10
2.614433599452088
 20
5.71906035986558
 30
0
 10
2.696430452810517
 20
5.886067647605266
 30
0
 10
2.793013913532061
 20
5.977161694985227
 30
0
  0
SPLINE
  5
52
100
AcDbEntity
  8
0
  6
ByLayer
 62
  256
370
   -1
100
AcDbSpline
210
0
220
0
230
0
 70
    8
 71
    2
 72
   18
 73
   15
 74
    0
 42
1e-07
 43
1e-07
 40
0
 40
0
 40
0
 40
0.07692307692307693
 40
0.1538461538461539
 40
0.2307692307692308
 40
0.3076923076923077
 40
0.3846153846153846
 40
0.4615384615384616
 40
0.5384615384615384
 40
0.6153846153846154
 40
0.6923076923076923
 40
0.7692307692307693
 40
0.8461538461538461
 40
0.9230769230769231
 40
1
 40
1
 40
1
 10
3.028394517060583
 20
5.993210965878824
 30
0
 10
3.082958563320339
 20
6.036162361234133
 30
0
 10
3.197242376652721
 20
6.107936428147859
 30
0
 10
3.347712449886743
 20
6.176048041020039
 30
0
 10
3.58480666904908
 20
6.152948087252447
 30
0
 10
3.742611560477496
 20
5.995010143467006
 30
0
 10
3.825161256429883
 20
5.795430899080237
 30
0
 10
3.818143498867762
 20
5.54177986786614
 30
0
 10
3.750830733666479
 20
5.241952036124296
 30
0
 10
3.472079259501601
 20
4.970084676973741
 30
0
 10
3.08015843040009
 20
4.914871808565245
 30
0
 10
2.760032788678025
 20
5.157135453827713
 30
0
 10
2.749564409023492
 20
5.545009977750141
 30
0
 10
2.928861828604159
 20
5.85020677423374
 30
0
 10
3.028394517060583
 20
5.993210965878824
 30
0
  0
SPLINE
  5
53
100
AcDbEntity
  8
0
  6
ByLayer
 62
  256
370
   -1
100
AcDbSpline
210
0
220
0
230
0
 70
    8
 71
    2
 72
   14
 73
   11
 74
    0
 42
1e-07
 43
1e-07
 40
0
 40
0
 40
0
 40
0.1111111111111111
 40
0.2222222222222222
 40
0.3333333333333333
 40
0.4444444444444444
 40
0.5555555555555556
 40
0.6666666666666666
 40
0.7777777777777778
 40
0.8888888888888888
 40
1
 40
1
 40
1
 10
3.028394517060583
 20
5.793210965878821
 30
0
 10
3.148905662351353
 20
5.884320645105568
 30
0
 10
3.385390682326523
 20
5.994708379048667
 30
0
 10
3.64362720374276
 20
5.934233550021517
 30
0
 10
3.723833261642703
 20
5.668964467803825
 30
0
 10
3.687544326155564
 20
5.359359519995984
 30
0
 10
3.397201032425492
 20
5.087004353898834
 30
0
 10
3.030685314471064
 20
5.104177192560556
 30
0
 10
2.885384726249946
 20
5.358297586232062
 30
0
 10
2.932835411443328
 20
5.650504788503135
 30
0
 10
3.028394517060583
 20
5.793210965878821
 30
0
  0
SPLINE
  5
54
100
AcDbEntity
  8
0
  6
ByLayer
 62
  256
370
   -1
100
AcDbSpline
210
0
220
0
230
0
 70
    8
 71
    2
 72
   12
 73
    9
 74
    0
 42
1e-07
 43
1e-07
 40
0
 40
0
 40
0
 40
0.1428571428571428
 40
0.2857142857142857
 40
0.4285714285714285
 40
0.5714285714285714
 40
0.7142857142857143
 40
0.8571428571428571
 40
1
 40
1
 40
1
 10
3.178394517060582
 20
5.743210965878824
 30
0
 10
3.266278017764851
 20
5.835580591845385
 30
0
 10
3.502144745132146
 20
5.820108282978673
 30
0
 10
3.568505414020457
 20
5.600211521516378
 30
0
 10
3.511498648535472
 20
5.356462239446238
 30
0
 10
3.228500049681593
 20
5.201590926577651
 30
0
 10
3.03285078548069
 20
5.413524161444883
 30
0
 10
3.060399415120845
 20
5.670277239401578
 30
0
 10
3.178394517060582
 20
5.743210965878824
 30
0
  0
SPLINE
  5
55
100
AcDbEntity
  8
0
  6
ByLayer
 62
  256
370
   -1
100
AcDbSpline
210
0
220
0
230
0
 70
    8
 71
    2
 72
   10
 73
    7
 74
    0
 42
1e-07
 43
1e-07
 40
0
 40
0
 40
0
 40
0.2
 40
0.4
 40
0.6
 40
0.8
 40
1
 40
1
 40
1
 10
3.278394517060583
 20
5.643210965878822
 30
0
 10
3.397782452655694
 20
5.678842008236032
 30
0
 10
3.393607106417093
 20
5.514542681228427
 30
0
 10
3.353348699719472
 20
5.385977587499362
 30
0
 10
3.19677240913699
 20
5.449242667027562
 30
0
 10
3.216592947400727
 20
5.605091260282293
 30
0
 10
3.278394517060583
 20
5.643210965878822
 30
0
  0
SPLINE
  5
56
100
AcDbEntity
  8
0
  6
ByLayer
 62
  256
370
   -1
100
AcDbSpline
210
0
220
0
230
0
 70
    8
 71
    2
 72
   19
 73
   16
 74
    0
 42
1e-07
 43
1e-07
 40
0
 40
0
 40
0
 40
0.07142857142857142
 40
0.1428571428571428
 40
0.2142857142857143
 40
0.2857142857142857
 40
0.3571428571428572
 40
0.4285714285714285
 40
0.5
 40
0.5714285714285714
 40
0.6428571428571429
 40
0.7142857142857143
 40
0.7857142857142857
 40
0.8571428571428571
 40
0.9285714285714286
 40
1
 40
1
 40
1
 10
3.746737707532777
 20
7.303667461151846
 30
0
 10
4.407662016891663
 20
7.160523563255424
 30
0
 10
5.452691683701644
 20
6.956032530641643
 30
0
 10
6.30612889182752
 20
6.786359984663534
 30
0
 10
7.101881724277419
 20
6.671868272653029
 30
0
 10
7.568346188258147
 20
6.567068960663661
 30
0
 10
7.875266774415238
 20
6.566825910193103
 30
0
 10
8.196174905481726
 20
6.400402417173375
 30
0
 10
8.548808995173708
 20
6.132733777842368
 30
0
 10
8.793710103815833
 20
5.782014683883027
 30
0
 10
8.87261712936904
 20
5.296461577735947
 30
0
 10
8.764274285190922
 20
4.747607124042062
 30
0
 10
8.656837282828882
 20
4.381175737304147
 30
0
 10
8.102941190544108
 20
4.051830528224556
 30
0
 10
5.424190011464937
 20
4.194014931006727
 30
0
 10
4.359033274824533
 20
4.106123943072681
 30
0
  0
SPLINE
  5
57
100
AcDbEntity
  8
0
  6
ByLayer
 62
  256
370
   -1
100
AcDbSpline
210
0
220
0
230
0
 70
    8
 71
    2
 72
    7
 73
    4
 74
    0
 42
1e-07
 43
1e-07
 40
0
 40
0
 40
0
 40
0.5
 40
1
 40
1
 40
1
 10
5.623205422953319
 20
5.464231194550798
 30
0
 10
6.072828670687642
 20
5.427200727886522
 30
0
 10
6.51578840145276
 20
5.392160432918047
 30
0
 10
6.64563286358657
 20
5.376280446969446
 30
0
  0
SPLINE
  5
58
100
AcDbEntity
  8
0
  6
ByLayer
 62
  256
370
   -1
100
AcDbSpline
210
0
220
0
230
0
 70
    8
 71
    2
 72
    9
 73
    6
 74
    0
 42
1e-07
 43
1e-07
 40
0
 40
0
 40
0
 40
0.25
 40
0.5
 40
0.75
 40
1
 40
1
 40
1
 10
6.931472793225971
 20
5.365286603521774
 30
0
 10
7.280665061180287
 20
5.333945040746187
 30
0
 10
7.629536854713734
 20
5.360123529792418
 30
0
 10
7.858184972894342
 20
5.272013089789439
 30
0
 10
8.161707576811551
 20
5.252726546274552
 30
0
 10
8.316697067632312
 20
5.255348169045078
 30
0
  0
SPLINE
  5
59
100
AcDbEntity
  8
0
  6
ByLayer
 62
  256
370
   -1
100
AcDbSpline
210
0
220
0
230
0
 70
    8
 71
    2
 72
    6
 73
    3
 74
    0
 42
1e-07
 43
1e-07
 40
0
 40
0
 40
0
 40
1
 40
1
 40
1
 10
5.117488624360526
 20
5.057458986987029
 30
0
 10
5.474894784944226
 20
5.060675740609021
 30
0
 10
5.832088448459032
 20
5.046465143539365
 30
0
  0
SPLINE
  5
5A
100
AcDbEntity
  8
0
  6
ByLayer
 62
  256
370
   -1
100
AcDbSpline
210
0
220
0
230
0
 70
    8
 71
    2
 72
   10
 73
    7
 74
    0
 42
1e-07
 43
1e-07
 40
0
 40
0
 40
0
 40
0.2
 40
0.4
 40
0.6
 40
0.8
 40
1
 40
1
 40
1
 10
5.832088448459032
 20
5.046465143539365
 30
0
 10
6.298357608716735
 20
4.889203327007543
 30
0
 10
6.879945746449913
 20
4.886434550309481
 30
0
 10
7.09161265303468
 20
4.866741870466427
 30
0
 10
7.254037508837314
 20
4.973948493582625
 30
0
 10
7.739962458308462
 20
4.910023307000941
 30
0
 10
8.173777102812615
 20
4.914539022167332
 30
0
  0
SPLINE
  5
5B
100
AcDbEntity
  8
0
  6
ByLayer
 62
  256
370
   -1
100
AcDbSpline
210
0
220
0
230
0
 70
    8
 71
    2
 72
    9
 73
    6
 74
    0
 42
1e-07
 43
1e-07
 40
0
 40
0
 40
0
 40
0.25
 40
0.5
 40
0.75
 40
1
 40
1
 40
1
 10
6.139916064993777
 20
4.397828380126867
 30
0
 10
6.567493682827177
 20
4.403533720249278
 30
0
 10
7.14514548815405
 20
4.382135865161388
 30
0
 10
7.596529190520677
 20
4.398327382215975
 30
0
 10
7.984306773609624
 20
4.40985989683702
 30
0
 10
8.140795572469607
 20
4.408822223574539
 30
0
  0
SPLINE
  5
5C
100
AcDbEntity
  8
0
  6
ByLayer
 62
  256
370
   -1
100
AcDbSpline
210
0
220
0
230
0
 70
    8
 71
    2
 72
   14
 73
   11
 74
    0
 42
1e-07
 43
1e-07
 40
0
 40
0
 40
0
 40
0.1111111111111111
 40
0.2222222222222222
 40
0.3333333333333333
 40
0.4444444444444444
 40
0.5555555555555556
 40
0.6666666666666666
 40
0.7777777777777778
 40
0.8888888888888888
 40
1
 40
1
 40
1
 10
4.215993461651639
 20
5.827028028323888
 30
0
 10
4.46235252428291
 20
5.944326966823475
 30
0
 10
4.726822419400484
 20
5.980960965177758
 30
0
 10
4.849586167892834
 20
5.993735317322077
 30
0
 10
4.942222028282227
 20
6.123645054624703
 30
0
 10
5.334578347527398
 20
6.038060030960892
 30
0
 10
5.918142901836752
 20
5.940986023962701
 30
0
 10
6.522417737939492
 20
5.887808408720062
 30
0
 10
6.977510193222415
 20
5.838840947693839
 30
0
 10
7.475360098210828
 20
5.764372847180866
 30
0
 10
7.810980269039526
 20
5.794046497980879
 30
0
  0
SPLINE
  5
5D
100
AcDbEntity
  8
0
  6
ByLayer
 62
  256
370
   -1
100
AcDbSpline
210
0
220
0
230
0
 70
    8
 71
    2
 72
    9
 73
    6
 74
    0
 42
1e-07
 43
1e-07
 40
0
 40
0
 40
0
 40
0.25
 40
0.5
 40
0.75
 40
1
 40
1
 40
1
 10
4.7327041036921
 20
6.574609382765402
 30
0
 10
5.108108490414224
 20
6.584874173618971
 30
0
 10
5.580122760404663
 20
6.403101950439051
 30
0
 10
6.029268481372085
 20
6.441843229160689
 30
0
 10
6.742917758677706
 20
6.296634340415537
 30
0
 10
7.228394517060586
 20
6.243210965878824
 30
0
  0
SPLINE
  5
5E
100
AcDbEntity
  8
0
  6
ByLayer
 62
  256
370
   -1
100
AcDbSpline
210
0
220
0
230
0
 70
    8
 71
    2
 72
    8
 73
    5
 74
    0
 42
1e-07
 43
1e-07
 40
0
 40
0
 40
0
 40
0.3333333333333333
 40
0.6666666666666666
 40
1
 40
1
 40
1
 10
6.528394517060583
 20
6.143210965878822
 30
0
 10
6.951360638685969
 20
6.115302380811187
 30
0
 10
7.668592266514011
 20
5.979579735813957
 30
0
 10
8.243590479544046
 20
5.923923443213127
 30
0
 10
8.492598562795024
 20
5.838021871771559
 30
0
  0
SPLINE
  5
5F
100
AcDbEntity
  8
0
  6
ByLayer
 62
  256
370
   -1
100
AcDbSpline
210
0
220
0
230
0
 70
    8
 71
    2
 72
    7
 73
    4
 74
    0
 42
1e-07
 43
1e-07
 40
0
 40
0
 40
0
 40
0.5
 40
1
 40
1
 40
1
 10
2.597084747101704
 20
5.432245588460319
 30
0
 10
2.301983604762782
 20
5.454259889711054
 30
0
 10
1.871199404285804
 20
5.261532969115557
 30
0
 10
1.665041780985106
 20
5.300527082988012
 30
0
  0
SPLINE
  5
60
100
AcDbEntity
  8
0
  6
ByLayer
 62
  256
370
   -1
100
AcDbSpline
210
0
220
0
230
0
 70
    8
 71
    2
 72
    8
 73
    5
 74
    0
 42
1e-07
 43
1e-07
 40
0
 40
0
 40
0
 40
0.3333333333333333
 40
0.6666666666666666
 40
1
 40
1
 40
1
 10
3.105669624922491
 20
4.622971521684121
 30
0
 10
3.06090941866907
 20
4.425226306098594
 30
0
 10
2.952113628909835
 20
4.217221834068461
 30
0
 10
2.96986561257695
 20
4.058253722532633
 30
0
 10
2.921479763597166
 20
3.991463425711572
 30
0
  0
SPLINE
  5
61
100
AcDbEntity
  8
0
  6
ByLayer
 62
  256
370
   -1
100
AcDbSpline
210
0
220
0
230
0
 70
    8
 71
    2
 72
   22
 73
   19
 74
    0
 42
1e-07
 43
1e-07
 40
0
 40
0
 40
0
 40
0.05882352941176471
 40
0.1176470588235294
 40
0.1764705882352941
 40
0.2352941176470588
 40
0.2941176470588235
 40
0.3529411764705883
 40
0.4117647058823529
 40
0.4705882352941176
 40
0.5294117647058824
 40
0.5882352941176471
 40
0.6470588235294118
 40
0.7058823529411765
 40
0.7647058823529411
 40
0.8235294117647058
 40
0.8823529411764706
 40
0.9411764705882353
 40
1
 40
1
 40
1
 10
4.01589451706062
 20
3.855710965878856
 30
0
 10
3.599362159712776
 20
3.647148132262565
 30
0
 10
3.256120198028565
 20
3.035841207656858
 30
0
 10
3.071342947938387
 20
2.407166261748813
 30
0
 10
3.237685392314599
 20
1.641836420392586
 30
0
 10
3.708616044351373
 20
0.9359717463325197
 30
0
 10
4.504138180675231
 20
0.4249943093393185
 30
0
 10
4.921338109374663
 20
0.5652876012038774
 30
0
 10
5.18381089817224
 20
0.385349401192812
 30
0
 10
5.620985885539085
 20
0.6497636594633889
 30
0
 10
6.252624818047472
 20
0.9966242069285229
 30
0
 10
6.655851149194469
 20
1.962951194960105
 30
0
 10
6.577634898318301
 20
2.996870536227959
 30
0
 10
6.348780706979625
 20
3.456321326236001
 30
0
 10
6.037327150426712
 20
3.620178721231923
 30
0
 10
5.700049865852023
 20
3.864506609323556
 30
0
 10
5.275067909220468
 20
4.112731901152031
 30
0
 10
4.519132452510938
 20
4.176087677224515
 30
0
 10
4.01589451706062
 20
3.855710965878856
 30
0
  0
SPLINE
  5
62
100
AcDbEntity
  8
0
  6
ByLayer
 62
  256
370
   -1
100
AcDbSpline
210
0
220
0
230
0
 70
    8
 71
    2
 72
   16
 73
   13
 74
    0
 42
1e-07
 43
1e-07
 40
0
 40
0
 40
0
 40
0.09090909090909091
 40
0.1818181818181818
 40
0.2727272727272727
 40
0.3636363636363636
 40
0.4545454545454545
 40
0.5454545454545454
 40
0.6363636363636364
 40
0.7272727272727273
 40
0.8181818181818182
 40
0.9090909090909091
 40
1
 40
1
 40
1
 10
3.928394517060585
 20
3.643210965878822
 30
0
 10
3.454220255434485
 20
3.222629752339742
 30
0
 10
3.259264928184503
 20
2.296616169567365
 30
0
 10
3.412754437423594
 20
1.481761172584186
 30
0
 10
4.041375199455015
 20
0.8659068359352133
 30
0
 10
4.765429074609742
 20
0.6481978101192425
 30
0
 10
5.588330526315758
 20
0.6788448230925965
 30
0
 10
6.271248417589909
 20
1.438123279477928
 30
0
 10
6.502328730116901
 20
2.420910825930541
 30
0
 10
6.160462358883564
 20
3.316899157212468
 30
0
 10
5.463985994045935
 20
3.861336218300721
 30
0
 10
4.458724151218799
 20
4.094415520386491
 30
0
 10
3.928394517060585
 20
3.643210965878822
 30
0
  0
SPLINE
  5
63
100
AcDbEntity
  8
0
  6
ByLayer
 62
  256
370
   -1
100
AcDbSpline
210
0
220
0
230
0
 70
    8
 71
    2
 72
   15
 73
   12
 74
    0
 42
1e-07
 43
1e-07
 40
0
 40
0
 40
0
 40
0.1
 40
0.2
 40
0.3
 40
0.4
 40
0.5
 40
0.6
 40
0.7
 40
0.8
 40
0.9
 40
1
 40
1
 40
1
 10
3.984852650368477
 20
3.349258589059275
 30
0
 10
3.569535730959728
 20
2.797042964672293
 30
0
 10
3.509151012333419
 20
1.754523566995907
 30
0
 10
3.994797576290697
 20
1.13234619095514
 30
0
 10
4.570938417763891
 20
0.8952782204756033
 30
0
 10
5.228061304988774
 20
0.8693278503911372
 30
0
 10
6.035176260746923
 20
1.404159948433531
 30
0
 10
6.228742149128557
 20
2.437683557455202
 30
0
 10
5.919471467921454
 20
3.205807499627063
 30
0
 10
5.302179465851196
 20
3.664788038633951
 30
0
 10
4.413654665151778
 20
3.701754288323748
 30
0
 10
3.984852650368477
 20
3.340754483958001
 30
0
  0
SPLINE
  5
64
100
AcDbEntity
  8
0
  6
ByLayer
 62
  256
370
   -1
100
AcDbSpline
210
0
220
0
230
0
 70
    8
 71
    2
 72
   15
 73
   12
 74
    0
 42
1e-07
 43
1e-07
 40
0
 40
0
 40
0
 40
0.1
 40
0.2
 40
0.3
 40
0.4
 40
0.5
 40
0.6
 40
0.7
 40
0.8
 40
0.9
 40
1
 40
1
 40
1
 10
4.103910121786317
 20
3.009094385008297
 30
0
 10
3.791554303054944
 20
2.554360134941
 30
0
 10
3.880089062390041
 20
1.658567676266046
 30
0
 10
4.430191775140596
 20
1.298930062698432
 30
0
 10
4.981196528710825
 20
1.210653511180752
 30
0
 10
5.63601083158801
 20
1.557763408234024
 30
0
 10
5.941927231654859
 20
2.292534493786142
 30
0
 10
5.83517241311197
 20
2.865302140867186
 30
0
 10
5.503609839163701
 20
3.320211132446367
 30
0
 10
4.926666790958649
 20
3.539863648471204
 30
0
 10
4.344822057885416
 20
3.296971269898165
 30
0
 10
4.103910121786317
 20
3.000590279907023
 30
0
  0
SPLINE
  5
65
100
AcDbEntity
  8
0
  6
ByLayer
 62
  256
370
   -1
100
AcDbSpline
210
0
220
0
230
0
 70
    8
 71
    2
 72
   14
 73
   11
 74
    0
 42
1e-07
 43
1e-07
 40
0
 40
0
 40
0
 40
0.1111111111111111
 40
0.2222222222222222
 40
0.3333333333333333
 40
0.4444444444444444
 40
0.5555555555555556
 40
0.6666666666666666
 40
0.7777777777777778
 40
0.8888888888888888
 40
1
 40
1
 40
1
 10
4.528394517060583
 20
2.793210965878821
 30
0
 10
4.359771847964275
 20
2.603050004189527
 30
0
 10
4.230907882208367
 20
2.142009711916231
 30
0
 10
4.417560694449463
 20
1.756325657615257
 30
0
 10
4.801574490828667
 20
1.565794879726496
 30
0
 10
5.219503212607567
 20
1.854460238681781
 30
0
 10
5.429118786107814
 20
2.325804470556584
 30
0
 10
5.272940289338472
 20
2.77613138757718
 30
0
 10
4.973076635296152
 20
2.990267156592921
 30
0
 10
4.655671899853427
 20
2.921727644628547
 30
0
 10
4.528394517060583
 20
2.793210965878821
 30
0
  0
SPLINE
  5
66
100
AcDbEntity
  8
0
  6
ByLayer
 62
  256
370
   -1
100
AcDbSpline
210
0
220
0
230
0
 70
    8
 71
    2
 72
   12
 73
    9
 74
    0
 42
1e-07
 43
1e-07
 40
0
 40
0
 40
0
 40
0.1428571428571428
 40
0.2857142857142857
 40
0.4285714285714285
 40
0.5714285714285714
 40
0.7142857142857143
 40
0.8571428571428571
 40
1
 40
1
 40
1
 10
4.528394517060583
 20
2.543210965878821
 30
0
 10
4.389131612501448
 20
2.376898662360503
 30
0
 10
4.403249681673159
 20
1.98262774884865
 30
0
 10
4.755889585964578
 20
1.779318380648412
 30
0
 10
5.14478764188053
 20
1.964613078534214
 30
0
 10
5.2882141283756
 20
2.367526571302584
 30
0
 10
5.183015241510937
 20
2.696421682143999
 30
0
 10
4.775074783929281
 20
2.815679435320511
 30
0
 10
4.525756218535872
 20
2.532422055600996
 30
0
  0
SPLINE
  5
67
100
AcDbEntity
  8
0
  6
ByLayer
 62
  256
370
   -1
100
AcDbSpline
210
0
220
0
230
0
 70
    8
 71
    2
 72
   10
 73
    7
 74
    0
 42
1e-07
 43
1e-07
 40
0
 40
0
 40
0
 40
0.2
 40
0.4
 40
0.6
 40
0.8
 40
1
 40
1
 40
1
 10
4.578394517060584
 20
2.393210965878822
 30
0
 10
4.511644376324586
 20
2.075192398448877
 30
0
 10
4.870186440413399
 20
1.959830417093301
 30
0
 10
5.081045274587325
 20
2.138260741175465
 30
0
 10
5.144166040416525
 20
2.447960707290811
 30
0
 10
4.79545332531924
 20
2.689381521000335
 30
0
 10
4.578394517060584
 20
2.393210965878822
 30
0
  0
SPLINE
  5
68
100
AcDbEntity
  8
0
  6
ByLayer
 62
  256
370
   -1
100
AcDbSpline
210
0
220
0
230
0
 70
    8
 71
    2
 72
    8
 73
    5
 74
    0
 42
1e-07
 43
1e-07
 40
0
 40
0
 40
0
 40
0.3333333333333333
 40
0.6666666666666666
 40
1
 40
1
 40
1
 10
4.728394517060583
 20
2.343210965878825
 30
0
 10
4.747175247386124
 20
2.087653647086611
 30
0
 10
5.002659329256211
 20
2.26470515967425
 30
0
 10
4.849087275998272
 20
2.527274636380191
 30
0
 10
4.728394517060583
 20
2.343210965878825
 30
0
  0
SPLINE
  5
69
100
AcDbEntity
  8
0
  6
ByLayer
 62
  256
370
   -1
100
AcDbSpline
210
0
220
0
230
0
 70
    8
 71
    2
 72
    6
 73
    3
 74
    0
 42
1e-07
 43
1e-07
 40
0
 40
0
 40
0
 40
1
 40
1
 40
1
 10
5.493085981746738
 20
3.972676059856397
 30
0
 10
5.998205878010211
 20
3.989384027289709
 30
0
 10
6.502808223322859
 20
4.017552603926447
 30
0
  0
SPLINE
  5
6A
100
AcDbEntity
  8
0
  6
ByLayer
 62
  256
370
   -1
100
AcDbSpline
210
0
220
0
230
0
 70
    8
 71
    2
 72
    8
 73
    5
 74
    0
 42
1e-07
 43
1e-07
 40
0
 40
0
 40
0
 40
0.3333333333333333
 40
0.6666666666666666
 40
1
 40
1
 40
1
 10
6.001686814540641
 20
3.651060827354371
 30
0
 10
6.422061498236538
 20
3.712878620109713
 30
0
 10
7.095524687615566
 20
3.695192983297773
 30
0
 10
7.748233281372251
 20
3.764895694258286
 30
0
 10
8.148281505891347
 20
3.7333344914828
 30
0
  0
SPLINE
  5
6B
100
AcDbEntity
  8
0
  6
ByLayer
 62
  256
370
   -1
100
AcDbSpline
210
0
220
0
230
0
 70
    8
 71
    2
 72
    7
 73
    4
 74
    0
 42
1e-07
 43
1e-07
 40
0
 40
0
 40
0
 40
0.5
 40
1
 40
1
 40
1
 10
7.654639521120799
 20
3.576266587237626
 30
0
 10
8.413252347981356
 20
3.54821397923665
 30
0
 10
9.229814518145055
 20
3.660038872603216
 30
0
 10
9.479618979969487
 20
3.658540251366048
 30
0
  0
SPLINE
  5
6C
100
AcDbEntity
  8
0
  6
ByLayer
 62
  256
370
   -1
100
AcDbSpline
210
0
220
0
230
0
 70
    8
 71
    2
 72
    9
 73
    6
 74
    0
 42
1e-07
 43
1e-07
 40
0
 40
0
 40
0
 40
0.25
 40
0.5
 40
0.75
 40
1
 40
1
 40
1
 10
5.717468702096987
 20
2.805885914035102
 30
0
 10
6.014563565136164
 20
2.977491105048941
 30
0
 10
6.565622593846619
 20
3.285906837093776
 30
0
 10
7.277043777249439
 20
3.252087314695942
 30
0
 10
8.347941885065943
 20
3.364906187924042
 30
0
 10
9.030853539268996
 20
3.269610202758948
 30
0
  0
SPLINE
  5
6D
100
AcDbEntity
  8
0
  6
ByLayer
 62
  256
370
   -1
100
AcDbSpline
210
0
220
0
230
0
 70
    8
 71
    2
 72
    7
 73
    4
 74
    0
 42
1e-07
 43
1e-07
 40
0
 40
0
 40
0
 40
0.5
 40
1
 40
1
 40
1
 10
7.048806176175134
 20
2.67873570583663
 30
0
 10
7.395776934036682
 20
2.764247901536599
 30
0
 10
7.750611697503807
 20
2.771254276680345
 30
0
 10
7.849104545424353
 20
2.805885914035102
 30
0
  0
SPLINE
  5
6E
100
AcDbEntity
  8
0
  6
ByLayer
 62
  256
370
   -1
100
AcDbSpline
210
0
220
0
230
0
 70
    8
 71
    2
 72
    8
 73
    5
 74
    0
 42
1e-07
 43
1e-07
 40
0
 40
0
 40
0
 40
0.3333333333333333
 40
0.6666666666666666
 40
1
 40
1
 40
1
 10
8.163240353914695
 20
2.865721306128506
 30
0
 10
8.530721328801732
 20
2.964731805443286
 30
0
 10
9.042016253052765
 20
2.941484294817769
 30
0
 10
9.424719290939493
 20
3.012691829560666
 30
0
 10
9.561892644097917
 20
3.1648982665955
 30
0
  0
SPLINE
  5
6F
100
AcDbEntity
  8
0
  6
ByLayer
 62
  256
370
   -1
100
AcDbSpline
210
0
220
0
230
0
 70
    8
 71
    2
 72
    6
 73
    3
 74
    0
 42
1e-07
 43
1e-07
 40
0
 40
0
 40
0
 40
1
 40
1
 40
1
 10
6.80946460780153
 20
2.229970265136132
 30
0
 10
7.082618155041082
 20
2.342564264987089
 30
0
 10
7.370421408677153
 20
2.304764505252884
 30
0
  0
SPLINE
  5
70
100
AcDbEntity
  8
0
  6
ByLayer
 62
  256
370
   -1
100
AcDbSpline
210
0
220
0
230
0
 70
    8
 71
    2
 72
    8
 73
    5
 74
    0
 42
1e-07
 43
1e-07
 40
0
 40
0
 40
0
 40
0.3333333333333333
 40
0.6666666666666666
 40
1
 40
1
 40
1
 10
7.428394517060582
 20
2.143210965878822
 30
0
 10
7.988181414464741
 20
2.242940292499753
 30
0
 10
8.516004927633851
 20
2.530172318124819
 30
0
 10
9.001584105745827
 20
2.507277716986842
 30
0
 10
9.315071651712643
 20
2.618900313743225
 30
0
  0
SPLINE
  5
71
100
AcDbEntity
  8
0
  6
ByLayer
 62
  256
370
   -1
100
AcDbSpline
210
0
220
0
230
0
 70
    8
 71
    2
 72
    7
 73
    4
 74
    0
 42
1e-07
 43
1e-07
 40
0
 40
0
 40
0
 40
0.5
 40
1
 40
1
 40
1
 10
7.774310305307601
 20
1.758766552400608
 30
0
 10
8.28124611022762
 20
1.844546428081642
 30
0
 10
9.073462318702958
 20
2.023622483530254
 30
0
 10
9.389865891829388
 20
2.102820056937659
 30
0
  0
SPLINE
  5
72
100
AcDbEntity
  8
0
  6
ByLayer
 62
  256
370
   -1
100
AcDbSpline
210
0
220
0
230
0
 70
    8
 71
    2
 72
    8
 73
    5
 74
    0
 42
1e-07
 43
1e-07
 40
0
 40
0
 40
0
 40
0.3333333333333333
 40
0.6666666666666666
 40
1
 40
1
 40
1
 10
6.540205343381231
 20
1.123015511408241
 30
0
 10
7.190566904243191
 20
1.287661987863892
 30
0
 10
8.073032174363775
 20
1.553106096368779
 30
0
 10
8.82343890139375
 20
1.660524318813636
 30
0
 10
9.225318563572543
 20
1.826081368505683
 30
0
  0
SPLINE
  5
73
100
AcDbEntity
  8
0
  6
ByLayer
 62
  256
370
   -1
100
AcDbSpline
210
0
220
0
230
0
 70
    8
 71
    2
 72
   15
 73
   12
 74
    0
 42
1e-07
 43
1e-07
 40
0
 40
0
 40
0
 40
0.1
 40
0.2
 40
0.3
 40
0.4
 40
0.5
 40
0.6
 40
0.7
 40
0.8
 40
0.9
 40
1
 40
1
 40
1
 10
8.275431714089827
 20
4.167141084159944
 30
0
 10
8.698998504737851
 20
4.244661552148436
 30
0
 10
9.30833705031624
 20
3.964546230681023
 30
0
 10
9.746816466837252
 20
3.761152429969457
 30
0
 10
9.904449829761752
 20
3.348494361791921
 30
0
 10
9.963234644501384
 20
2.831483701472479
 30
0
 10
9.89085446276281
 20
2.197286021461515
 30
0
 10
9.523191437953642
 20
1.859476373040543
 30
0
 10
9.00356611242205
 20
1.437119011689127
 30
0
 10
7.606522886011511
 20
1.142800082390586
 30
0
 10
6.193406643831651
 20
0.7438017496379885
 30
0
 10
5.500137822151771
 20
0.5773727818599568
 30
0
  0
SPLINE
  5
74
100
AcDbEntity
  8
0
  6
ByLayer
 62
  256
370
   -1
100
AcDbSpline
210
0
220
0
230
0
 70
    8
 71
    2
 72
    7
 73
    4
 74
    0
 42
1e-07
 43
1e-07
 40
0
 40
0
 40
0
 40
0.5
 40
1
 40
1
 40
1
 10
4.526562840860748
 20
1.353601483159551
 30
0
 10
4.440283802106091
 20
1.170308688942427
 30
0
 10
4.463251218250956
 20
0.753863902790961
 30
0
 10
4.348951188868465
 20
0.5576381538608075
 30
0
  0
SPLINE
  5
75
100
AcDbEntity
  8
0
  6
ByLayer
 62
  256
370
   -1
100
AcDbSpline
210
0
220
0
230
0
 70
    8
 71
    2
 72
   10
 73
    7
 74
    0
 42
1e-07
 43
1e-07
 40
0
 40
0
 40
0
 40
0.2
 40
0.4
 40
0.6
 40
0.8
 40
1
 40
1
 40
1
 10
5.118601680835017
 20
4.109871193706432
 30
0
 10
5.203689083132918
 20
3.792807874724033
 30
0
 10
5.054641478552774
 20
3.543866031751996
 30
0
 10
5.081042443919323
 20
3.328875603207706
 30
0
 10
5.118548104495094
 20
3.053850850075307
 30
0
 10
4.988822503046638
 20
2.76607327439401
 30
0
 10
4.973881075507972
 20
2.56399200044028
 30
0
  0
SPLINE
  5
76
100
AcDbEntity
  8
0
  6
ByLayer
 62
  256
370
   -1
100
AcDbSpline
210
0
220
0
230
0
 70
    8
 71
    2
 72
    9
 73
    6
 74
    0
 42
1e-07
 43
1e-07
 40
0
 40
0
 40
0
 40
0.25
 40
0.5
 40
0.75
 40
1
 40
1
 40
1
 10
1.999633691406217
 20
2.492158185946778
 30
0
 10
2.122303343268875
 20
2.532888601763169
 30
0
 10
2.14847778752755
 20
2.351337124728346
 30
0
 10
2.041223412069741
 20
2.200999741047987
 30
0
 10
1.905352662205541
 20
2.392489131852429
 30
0
 10
1.976491354262691
 20
2.497943770232659
 30
0
  0
SPLINE
  5
77
100
AcDbEntity
  8
0
  6
ByLayer
 62
  256
370
   -1
100
AcDbSpline
210
0
220
0
230
0
 70
    8
 71
    2
 72
   11
 73
    8
 74
    0
 42
1e-07
 43
1e-07
 40
0
 40
0
 40
0
 40
0.1666666666666667
 40
0.3333333333333333
 40
0.5
 40
0.6666666666666666
 40
0.8333333333333334
 40
1
 40
1
 40
1
 10
1.928394517060582
 20
2.643210965878822
 30
0
 10
2.056084955640067
 20
2.672371007164791
 30
0
 10
2.26266292357095
 20
2.543958908558707
 30
0
 10
2.266446343677337
 20
2.293020723963529
 30
0
 10
2.083581840858361
 20
2.084372073291526
 30
0
 10
1.77906225588859
 20
2.191898156289369
 30
0
 10
1.812092155620935
 20
2.525099660098157
 30
0
 10
1.928394517060582
 20
2.643210965878822
 30
0
  0
SPLINE
  5
78
100
AcDbEntity
  8
0
  6
ByLayer
 62
  256
370
   -1
100
AcDbSpline
210
0
220
0
230
0
 70
    8
 71
    2
 72
   10
 73
    7
 74
    0
 42
1e-07
 43
1e-07
 40
0
 40
0
 40
0
 40
0.2
 40
0.4
 40
0.6
 40
0.8
 40
1
 40
1
 40
1
 10
1.928394517060582
 20
2.793210965878821
 30
0
 10
2.179085804152983
 20
2.898707498168889
 30
0
 10
2.438851483767511
 20
2.523561962599999
 30
0
 10
2.340298304957226
 20
2.067159968730643
 30
0
 10
1.714898602383457
 20
1.880537143767725
 30
0
 10
1.619017057004484
 20
2.571650165206613
 30
0
 10
1.928394517060582
 20
2.793210965878821
 30
0
  0
SPLINE
  5
79
100
AcDbEntity
  8
0
  6
ByLayer
 62
  256
370
   -1
100
AcDbSpline
210
0
220
0
230
0
 70
    8
 71
    2
 72
   11
 73
    8
 74
    0
 42
1e-07
 43
1e-07
 40
0
 40
0
 40
0
 40
0.1666666666666667
 40
0.3333333333333333
 40
0.5
 40
0.6666666666666666
 40
0.8333333333333334
 40
1
 40
1
 40
1
 10
1.828394517060584
 20
2.943210965878826
 30
0
 10
2.202110673722917
 20
3.088162461743622
 30
0
 10
2.552332842850497
 20
2.543786743871273
 30
0
 10
2.432682411405239
 20
2.061134094902265
 30
0
 10
2.189360541633864
 20
1.707217794093104
 30
0
 10
1.731747299457638
 20
1.80314787079935
 30
0
 10
1.388635666577237
 20
2.426202837397561
 30
0
 10
1.828394517060584
 20
2.943210965878826
 30
0
  0
SPLINE
  5
7A
100
AcDbEntity
  8
0
  6
ByLayer
 62
  256
370
   -1
100
AcDbSpline
210
0
220
0
230
0
 70
    8
 71
    2
 72
   11
 73
    8
 74
    0
 42
1e-07
 43
1e-07
 40
0
 40
0
 40
0
 40
0.1666666666666667
 40
0.3333333333333333
 40
0.5
 40
0.6666666666666666
 40
0.8333333333333334
 40
1
 40
1
 40
1
 10
1.728394517060583
 20
3.093210965878825
 30
0
 10
2.278278726528221
 20
3.379612529289737
 30
0
 10
2.737227405386239
 20
2.512589912464186
 30
0
 10
2.546506353169065
 20
1.858594975076521
 30
0
 10
2.078096562634578
 20
1.456174993967515
 30
0
 10
1.322321074828416
 20
1.922637276137181
 30
0
 10
1.432176426281224
 20
2.811597962702827
 30
0
 10
1.728394517060583
 20
3.093210965878825
 30
0
  0
SPLINE
  5
7B
100
AcDbEntity
  8
0
  6
ByLayer
 62
  256
370
   -1
100
AcDbSpline
210
0
220
0
230
0
 70
    8
 71
    2
 72
   11
 73
    8
 74
    0
 42
1e-07
 43
1e-07
 40
0
 40
0
 40
0
 40
0.1666666666666667
 40
0.3333333333333333
 40
0.5
 40
0.6666666666666666
 40
0.8333333333333334
 40
1
 40
1
 40
1
 10
1.528394517060583
 20
3.143210965878822
 30
0
 10
2.112508023518103
 20
3.679419691169322
 30
0
 10
3.042948137545924
 20
2.904818525151029
 30
0
 10
2.85369230357745
 20
1.825223045418397
 30
0
 10
2.242232515005842
 20
1.247098130193294
 30
0
 10
1.497017110464611
 20
1.495754542185331
 30
0
 10
1.058257788040567
 20
2.554259387907003
 30
0
 10
1.528394517060583
 20
3.143210965878822
 30
0
  0
SPLINE
  5
7C
100
AcDbEntity
  8
0
  6
ByLayer
 62
  256
370
   -1
100
AcDbSpline
210
0
220
0
230
0
 70
    8
 71
    2
 72
   12
 73
    9
 74
    0
 42
1e-07
 43
1e-07
 40
0
 40
0
 40
0
 40
0.1428571428571428
 40
0.2857142857142857
 40
0.4285714285714285
 40
0.5714285714285714
 40
0.7142857142857143
 40
0.8571428571428571
 40
1
 40
1
 40
1
 10
3.164067277385467
 20
2.756811093167528
 30
0
 10
2.659162550759326
 20
3.711691450391079
 30
0
 10
1.398667566933621
 20
3.625276042702239
 30
0
 10
1.038881466090636
 20
2.972621600439822
 30
0
 10
0.8836841151225769
 20
2.138363757853412
 30
0
 10
1.467508583700528
 20
1.174885356920754
 30
0
 10
2.19244502858847
 20
1.068396890998002
 30
0
 10
2.92149742905579
 20
1.375070621329769
 30
0
 10
3.159591934701751
 20
1.978101466201373
 30
0
  0
SPLINE
  5
7D
100
AcDbEntity
  8
0
  6
ByLayer
 62
  256
370
   -1
100
AcDbSpline
210
0
220
0
230
0
 70
    8
 71
    2
 72
   16
 73
   13
 74
    0
 42
1e-07
 43
1e-07
 40
0
 40
0
 40
0
 40
0.09090909090909091
 40
0.1818181818181818
 40
0.2727272727272727
 40
0.3636363636363636
 40
0.4545454545454545
 40
0.5454545454545454
 40
0.6363636363636364
 40
0.7272727272727273
 40
0.8181818181818182
 40
0.9090909090909091
 40
1
 40
1
 40
1
 10
3.249098788376024
 20
3.038757682241481
 30
0
 10
3.160627082590612
 20
3.324882062097522
 30
0
 10
2.649832941373333
 20
3.796676619377848
 30
0
 10
1.843819147195614
 20
3.990263862828357
 30
0
 10
1.134370251896843
 20
3.64691332818532
 30
0
 10
0.8078877637694788
 20
2.982136846858566
 30
0
 10
0.6830272836653783
 20
2.036974603212364
 30
0
 10
1.144555251051067
 20
1.301884520193035
 30
0
 10
1.714462877048003
 20
0.907519674860815
 30
0
 10
2.386418764635678
 20
0.8480315343119145
 30
0
 10
2.897592676032168
 20
1.122217439331891
 30
0
 10
3.215170738344774
 20
1.432079918395615
 30
0
 10
3.284901529845733
 20
1.629024736871713
 30
0
  0
SPLINE
  5
7E
100
AcDbEntity
  8
0
  6
ByLayer
 62
  256
370
   -1
100
AcDbSpline
210
0
220
0
230
0
 70
    8
 71
    2
 72
   21
 73
   18
 74
    0
 42
1e-07
 43
1e-07
 40
0
 40
0
 40
0
 40
0.0625
 40
0.125
 40
0.1875
 40
0.25
 40
0.3125
 40
0.375
 40
0.4375
 40
0.5
 40
0.5625
 40
0.625
 40
0.6875
 40
0.75
 40
0.8125
 40
0.875
 40
0.9375
 40
1
 40
1
 40
1
 10
3.378394517060585
 20
1.443210965878826
 30
0
 10
3.102016213024772
 20
1.078850353686619
 30
0
 10
2.492025687280851
 20
0.7342800072035729
 30
0
 10
1.686382438558127
 20
0.6782740982387878
 30
0
 10
0.8526409834092092
 20
1.465948944867137
 30
0
 10
0.5647382684554074
 20
2.255650177020797
 30
0
 10
0.5943953610292674
 20
2.744784010545565
 30
0
 10
0.7269132952513253
 20
2.945143234758277
 30
0
 10
0.751095259900243
 20
3.125068285494699
 30
0
 10
0.8588296806295119
 20
3.359874346639423
 30
0
 10
1.094604357077781
 20
3.755539554818249
 30
0
 10
1.661689903428893
 20
4.034061865216174
 30
0
 10
2.117793034678861
 20
4.076842850667468
 30
0
 10
2.427789920408092
 20
4.069345741183639
 30
0
 10
2.64911214980674
 20
3.924525829278842
 30
0
 10
2.835014584392674
 20
3.779305877450447
 30
0
 10
3.19175950366547
 20
3.613547928689016
 30
0
 10
3.378394517060585
 20
3.243210965878824
 30
0
  0
SPLINE
  5
7F
100
AcDbEntity
  8
0
  6
ByLayer
 62
  256
370
   -1
100
AcDbSpline
210
0
220
0
230
0
 70
    8
 71
    2
 72
    6
 73
    3
 74
    0
 42
1e-07
 43
1e-07
 40
0
 40
0
 40
0
 40
1
 40
1
 40
1
 10
3.61160154575682
 20
1.100934300193522
 30
0
 10
3.092757239298358
 20
0.8950139566028525
 30
0
 10
2.546469987032999
 20
0.8010863403847139
 30
0
  0
SPLINE
  5
80
100
AcDbEntity
  8
0
  6
ByLayer
 62
  256
370
   -1
100
AcDbSpline
210
0
220
0
230
0
 70
    8
 71
    2
 72
   11
 73
    8
 74
    0
 42
1e-07
 43
1e-07
 40
0
 40
0
 40
0
 40
0.1666666666666667
 40
0.3333333333333333
 40
0.5
 40
0.6666666666666666
 40
0.8333333333333334
 40
1
 40
1
 40
1
 10
1.828394517060584
 20
2.743210965878824
 30
0
 10
1.732898309704275
 20
2.892594601179567
 30
0
 10
1.500974600828329
 20
2.936412819489064
 30
0
 10
1.384214167670681
 20
3.089837914105239
 30
0
 10
1.256824682930098
 20
3.227556941981959
 30
0
 10
1.127984836887805
 20
3.331893902578535
 30
0
 10
0.9492416758475812
 20
3.338479700570907
 30
0
 10
0.917445250161272
 20
3.437063181091986
 30
0
  0
SPLINE
  5
81
100
AcDbEntity
  8
0
  6
ByLayer
 62
  256
370
   -1
100
AcDbSpline
210
0
220
0
230
0
 70
    8
 71
    2
 72
   10
 73
    7
 74
    0
 42
1e-07
 43
1e-07
 40
0
 40
0
 40
0
 40
0.2
 40
0.4
 40
0.6
 40
0.8
 40
1
 40
1
 40
1
 10
1.928872696680532
 20
1.794612416169116
 30
0
 10
1.810199002902159
 20
1.694251855745478
 30
0
 10
1.827182141081487
 20
1.468374901716821
 30
0
 10
1.74045871862964
 20
1.308822009790013
 30
0
 10
1.706489664503206
 20
1.145925686501862
 30
0
 10
1.683896384152213
 20
0.9491969334472827
 30
0
 10
1.642450764922867
 20
0.8145123684358566
 30
0
  0
SPLINE
  5
82
100
AcDbEntity
  8
0
  6
ByLayer
 62
  256
370
   -1
100
AcDbSpline
210
0
220
0
230
0
 70
    8
 71
    2
 72
   14
 73
   11
 74
    0
 42
1e-07
 43
1e-07
 40
0
 40
0
 40
0
 40
0.1111111111111111
 40
0.2222222222222222
 40
0.3333333333333333
 40
0.4444444444444444
 40
0.5555555555555556
 40
0.6666666666666666
 40
0.7777777777777778
 40
0.8888888888888888
 40
1
 40
1
 40
1
 10
4.075436922044197
 20
2.499054471735576
 30
0
 10
4.543640499665411
 20
3.278081572783215
 30
0
 10
5.261032457035554
 20
3.114912624316808
 30
0
 10
5.477878654563042
 20
2.719677018971154
 30
0
 10
5.609075830750655
 20
2.313601896207295
 30
0
 10
5.476198175182859
 20
1.98389524997458
 30
0
 10
5.29648361002296
 20
1.694145718434662
 30
0
 10
4.948395541032976
 20
1.443666213302045
 30
0
 10
4.348175132706011
 20
1.530598638395901
 30
0
 10
4.005780457715424
 20
2.135692631506188
 30
0
 10
4.075436922044197
 20
2.499054471735576
 30
0
  0
ENDSEC
  0
SECTION
  2
OBJECTS
  0
DICTIONARY
  5
C
330
0
100
AcDbDictionary
281
    1
  3
ACAD_GROUP
350
D
  0
DICTIONARY
  5
D
330
C
100
AcDbDictionary
281
    1
  0
ENDSEC
  0
EOF
