999
dxfrw 0.6.3
  0
SECTION
  2
HEADER
  9
$ACADVER
  1
AC1021
  9
$DWGCODEPAGE
  3
ANSI_1252
  9
$INSBASE
 10
0
 20
0
 30
0
  9
$EXTMIN
 10
0
 20
0
 30
0
  9
$EXTMAX
 10
0
 20
0
 30
0
  9
$LIMMIN
 10
0
 20
0
  9
$LIMMAX
 10
420
 20
297
  9
$ORTHOMODE
 70
    0
  9
$REGENMODE
 70
    1
  9
$FILLMODE
 70
    1
  9
$QTEXTMODE
 70
    0
  9
$MIRRTEXT
 70
    0
  9
$LTSCALE
 40
1
  9
$ATTMODE
 70
    0
  9
$TEXTSIZE
 40
2.5
  9
$TRACEWID
 40
15.68
  9
$TEXTSTYLE
  7
STANDARD
  9
$CLAYER
  8
0
  9
$CELTYPE
  6
BYLAYER
  9
$CECOLOR
 62
  256
  9
$CELTSCALE
 40
1
  9
$DISPSILH
 70
    0
  9
$DIMSCALE
 40
2.5
  9
$DIMASZ
 40
2.5
  9
$DIMEXO
 40
0.625
  9
$DIMDLI
 40
3.75
  9
$DIMRND
 40
0
  9
$DIMDLE
 40
0
  9
$DIMEXE
 40
1.25
  9
$DIMTP
 40
0
  9
$DIMTM
 40
0
  9
$DIMTXT
 40
2.5
  9
$DIMCEN
 40
2.5
  9
$DIMTSZ
 40
0
  9
$DIMTOL
 70
    0
  9
$DIMLIM
 70
    0
  9
$DIMTIH
 70
    0
  9
$DIMTOH
 70
    0
  9
$DIMSE1
 70
    0
  9
$DIMSE2
 70
    0
  9
$DIMTAD
 70
    1
  9
$DIMZIN
 70
    8
  9
$DIMBLK
  1

  9
$DIMASO
 70
    1
  9
$DIMSHO
 70
    1
  9
$DIMPOST
  1

  9
$DIMAPOST
  1

  9
$DIMALT
 70
    0
  9
$DIMALTD
 70
    3
  9
$DIMALTF
 40
0.03937
  9
$DIMLFAC
 40
1
  9
$DIMTOFL
 70
    1
  9
$DIMTVP
 40
0
  9
$DIMTIX
 70
    0
  9
$DIMSOXD
 70
    0
  9
$DIMSAH
 70
    0
  9
$DIMBLK1
  1

  9
$DIMBLK2
  1

  9
$DIMSTYLE
  2
STANDARD
  9
$DIMCLRD
 70
    0
  9
$DIMCLRE
 70
    0
  9
$DIMCLRT
 70
    0
  9
$DIMTFAC
 40
1
  9
$DIMGAP
 40
0.625
  9
$DIMJUST
 70
    0
  9
$DIMSD1
 70
    0
  9
$DIMSD2
 70
    0
  9
$DIMTOLJ
 70
    0
  9
$DIMTZIN
 70
    8
  9
$DIMALTZ
 70
    0
  9
$DIMALTTZ
 70
    0
  9
$DIMUPT
 70
    0
  9
$DIMDEC
 70
    2
  9
$DIMTDEC
 70
    2
  9
$DIMALTU
 70
    2
  9
$DIMALTTD
 70
    3
  9
$DIMTXSTY
  7
STANDARD
  9
$DIMAUNIT
 70
    0
  9
$DIMADEC
 70
    0
  9
$DIMALTRND
 40
0
  9
$DIMAZIN
 70
    0
  9
$DIMDSEP
 70
   44
  9
$DIMATFIT
 70
    3
  9
$DIMFRAC
 70
    0
  9
$DIMLDRBLK
  1
STANDARD
  9
$DIMLUNIT
 70
    2
  9
$DIMLWD
 70
   -2
  9
$DIMLWE
 70
   -2
  9
$DIMTMOVE
 70
    0
  9
$DIMFXL
 40
1
  9
$DIMFXLON
 70
    0
  9
$DIMJOGANG
 40
0.7854
  9
$DIMTFILL
 70
    0
  9
$DIMTFILLCLR
 70
    0
  9
$DIMARCSYM
 70
    0
  9
$DIMLTYPE
  6

  9
$DIMLTEX1
  6

  9
$DIMLTEX2
  6

  9
$LUNITS
 70
    2
  9
$LUPREC
 70
    4
  9
$SKETCHINC
 40
1
  9
$FILLETRAD
 40
0
  9
$AUNITS
 70
    0
  9
$AUPREC
 70
    2
  9
$MENU
  1
.
  9
$ELEVATION
 40
0
  9
$PELEVATION
 40
0
  9
$THICKNESS
 40
0
  9
$LIMCHECK
 70
    0
  9
$CHAMFERA
 40
0
  9
$CHAMFERB
 40
0
  9
$CHAMFERC
 40
0
  9
$CHAMFERD
 40
0
  9
$SKPOLY
 70
    0
  9
$USRTIMER
 70
    1
  9
$ANGBASE
 50
0
  9
$ANGDIR
 70
    0
  9
$PDMODE
 70
   34
  9
$PDSIZE
 40
0
  9
$PLINEWID
 40
0
  9
$SPLFRAME
 70
    0
  9
$SPLINETYPE
 70
    2
  9
$SPLINESEGS
 70
    8
  9
$HANDSEED
  5
20000
  9
$SURFTAB1
 70
    6
  9
$SURFTAB2
 70
    6
  9
$SURFTYPE
 70
    6
  9
$SURFU
 70
    6
  9
$SURFV
 70
    6
  9
$UCSBASE
  2

  9
$UCSNAME
  2

  9
$UCSORG
 10
0
 20
0
 30
0
  9
$UCSXDIR
 10
1
 20
0
 30
0
  9
$UCSYDIR
 10
0
 20
1
 30
0
  9
$UCSORTHOREF
  2

  9
$UCSORTHOVIEW
 70
    0
  9
$UCSORGTOP
 10
0
 20
0
 30
0
  9
$UCSORGBOTTOM
 10
0
 20
0
 30
0
  9
$UCSORGLEFT
 10
0
 20
0
 30
0
  9
$UCSORGRIGHT
 10
0
 20
0
 30
0
  9
$UCSORGFRONT
 10
0
 20
0
 30
0
  9
$UCSORGBACK
 10
0
 20
0
 30
0
  9
$PUCSBASE
  2

  9
$PUCSNAME
  2

  9
$PUCSORG
 10
0
 20
0
 30
0
  9
$PUCSXDIR
 10
1
 20
0
 30
0
  9
$PUCSYDIR
 10
0
 20
1
 30
0
  9
$PUCSORTHOREF
  2

  9
$PUCSORTHOVIEW
 70
    0
  9
$PUCSORGTOP
 10
0
 20
0
 30
0
  9
$PUCSORGBOTTOM
 10
0
 20
0
 30
0
  9
$PUCSORGLEFT
 10
0
 20
0
 30
0
  9
$PUCSORGRIGHT
 10
0
 20
0
 30
0
  9
$PUCSORGFRONT
 10
0
 20
0
 30
0
  9
$PUCSORGBACK
 10
0
 20
0
 30
0
  9
$USERI1
 70
    0
  9
$USERI2
 70
    0
  9
$USERI3
 70
    0
  9
$USERI4
 70
    0
  9
$USERI5
 70
    0
  9
$USERR1
 40
0
  9
$USERR2
 40
0
  9
$USERR3
 40
0
  9
$USERR4
 40
0
  9
$USERR5
 40
0
  9
$WORLDVIEW
 70
    1
  9
$SHADEDGE
 70
    3
  9
$SHADEDIF
 70
   70
  9
$TILEMODE
 70
    1
  9
$MAXACTVP
 70
   64
  9
$PINSBASE
 10
0
 20
0
 30
0
  9
$PLIMCHECK
 70
    0
  9
$PEXTMIN
 10
0
 20
0
 30
0
  9
$PEXTMAX
 10
0
 20
0
 30
0
  9
$SNAPSTYLE
 70
    0
  9
$PLIMMIN
 10
0
 20
0
  9
$PLIMMAX
 10
210
 20
297
  9
$UNITMODE
 70
    0
  9
$VISRETAIN
 70
    1
  9
$PLINEGEN
 70
    0
  9
$PSLTSCALE
 70
    1
  9
$TREEDEPTH
 70
 3020
  9
$CMLSTYLE
  2
Standard
  9
$CMLJUST
 70
    0
  9
$CMLSCALE
 40
20
  9
$PROXYGRAPHICS
 70
    1
  9
$MEASUREMENT
 70
    1
  9
$CELWEIGHT
370
   -1
  9
$ENDCAPS
280
    0
  9
$JOINSTYLE
280
    0
  9
$LWDISPLAY
290
    0
  9
$INSUNITS
 70
    4
  9
$HYPERLINKBASE
  1

  9
$STYLESHEET
  1

  9
$XEDIT
290
    1
  9
$CEPSNTYPE
380
    0
  9
$PSTYLEMODE
290
    1
  9
$EXTNAMES
290
    1
  9
$PSVPSCALE
 40
1
  9
$OLESTARTUP
290
    0
  9
$SORTENTS
280
  127
  9
$INDEXCTL
280
    0
  9
$HIDETEXT
280
    1
  9
$XCLIPFRAME
290
    0
  9
$HALOGAP
280
    0
  9
$OBSCOLOR
 70
  257
  9
$OBSLTYPE
280
    0
  9
$INTERSECTIONDISPLAY
280
    0
  9
$INTERSECTIONCOLOR
 70
  257
  9
$DIMASSOC
280
    1
  9
$PROJECTNAME
  1

  9
$CAMERADISPLAY
290
    0
  9
$LENSLENGTH
 40
50
  9
$CAMERAHEIGHT
 40
0
  9
$STEPSPERSEC
 40
2
  9
$STEPSIZE
 40
50
  9
$3DDWFPREC
 40
2
  9
$PSOLWIDTH
 40
5
  9
$PSOLHEIGHT
 40
80
  9
$LOFTANG1
 40
1.570796326794897
  9
$LOFTANG2
 40
1.570796326794897
  9
$LOFTMAG1
 40
0
  9
$LOFTMAG2
 40
0
  9
$LOFTPARAM
 70
    7
  9
$LOFTNORMALS
280
    1
  9
$LATITUDE
 40
1
  9
$LONGITUDE
 40
1
  9
$NORTHDIRECTION
 40
0
  9
$TIMEZONE
 70
-8000
  9
$LIGHTGLYPHDISPLAY
280
    1
  9
$TILEMODELIGHTSYNCH
280
    1
  9
$SOLIDHIST
280
    1
  9
$SHOWHIST
280
    1
  9
$DWFFRAME
280
    2
  9
$DGNFRAME
280
    0
  9
$REALWORLDSCALE
290
    1
  9
$INTERFERECOLOR
 62
    1
  9
$CSHADOW
280
    0
  9
$SHADOWPLANELOCATION
 40
0
  0
ENDSEC
  0
SECTION
  2
CLASSES
  0
ENDSEC
  0
SECTION
  2
TABLES
  0
TABLE
  2
VPORT
  5
8
330
0
100
AcDbSymbolTable
 70
    1
  0
VPORT
  5
31
330
2
100
AcDbSymbolTableRecord
100
AcDbViewportTableRecord
  2
*ACTIVE
 70
    0
 10
0
 20
0
 11
1
 21
1
 12
9.357688845066429
 22
7.213476699110809
 13
0
 23
0
 14
10
 24
10
 15
10
 25
10
 16
0
 26
0
 36
1
 17
0
 27
0
 37
0
 40
24.49111676536591
 41
1.097165991902834
 42
50
 43
0
 44
0
 50
0
 51
0
 71
    0
 72
  100
 73
    1
 74
    3
 75
    0
 76
    1
 77
    0
 78
    0
281
    0
 65
    1
110
0
120
0
130
0
111
1
121
0
131
0
112
0
122
1
132
0
 79
    0
146
0
348
10020
 60
    7
 61
    5
292
1
282
    1
141
0
142
0
 63
  250
421
3358443
  0
ENDTAB
  0
TABLE
  2
LTYPE
  5
5
330
0
100
AcDbSymbolTable
 70
    4
  0
LTYPE
  5
14
330
5
100
AcDbSymbolTableRecord
100
AcDbLinetypeTableRecord
  2
ByBlock
 70
    0
  3

 72
   65
 73
    0
 40
0
  0
LTYPE
  5
15
330
5
100
AcDbSymbolTableRecord
100
AcDbLinetypeTableRecord
  2
ByLayer
 70
    0
  3

 72
   65
 73
    0
 40
0
  0
LTYPE
  5
16
330
5
100
AcDbSymbolTableRecord
100
AcDbLinetypeTableRecord
  2
Continuous
 70
    0
  3
Solid line
 72
   65
 73
    0
 40
0
  0
LTYPE
  5
32
330
5
100
AcDbSymbolTableRecord
100
AcDbLinetypeTableRecord
  2
DOT
 70
    0
  3
Dot . . . . . . . . . . . . . . . . . . . . . .
 72
   65
 73
    2
 40
6.35
 49
0
 74
    0
 49
-6.35
 74
    0
  0
LTYPE
  5
33
330
5
100
AcDbSymbolTableRecord
100
AcDbLinetypeTableRecord
  2
DOTTINY
 70
    0
  3
Dot (.15x) .....................................
 72
   65
 73
    2
 40
0.9525
 49
0
 74
    0
 49
-0.9525
 74
    0
  0
LTYPE
  5
34
330
5
100
AcDbSymbolTableRecord
100
AcDbLinetypeTableRecord
  2
DOT2
 70
    0
  3
Dot (.5x) .....................................
 72
   65
 73
    2
 40
3.175
 49
0
 74
    0
 49
-3.175
 74
    0
  0
LTYPE
  5
35
330
5
100
AcDbSymbolTableRecord
100
AcDbLinetypeTableRecord
  2
DOTX2
 70
    0
  3
Dot (2x) .  .  .  .  .  .  .  .  .  .  .  .  .
 72
   65
 73
    2
 40
12.7
 49
0
 74
    0
 49
-12.7
 74
    0
  0
LTYPE
  5
36
330
5
100
AcDbSymbolTableRecord
100
AcDbLinetypeTableRecord
  2
DASHED
 70
    0
  3
Dashed _ _ _ _ _ _ _ _ _ _ _ _ _ _ _ _ _
 72
   65
 73
    2
 40
19.05
 49
12.7
 74
    0
 49
-6.35
 74
    0
  0
LTYPE
  5
37
330
5
100
AcDbSymbolTableRecord
100
AcDbLinetypeTableRecord
  2
DASHEDTINY
 70
    0
  3
Dashed (.15x) _ _ _ _ _ _ _ _ _ _ _ _ _ _ _ _ _
 72
   65
 73
    2
 40
2.8575
 49
1.905
 74
    0
 49
-0.9525
 74
    0
  0
LTYPE
  5
38
330
5
100
AcDbSymbolTableRecord
100
AcDbLinetypeTableRecord
  2
DASHED2
 70
    0
  3
Dashed (.5x) _ _ _ _ _ _ _ _ _ _ _ _ _ _ _ _ _
 72
   65
 73
    2
 40
9.524999999999999
 49
6.35
 74
    0
 49
-3.175
 74
    0
  0
LTYPE
  5
39
330
5
100
AcDbSymbolTableRecord
100
AcDbLinetypeTableRecord
  2
DASHEDX2
 70
    0
  3
Dashed (2x) ____  ____  ____  ____  ____  ___
 72
   65
 73
    2
 40
38.09999999999999
 49
25.4
 74
    0
 49
-12.7
 74
    0
  0
LTYPE
  5
3A
330
5
100
AcDbSymbolTableRecord
100
AcDbLinetypeTableRecord
  2
DASHDOT
 70
    0
  3
Dash dot __ . __ . __ . __ . __ . __ . __ . __
 72
   65
 73
    4
 40
25.4
 49
12.7
 74
    0
 49
-6.35
 74
    0
 49
0
 74
    0
 49
-6.35
 74
    0
  0
LTYPE
  5
3B
330
5
100
AcDbSymbolTableRecord
100
AcDbLinetypeTableRecord
  2
DASHDOTTINY
 70
    0
  3
Dash dot (.15x) _._._._._._._._._._._._._._._.
 72
   65
 73
    4
 40
3.81
 49
1.905
 74
    0
 49
-0.9525
 74
    0
 49
0
 74
    0
 49
-0.9525
 74
    0
  0
LTYPE
  5
3C
330
5
100
AcDbSymbolTableRecord
100
AcDbLinetypeTableRecord
  2
DASHDOT2
 70
    0
  3
Dash dot (.5x) _._._._._._._._._._._._._._._.
 72
   65
 73
    4
 40
12.7
 49
6.35
 74
    0
 49
-3.175
 74
    0
 49
0
 74
    0
 49
-3.175
 74
    0
  0
LTYPE
  5
3D
330
5
100
AcDbSymbolTableRecord
100
AcDbLinetypeTableRecord
  2
DASHDOTX2
 70
    0
  3
Dash dot (2x) ____  .  ____  .  ____  .  ___
 72
   65
 73
    4
 40
50.8
 49
25.4
 74
    0
 49
-12.7
 74
    0
 49
0
 74
    0
 49
-12.7
 74
    0
  0
LTYPE
  5
3E
330
5
100
AcDbSymbolTableRecord
100
AcDbLinetypeTableRecord
  2
DIVIDE
 70
    0
  3
Divide ____ . . ____ . . ____ . . ____ . . ____
 72
   65
 73
    6
 40
31.75
 49
12.7
 74
    0
 49
-6.35
 74
    0
 49
0
 74
    0
 49
-6.35
 74
    0
 49
0
 74
    0
 49
-6.35
 74
    0
  0
LTYPE
  5
3F
330
5
100
AcDbSymbolTableRecord
100
AcDbLinetypeTableRecord
  2
DIVIDETINY
 70
    0
  3
Divide (.15x) __..__..__..__..__..__..__..__.._
 72
   65
 73
    6
 40
4.7625
 49
1.905
 74
    0
 49
-0.9525
 74
    0
 49
0
 74
    0
 49
-0.9525
 74
    0
 49
0
 74
    0
 49
-0.9525
 74
    0
  0
LTYPE
  5
40
330
5
100
AcDbSymbolTableRecord
100
AcDbLinetypeTableRecord
  2
DIVIDE2
 70
    0
  3
Divide (.5x) __..__..__..__..__..__..__..__.._
 72
   65
 73
    6
 40
15.875
 49
6.35
 74
    0
 49
-3.175
 74
    0
 49
0
 74
    0
 49
-3.175
 74
    0
 49
0
 74
    0
 49
-3.175
 74
    0
  0
LTYPE
  5
41
330
5
100
AcDbSymbolTableRecord
100
AcDbLinetypeTableRecord
  2
DIVIDEX2
 70
    0
  3
Divide (2x) ________  .  .  ________  .  .  _
 72
   65
 73
    6
 40
63.5
 49
25.4
 74
    0
 49
-12.7
 74
    0
 49
0
 74
    0
 49
-12.7
 74
    0
 49
0
 74
    0
 49
-12.7
 74
    0
  0
LTYPE
  5
42
330
5
100
AcDbSymbolTableRecord
100
AcDbLinetypeTableRecord
  2
BORDER
 70
    0
  3
Border __ __ . __ __ . __ __ . __ __ . __ __ .
 72
   65
 73
    6
 40
44.45
 49
12.7
 74
    0
 49
-6.35
 74
    0
 49
12.7
 74
    0
 49
-6.35
 74
    0
 49
0
 74
    0
 49
-6.35
 74
    0
  0
LTYPE
  5
43
330
5
100
AcDbSymbolTableRecord
100
AcDbLinetypeTableRecord
  2
BORDERTINY
 70
    0
  3
Border (.15x) __.__.__.__.__.__.__.__.__.__.__.
 72
   65
 73
    6
 40
6.6675
 49
1.905
 74
    0
 49
-0.9525
 74
    0
 49
1.905
 74
    0
 49
-0.9525
 74
    0
 49
0
 74
    0
 49
-0.9525
 74
    0
  0
LTYPE
  5
44
330
5
100
AcDbSymbolTableRecord
100
AcDbLinetypeTableRecord
  2
BORDER2
 70
    0
  3
Border (.5x) __.__.__.__.__.__.__.__.__.__.__.
 72
   65
 73
    6
 40
22.225
 49
6.35
 74
    0
 49
-3.175
 74
    0
 49
6.35
 74
    0
 49
-3.175
 74
    0
 49
0
 74
    0
 49
-3.175
 74
    0
  0
LTYPE
  5
45
330
5
100
AcDbSymbolTableRecord
100
AcDbLinetypeTableRecord
  2
BORDERX2
 70
    0
  3
Border (2x) ____  ____  .  ____  ____  .  ___
 72
   65
 73
    6
 40
88.89999999999999
 49
25.4
 74
    0
 49
-12.7
 74
    0
 49
25.4
 74
    0
 49
-12.7
 74
    0
 49
0
 74
    0
 49
-12.7
 74
    0
  0
LTYPE
  5
46
330
5
100
AcDbSymbolTableRecord
100
AcDbLinetypeTableRecord
  2
CENTER
 70
    0
  3
Center ____ _ ____ _ ____ _ ____ _ ____ _ ____
 72
   65
 73
    4
 40
50.8
 49
31.75
 74
    0
 49
-6.35
 74
    0
 49
6.35
 74
    0
 49
-6.35
 74
    0
  0
LTYPE
  5
47
330
5
100
AcDbSymbolTableRecord
100
AcDbLinetypeTableRecord
  2
CENTERTINY
 70
    0
  3
Center (.15x) ___ _ ___ _ ___ _ ___ _ ___ _ ___
 72
   65
 73
    4
 40
7.619999999999999
 49
4.7625
 74
    0
 49
-0.9525
 74
    0
 49
0.9525
 74
    0
 49
-0.9525
 74
    0
  0
LTYPE
  5
48
330
5
100
AcDbSymbolTableRecord
100
AcDbLinetypeTableRecord
  2
CENTER2
 70
    0
  3
Center (.5x) ___ _ ___ _ ___ _ ___ _ ___ _ ___
 72
   65
 73
    4
 40
28.575
 49
19.05
 74
    0
 49
-3.175
 74
    0
 49
3.175
 74
    0
 49
-3.175
 74
    0
  0
LTYPE
  5
49
330
5
100
AcDbSymbolTableRecord
100
AcDbLinetypeTableRecord
  2
CENTERX2
 70
    0
  3
Center (2x) ________  __  ________  __  _____
 72
   65
 73
    4
 40
101.6
 49
63.5
 74
    0
 49
-12.7
 74
    0
 49
12.7
 74
    0
 49
-12.7
 74
    0
  0
ENDTAB
  0
TABLE
  2
LAYER
  5
2
330
0
100
AcDbSymbolTable
 70
    1
  0
LAYER
  5
10
330
2
100
AcDbSymbolTableRecord
100
AcDbLayerTableRecord
  2
0
 70
    0
 62
    7
  6
CONTINUOUS
370
    0
390
F
  0
ENDTAB
  0
TABLE
  2
STYLE
  5
3
330
0
100
AcDbSymbolTable
 70
    3
  0
STYLE
  5
4A
330
2
100
AcDbSymbolTableRecord
100
AcDbTextStyleTableRecord
  2
Standard
 70
    0
 40
0
 41
1
 50
0
 71
    0
 42
1
  3
txt
  4

  0
ENDTAB
  0
TABLE
  2
VIEW
  5
6
330
0
100
AcDbSymbolTable
 70
    0
  0
ENDTAB
  0
TABLE
  2
UCS
  5
7
330
0
100
AcDbSymbolTable
 70
    0
  0
ENDTAB
  0
TABLE
  2
APPID
  5
9
330
0
100
AcDbSymbolTable
 70
    1
  0
APPID
  5
12
330
9
100
AcDbSymbolTableRecord
100
AcDbRegAppTableRecord
  2
ACAD
 70
    0
  0
APPID
  5
4B
330
9
100
AcDbSymbolTableRecord
100
AcDbRegAppTableRecord
  2
LibreCad
 70
    0
  0
ENDTAB
  0
TABLE
  2
DIMSTYLE
  5
A
330
0
100
AcDbSymbolTable
 70
    1
100
AcDbDimStyleTable
 71
    1
  0
DIMSTYLE
105
4C
330
A
100
AcDbSymbolTableRecord
100
AcDbDimStyleTableRecord
  2
Standard
 70
    0
 40
1
 41
2.5
 42
0.625
 43
0.38
 44
1.25
 45
0
 46
0
 47
0
 48
0
 49
1
140
2.5
141
0.09
142
2.5
143
25.4
144
1
145
0
146
1
147
0.625
148
0
 71
    0
 72
    0
 73
    0
 74
    1
 75
    0
 76
    0
 77
    0
 78
    1
 79
    0
170
    0
171
    2
172
    0
173
    0
174
    0
175
    0
176
    0
177
    0
178
    0
179
    0
271
    2
272
    4
273
    2
274
    2
275
    0
276
    0
277
    2
278
    0
279
    0
280
    0
281
    0
282
    0
283
    1
284
    0
285
    0
286
    0
288
    0
289
    3
340
standard
341

371
   -2
372
   -2
  0
ENDTAB
  0
TABLE
  2
BLOCK_RECORD
  5
1
330
0
100
AcDbSymbolTable
 70
    2
  0
BLOCK_RECORD
  5
1F
330
1
100
AcDbSymbolTableRecord
100
AcDbBlockTableRecord
  2
*Model_Space
 70
    0
280
    1
281
    0
  0
BLOCK_RECORD
  5
1E
330
1
100
AcDbSymbolTableRecord
100
AcDbBlockTableRecord
  2
*Paper_Space
 70
    0
280
    1
281
    0
  0
ENDTAB
  0
ENDSEC
  0
SECTION
  2
BLOCKS
  0
BLOCK
  5
20
330
1F
100
AcDbEntity
  8
0
100
AcDbBlockBegin
  2
*Model_Space
 70
    0
 10
0
 20
0
 30
0
  3
*Model_Space
  1

  0
ENDBLK
  5
21
330
1F
100
AcDbEntity
  8
0
100
AcDbBlockEnd
  0
BLOCK
  5
1C
330
1B
100
AcDbEntity
  8
0
100
AcDbBlockBegin
  2
*Paper_Space
 70
    0
 10
0
 20
0
 30
0
  3
*Paper_Space
  1

  0
ENDBLK
  5
1D
330
1F
100
AcDbEntity
  8
0
100
AcDbBlockEnd
  0
ENDSEC
  0
SECTION
  2
ENTITIES
  0
HATCH
  5
4D
100
AcDbEntity
  8
0
  6
ByLayer
 62
  256
370
   -1
100
AcDbHatch
 10
0
 20
0
 30
0
210
0
220
0
230
1
  2
sand
 70
    0
 71
    0
 91
    1
 92
    0
 93
    0
 97
    0
 75
    0
 76
    1
 52
0
 41
0.02
 77
    0
 78
    0
 98
    0
  0
HATCH
  5
4E
100
AcDbEntity
  8
0
  6
ByLayer
 62
  256
370
   -1
100
AcDbHatch
 10
0
 20
0
 30
0
210
0
220
0
230
1
  2
sand
 70
    0
 71
    0
 91
    1
 92
    0
 93
    0
 97
    0
 75
    0
 76
    1
 52
0
 41
0.02
 77
    0
 78
    0
 98
    0
  0
SPLINE
  5
4F
100
AcDbEntity
  8
0
  6
ByLayer
 62
  256
370
   -1
100
AcDbSpline
210
0
220
0
230
0
 70
    8
 71
    2
 72
   98
 73
   95
 74
    0
 42
1e-07
 43
1e-07
 40
0
 40
0
 40
0
 40
0.01075268817204301
 40
0.02150537634408602
 40
0.03225806451612903
 40
0.04301075268817205
 40
0.05376344086021505
 40
0.06451612903225806
 40
0.07526881720430108
 40
0.08602150537634409
 40
0.09677419354838709
 40
0.1075268817204301
 40
0.1182795698924731
 40
0.1290322580645161
 40
0.1397849462365591
 40
0.1505376344086022
 40
0.1612903225806452
 40
0.1720430107526882
 40
0.1827956989247312
 40
0.1935483870967742
 40
0.2043010752688172
 40
0.2150537634408602
 40
0.2258064516129032
 40
0.2365591397849462
 40
0.2473118279569892
 40
0.2580645161290323
 40
0.2688172043010753
 40
0.2795698924731183
 40
0.2903225806451613
 40
0.3010752688172043
 40
0.3118279569892473
 40
0.3225806451612903
 40
0.3333333333333333
 40
0.3440860215053764
 40
0.3548387096774194
 40
0.3655913978494624
 40
0.3763440860215054
 40
0.3870967741935484
 40
0.3978494623655914
 40
0.4086021505376344
 40
0.4193548387096774
 40
0.4301075268817204
 40
0.4408602150537634
 40
0.4516129032258064
 40
0.4623655913978494
 40
0.4731182795698925
 40
0.4838709677419355
 40
0.4946236559139785
 40
0.5053763440860215
 40
0.5161290322580645
 40
0.5268817204301075
 40
0.5376344086021505
 40
0.5483870967741935
 40
0.5591397849462365
 40
0.5698924731182796
 40
0.5806451612903226
 40
0.5913978494623656
 40
0.6021505376344086
 40
0.6129032258064516
 40
0.6236559139784946
 40
0.6344086021505376
 40
0.6451612903225806
 40
0.6559139784946236
 40
0.6666666666666666
 40
0.6774193548387096
 40
0.6881720430107527
 40
0.6989247311827957
 40
0.7096774193548387
 40
0.7204301075268817
 40
0.7311827956989247
 40
0.7419354838709677
 40
0.7526881720430108
 40
0.7634408602150538
 40
0.7741935483870968
 40
0.7849462365591398
 40
0.7956989247311828
 40
0.8064516129032258
 40
0.8172043010752689
 40
0.8279569892473119
 40
0.8387096774193549
 40
0.8494623655913979
 40
0.8602150537634409
 40
0.8709677419354839
 40
0.8817204301075269
 40
0.8924731182795699
 40
0.9032258064516129
 40
0.9139784946236559
 40
0.9247311827956989
 40
0.9354838709677419
 40
0.946236559139785
 40
0.956989247311828
 40
0.967741935483871
 40
0.978494623655914
 40
0.989247311827957
 40
1
 40
1
 40
1
 10
3.71069450426214
 20
6.559881342624625
 30
0
 10
3.560884851570451
 20
6.371280102570377
 30
0
 10
3.368641115128321
 20
6.241704885540548
 30
0
 10
3.217585486905635
 20
6.1777151552896
 30
0
 10
3.217963334714719
 20
5.997744491955784
 30
0
 10
3.14606823650396
 20
5.855720613161353
 30
0
 10
2.979689496181343
 20
5.817354979485108
 30
0
 10
2.891239201058294
 20
5.690858456747359
 30
0
 10
2.770254803629382
 20
5.587262779578033
 30
0
 10
2.576269770605367
 20
5.596891438573733
 30
0
 10
2.545176944420011
 20
5.428652626251121
 30
0
 10
2.343482476717773
 20
5.501720430830821
 30
0
 10
2.240421103806004
 20
5.354783184050521
 30
0
 10
2.171659673256348
 20
5.223669118711521
 30
0
 10
2.142371589704195
 20
5.082604799785969
 30
0
 10
2.161030915775963
 20
4.931938533360338
 30
0
 10
2.177176703760216
 20
4.793722483653064
 30
0
 10
2.162782762444303
 20
4.651173352111896
 30
0
 10
2.079728382681709
 20
4.490053111954987
 30
0
 10
2.013378583002611
 20
4.33343372594832
 30
0
 10
1.928361830430247
 20
4.196865983774627
 30
0
 10
1.837524657178616
 20
4.033923224185951
 30
0
 10
1.976586512133384
 20
3.872360851365215
 30
0
 10
2.022537071879828
 20
3.61530618466819
 30
0
 10
1.993931193246046
 20
3.412472953322283
 30
0
 10
1.961825456128063
 20
3.267161107768854
 30
0
 10
1.833185408078253
 20
3.240237589221544
 30
0
 10
1.738136153744053
 20
3.196893698222523
 30
0
 10
1.713491473920335
 20
3.103936537662135
 30
0
 10
1.723575964220238
 20
2.987906138159153
 30
0
 10
1.633680237147574
 20
2.947647024240354
 30
0
 10
1.556211257205301
 20
2.954685979743048
 30
0
 10
1.449287069070572
 20
2.950134524864272
 30
0
 10
1.371381384731082
 20
2.83259503285054
 30
0
 10
1.332401937302144
 20
2.71710983302119
 30
0
 10
1.347897051254989
 20
2.631116906636668
 30
0
 10
1.286520802408399
 20
2.570493847380468
 30
0
 10
1.329662966241944
 20
2.44369039466984
 30
0
 10
1.425972257716916
 20
2.279567171961596
 30
0
 10
1.461312921806033
 20
2.119368976809441
 30
0
 10
1.49197180272876
 20
1.956045051503041
 30
0
 10
1.339738274279615
 20
1.81434869980644
 30
0
 10
1.244421690555179
 20
1.604606913188185
 30
0
 10
1.305527048794823
 20
1.327986672154698
 30
0
 10
1.406073067212343
 20
0.997229564252377
 30
0
 10
1.50932029483374
 20
0.8238573569186923
 30
0
 10
1.651636248781656
 20
0.7426254176041427
 30
0
 10
1.890074542557499
 20
0.7988910746457061
 30
0
 10
2.170066992357684
 20
0.7021251074432114
 30
0
 10
2.50437373285329
 20
0.8326863238147498
 30
0
 10
2.817397968996883
 20
0.7298933347115159
 30
0
 10
3.178369667664413
 20
0.7484268786757468
 30
0
 10
3.740545722662425
 20
0.7129407559332244
 30
0
 10
4.376753421026467
 20
0.8052548998078991
 30
0
 10
4.99620805609197
 20
0.6849026168228597
 30
0
 10
5.544776413122933
 20
0.888650971909017
 30
0
 10
6.111143032606474
 20
0.8469273087407805
 30
0
 10
6.626399861226127
 20
0.8589502762264229
 30
0
 10
7.023435133206673
 20
0.9149685331437822
 30
0
 10
7.314325034683182
 20
0.9844621839079184
 30
0
 10
7.595815960741154
 20
0.8784207249761027
 30
0
 10
7.954604819599386
 20
0.8317527321504425
 30
0
 10
8.185422708533055
 20
1.010997107275719
 30
0
 10
8.412709717634034
 20
1.038601268486701
 30
0
 10
8.67577351545123
 20
1.069242291712887
 30
0
 10
8.868672538072587
 20
1.267816297285562
 30
0
 10
8.968058119544054
 20
1.441779776899072
 30
0
 10
8.990802518342935
 20
1.639485686456454
 30
0
 10
9.01610343509358
 20
1.899759524805894
 30
0
 10
8.916702153858303
 20
2.164170221241953
 30
0
 10
9.00944328475714
 20
2.46105857862972
 30
0
 10
8.813179787247257
 20
2.872685605853116
 30
0
 10
8.626511953016882
 20
3.308867610310173
 30
0
 10
8.507565804611289
 20
3.575669721137396
 30
0
 10
8.424636290685216
 20
3.854763488419219
 30
0
 10
8.295144810688987
 20
4.320007488259567
 30
0
 10
8.052050104451336
 20
4.701068748416756
 30
0
 10
8.021936377405897
 20
5.022739539258023
 30
0
 10
7.909024379612766
 20
5.306629718349103
 30
0
 10
7.733713765000585
 20
5.43454347440783
 30
0
 10
7.535652995994775
 20
5.487283858257753
 30
0
 10
7.558211228864245
 20
5.733880111302255
 30
0
 10
7.297450625694941
 20
5.936985595589966
 30
0
 10
6.793004375110806
 20
5.911797460585325
 30
0
 10
6.433424519468691
 20
6.130053577974965
 30
0
 10
6.113238467853679
 20
6.268668934728853
 30
0
 10
5.757384956870203
 20
6.427053815749108
 30
0
 10
5.43912934828986
 20
6.449448915805888
 30
0
 10
5.312521306713259
 20
6.638575954439155
 30
0
 10
5.067868081087181
 20
6.610023695362331
 30
0
 10
4.783234376132029
 20
6.603069289094678
 30
0
 10
4.449449972446903
 20
6.574534643317262
 30
0
 10
4.139185323727387
 20
6.558712048700983
 30
0
 10
3.858785723449297
 20
6.640483797097954
 30
0
 10
3.71069450426214
 20
6.559881342624625
 30
0
  0
LWPOLYLINE
  5
50
100
AcDbEntity
  8
0
  6
ByLayer
 62
  256
370
   -1
100
AcDbPolyline
 90
   20
 70
    0
 43
0
 10
4.654446789299399
 20
5.704435899139181
 10
4.666729472687734
 20
5.704435899139181
 10
4.679012156076066
 20
5.704435899139181
 10
4.691294839464401
 20
5.704435899139181
 10
4.703577522852733
 20
5.704435899139181
 10
4.728142889629403
 20
5.704435899139181
 10
4.75270825640607
 20
5.704435899139181
 10
4.777273623182737
 20
5.704435899139181
 10
4.814121673347735
 20
5.704435899139181
 10
4.82640435673607
 20
5.704435899139181
 10
4.850969723512737
 20
5.704435899139181
 10
4.863252406901072
 20
5.704435899139181
 10
4.875535090289404
 20
5.704435899139181
 10
4.887817773677739
 20
5.704435899139181
 10
4.90010045706607
 20
5.704435899139181
 10
4.912383140454406
 20
5.704435899139181
 10
4.912383140454406
 20
5.716718582527514
 10
4.924665823842737
 20
5.716718582527514
 10
4.936948507231072
 20
5.716718582527514
 10
4.949231190619404
 20
5.716718582527514
  0
LWPOLYLINE
  5
51
100
AcDbEntity
  8
0
  6
ByLayer
 62
  256
370
   -1
100
AcDbPolyline
 90
   19
 70
    0
 43
0
 10
4.691294839464401
 20
5.643022482197514
 10
4.703577522852733
 20
5.643022482197514
 10
4.728142889629403
 20
5.643022482197514
 10
4.75270825640607
 20
5.643022482197514
 10
4.777273623182737
 20
5.643022482197514
 10
4.82640435673607
 20
5.630739798809179
 10
4.850969723512737
 20
5.630739798809179
 10
4.863252406901072
 20
5.630739798809179
 10
4.887817773677739
 20
5.630739798809179
 10
4.90010045706607
 20
5.630739798809179
 10
4.912383140454406
 20
5.630739798809179
 10
4.924665823842737
 20
5.630739798809179
 10
4.936948507231072
 20
5.630739798809179
 10
4.949231190619404
 20
5.630739798809179
 10
4.961513874007739
 20
5.630739798809179
 10
4.973796557396074
 20
5.630739798809179
 10
4.986079240784406
 20
5.630739798809179
 10
4.998361924172741
 20
5.630739798809179
 10
5.010644607561073
 20
5.630739798809179
  0
LWPOLYLINE
  5
52
100
AcDbEntity
  8
0
  6
ByLayer
 62
  256
370
   -1
100
AcDbPolyline
 90
   20
 70
    0
 43
0
 10
4.75270825640607
 20
5.544761015090844
 10
4.764990939794401
 20
5.544761015090844
 10
4.777273623182737
 20
5.544761015090844
 10
4.789556306571068
 20
5.544761015090844
 10
4.801838989959403
 20
5.544761015090844
 10
4.814121673347735
 20
5.544761015090844
 10
4.838687040124405
 20
5.544761015090844
 10
4.863252406901072
 20
5.544761015090844
 10
4.887817773677739
 20
5.544761015090844
 10
4.912383140454406
 20
5.544761015090844
 10
4.936948507231072
 20
5.544761015090844
 10
4.986079240784406
 20
5.544761015090844
 10
5.010644607561073
 20
5.544761015090844
 10
5.059775341114406
 20
5.544761015090844
 10
5.096623391279412
 20
5.544761015090844
 10
5.13347144144441
 20
5.544761015090844
 10
5.145754124832745
 20
5.544761015090844
 10
5.158036808221073
 20
5.544761015090844
 10
5.170319491609408
 20
5.544761015090844
 10
5.182602174997744
 20
5.544761015090844
  0
LWPOLYLINE
  5
53
100
AcDbEntity
  8
0
  6
ByLayer
 62
  256
370
   -1
100
AcDbPolyline
 90
   29
 70
    0
 43
0
 10
4.75270825640607
 20
5.434216864595841
 10
4.764990939794401
 20
5.434216864595841
 10
4.777273623182737
 20
5.434216864595841
 10
4.789556306571068
 20
5.434216864595841
 10
4.801838989959403
 20
5.434216864595841
 10
4.838687040124405
 20
5.42193418120751
 10
4.875535090289404
 20
5.42193418120751
 10
4.924665823842737
 20
5.42193418120751
 10
4.973796557396074
 20
5.42193418120751
 10
5.010644607561073
 20
5.42193418120751
 10
5.084340707891077
 20
5.397368814430843
 10
5.121188758056075
 20
5.397368814430843
 10
5.158036808221073
 20
5.397368814430843
 10
5.170319491609408
 20
5.397368814430843
 10
5.182602174997744
 20
5.397368814430843
 10
5.194884858386079
 20
5.397368814430843
 10
5.207167541774407
 20
5.397368814430843
 10
5.219450225162742
 20
5.397368814430843
 10
5.231732908551077
 20
5.397368814430843
 10
5.244015591939412
 20
5.397368814430843
 10
5.256298275327747
 20
5.397368814430843
 10
5.268580958716075
 20
5.397368814430843
 10
5.280863642104411
 20
5.397368814430843
 10
5.293146325492746
 20
5.397368814430843
 10
5.305429008881081
 20
5.397368814430843
 10
5.317711692269409
 20
5.397368814430843
 10
5.329994375657744
 20
5.397368814430843
 10
5.342277059046079
 20
5.397368814430843
 10
5.354559742434414
 20
5.397368814430843
  0
LWPOLYLINE
  5
54
100
AcDbEntity
  8
0
  6
ByLayer
 62
  256
370
   -1
100
AcDbPolyline
 90
   19
 70
    0
 43
0
 10
4.838687040124405
 20
5.311390030712507
 10
4.850969723512737
 20
5.311390030712507
 10
4.863252406901072
 20
5.311390030712507
 10
4.875535090289404
 20
5.311390030712507
 10
4.912383140454406
 20
5.311390030712507
 10
4.949231190619404
 20
5.311390030712507
 10
5.010644607561073
 20
5.311390030712507
 10
5.059775341114406
 20
5.311390030712507
 10
5.121188758056075
 20
5.311390030712507
 10
5.170319491609408
 20
5.311390030712507
 10
5.244015591939412
 20
5.311390030712507
 10
5.280863642104411
 20
5.311390030712507
 10
5.317711692269409
 20
5.311390030712507
 10
5.342277059046079
 20
5.311390030712507
 10
5.354559742434414
 20
5.311390030712507
 10
5.36684242582275
 20
5.311390030712507
 10
5.379125109211078
 20
5.311390030712507
 10
5.379125109211078
 20
5.299107347324172
 10
5.391407792599413
 20
5.299107347324172
  0
LWPOLYLINE
  5
55
100
AcDbEntity
  8
0
  6
ByLayer
 62
  256
370
   -1
100
AcDbPolyline
 90
   17
 70
    0
 43
0
 10
4.875535090289404
 20
5.225411246994172
 10
4.90010045706607
 20
5.213128563605837
 10
4.924665823842737
 20
5.213128563605837
 10
4.973796557396074
 20
5.200845880217505
 10
5.035209974337743
 20
5.176280513440839
 10
5.084340707891077
 20
5.176280513440839
 10
5.13347144144441
 20
5.176280513440839
 10
5.158036808221073
 20
5.163997830052503
 10
5.182602174997744
 20
5.163997830052503
 10
5.219450225162742
 20
5.163997830052503
 10
5.231732908551077
 20
5.163997830052503
 10
5.244015591939412
 20
5.163997830052503
 10
5.256298275327747
 20
5.163997830052503
 10
5.268580958716075
 20
5.163997830052503
 10
5.280863642104411
 20
5.163997830052503
 10
5.293146325492746
 20
5.163997830052503
 10
5.305429008881081
 20
5.163997830052503
  0
LWPOLYLINE
  5
56
100
AcDbEntity
  8
0
  6
ByLayer
 62
  256
370
   -1
100
AcDbPolyline
 90
   15
 70
    0
 43
0
 10
4.936948507231072
 20
5.11486709649917
 10
4.949231190619404
 20
5.11486709649917
 10
4.961513874007739
 20
5.11486709649917
 10
4.973796557396074
 20
5.11486709649917
 10
4.986079240784406
 20
5.11486709649917
 10
4.998361924172741
 20
5.11486709649917
 10
5.010644607561073
 20
5.11486709649917
 10
5.010644607561073
 20
5.102584413110835
 10
5.022927290949408
 20
5.102584413110835
 10
5.035209974337743
 20
5.102584413110835
 10
5.047492657726071
 20
5.102584413110835
 10
5.059775341114406
 20
5.102584413110835
 10
5.072058024502741
 20
5.102584413110835
 10
5.084340707891077
 20
5.102584413110835
 10
5.072058024502741
 20
5.102584413110835
  0
LWPOLYLINE
  5
57
100
AcDbEntity
  8
0
  6
ByLayer
 62
  256
370
   -1
100
AcDbPolyline
 90
   16
 70
    0
 43
0
 10
4.850969723512737
 20
5.053453679557501
 10
4.863252406901072
 20
5.053453679557501
 10
4.875535090289404
 20
5.053453679557501
 10
4.887817773677739
 20
5.053453679557501
 10
4.90010045706607
 20
5.053453679557501
 10
4.912383140454406
 20
5.053453679557501
 10
4.924665823842737
 20
5.053453679557501
 10
4.936948507231072
 20
5.053453679557501
 10
4.949231190619404
 20
5.053453679557501
 10
4.949231190619404
 20
5.04117099616917
 10
4.961513874007739
 20
5.04117099616917
 10
4.973796557396074
 20
5.04117099616917
 10
4.986079240784406
 20
5.04117099616917
 10
4.998361924172741
 20
5.04117099616917
 10
5.010644607561073
 20
5.04117099616917
 10
5.022927290949408
 20
5.04117099616917
  0
LWPOLYLINE
  5
58
100
AcDbEntity
  8
0
  6
ByLayer
 62
  256
370
   -1
100
AcDbPolyline
 90
   13
 70
    0
 43
0
 10
4.814121673347735
 20
5.004322946004168
 10
4.82640435673607
 20
5.004322946004168
 10
4.838687040124405
 20
5.004322946004168
 10
4.850969723512737
 20
5.004322946004168
 10
4.863252406901072
 20
5.004322946004168
 10
4.875535090289404
 20
5.004322946004168
 10
4.887817773677739
 20
5.004322946004168
 10
4.90010045706607
 20
5.004322946004168
 10
4.90010045706607
 20
4.992040262615832
 10
4.912383140454406
 20
4.992040262615832
 10
4.90010045706607
 20
4.992040262615832
 10
4.90010045706607
 20
4.979757579227501
 10
4.887817773677739
 20
4.979757579227501
  0
LWPOLYLINE
  5
59
100
AcDbEntity
  8
0
  6
ByLayer
 62
  256
370
   -1
100
AcDbPolyline
 90
    5
 70
    0
 43
0
 10
4.863252406901072
 20
4.942909529062499
 10
4.875535090289404
 20
4.942909529062499
 10
4.887817773677739
 20
4.942909529062499
 10
4.887817773677739
 20
4.930626845674167
 10
4.90010045706607
 20
4.930626845674167
  0
LWPOLYLINE
  5
5A
100
AcDbEntity
  8
0
  6
ByLayer
 62
  256
370
   -1
100
AcDbPolyline
 90
   19
 70
    0
 43
0
 10
3.954333836164388
 20
5.471064914760843
 10
3.966616519552719
 20
5.471064914760843
 10
3.978899202941054
 20
5.471064914760843
 10
3.991181886329386
 20
5.471064914760843
 10
4.003464569717721
 20
5.471064914760843
 10
4.015747253106056
 20
5.471064914760843
 10
4.028029936494388
 20
5.471064914760843
 10
4.040312619882723
 20
5.471064914760843
 10
4.052595303271055
 20
5.471064914760843
 10
4.06487798665939
 20
5.471064914760843
 10
4.077160670047721
 20
5.471064914760843
 10
4.077160670047721
 20
5.483347598149178
 10
4.089443353436057
 20
5.483347598149178
 10
4.101726036824388
 20
5.483347598149178
 10
4.114008720212723
 20
5.483347598149178
 10
4.126291403601059
 20
5.483347598149178
 10
4.13857408698939
 20
5.483347598149178
 10
4.150856770377725
 20
5.483347598149178
 10
4.150856770377725
 20
5.49563028153751
  0
LWPOLYLINE
  5
5B
100
AcDbEntity
  8
0
  6
ByLayer
 62
  256
370
   -1
100
AcDbPolyline
 90
    7
 70
    0
 43
0
 10
3.978899202941054
 20
5.42193418120751
 10
3.991181886329386
 20
5.42193418120751
 10
4.003464569717721
 20
5.42193418120751
 10
4.015747253106056
 20
5.42193418120751
 10
4.028029936494388
 20
5.42193418120751
 10
4.040312619882723
 20
5.42193418120751
 10
4.052595303271055
 20
5.42193418120751
  0
LWPOLYLINE
  5
5C
100
AcDbEntity
  8
0
  6
ByLayer
 62
  256
370
   -1
100
AcDbPolyline
 90
    4
 70
    0
 43
0
 10
3.856072369057717
 20
5.335955397489174
 10
3.868355052446052
 20
5.335955397489174
 10
3.880637735834387
 20
5.335955397489174
 10
3.892920419222719
 20
5.335955397489174
  0
LWPOLYLINE
  5
5D
100
AcDbEntity
  8
0
  6
ByLayer
 62
  256
370
   -1
100
AcDbPolyline
 90
   28
 70
    0
 43
0
 10
5.477386576317752
 20
4.242796575927487
 10
5.48966925970608
 20
4.242796575927487
 10
5.501951943094415
 20
4.242796575927487
 10
5.51423462648275
 20
4.242796575927487
 10
5.526517309871085
 20
4.255079259315819
 10
5.538799993259413
 20
4.255079259315819
 10
5.551082676647749
 20
4.255079259315819
 10
5.563365360036084
 20
4.255079259315819
 10
5.575648043424419
 20
4.255079259315819
 10
5.587930726812747
 20
4.255079259315819
 10
5.600213410201082
 20
4.255079259315819
 10
5.612496093589417
 20
4.255079259315819
 10
5.624778776977752
 20
4.255079259315819
 10
5.637061460366088
 20
4.255079259315819
 10
5.649344143754423
 20
4.267361942704154
 10
5.661626827142751
 20
4.267361942704154
 10
5.673909510531086
 20
4.267361942704154
 10
5.686192193919421
 20
4.267361942704154
 10
5.686192193919421
 20
4.279644626092486
 10
5.698474877307749
 20
4.279644626092486
 10
5.710757560696084
 20
4.279644626092486
 10
5.723040244084419
 20
4.279644626092486
 10
5.735322927472755
 20
4.279644626092486
 10
5.74760561086109
 20
4.279644626092486
 10
5.74760561086109
 20
4.291927309480821
 10
5.759888294249425
 20
4.291927309480821
 10
5.772170977637753
 20
4.291927309480821
 10
5.784453661026088
 20
4.291927309480821
  0
LWPOLYLINE
  5
5E
100
AcDbEntity
  8
0
  6
ByLayer
 62
  256
370
   -1
100
AcDbPolyline
 90
   25
 70
    0
 43
0
 10
5.48966925970608
 20
4.181383158985819
 10
5.501951943094415
 20
4.181383158985819
 10
5.51423462648275
 20
4.193665842374152
 10
5.526517309871085
 20
4.193665842374152
 10
5.538799993259413
 20
4.193665842374152
 10
5.538799993259413
 20
4.205948525762485
 10
5.551082676647749
 20
4.205948525762485
 10
5.563365360036084
 20
4.205948525762485
 10
5.575648043424419
 20
4.205948525762485
 10
5.587930726812747
 20
4.205948525762485
 10
5.600213410201082
 20
4.205948525762485
 10
5.612496093589417
 20
4.218231209150819
 10
5.624778776977752
 20
4.218231209150819
 10
5.637061460366088
 20
4.218231209150819
 10
5.649344143754423
 20
4.218231209150819
 10
5.661626827142751
 20
4.218231209150819
 10
5.661626827142751
 20
4.230513892539152
 10
5.673909510531086
 20
4.230513892539152
 10
5.686192193919421
 20
4.230513892539152
 10
5.698474877307749
 20
4.230513892539152
 10
5.710757560696084
 20
4.230513892539152
 10
5.723040244084419
 20
4.230513892539152
 10
5.723040244084419
 20
4.242796575927487
 10
5.735322927472755
 20
4.242796575927487
 10
5.74760561086109
 20
4.242796575927487
  0
LWPOLYLINE
  5
5F
100
AcDbEntity
  8
0
  6
ByLayer
 62
  256
370
   -1
100
AcDbPolyline
 90
   26
 70
    0
 43
0
 10
5.575648043424419
 20
4.156817792209152
 10
5.587930726812747
 20
4.156817792209152
 10
5.600213410201082
 20
4.156817792209152
 10
5.612496093589417
 20
4.156817792209152
 10
5.624778776977752
 20
4.156817792209152
 10
5.637061460366088
 20
4.156817792209152
 10
5.637061460366088
 20
4.169100475597485
 10
5.661626827142751
 20
4.169100475597485
 10
5.673909510531086
 20
4.169100475597485
 10
5.686192193919421
 20
4.169100475597485
 10
5.698474877307749
 20
4.169100475597485
 10
5.710757560696084
 20
4.169100475597485
 10
5.723040244084419
 20
4.169100475597485
 10
5.735322927472755
 20
4.181383158985819
 10
5.74760561086109
 20
4.181383158985819
 10
5.759888294249425
 20
4.181383158985819
 10
5.772170977637753
 20
4.181383158985819
 10
5.784453661026088
 20
4.181383158985819
 10
5.796736344414423
 20
4.193665842374152
 10
5.809019027802751
 20
4.193665842374152
 10
5.821301711191087
 20
4.193665842374152
 10
5.833584394579422
 20
4.193665842374152
 10
5.845867077967757
 20
4.193665842374152
 10
5.858149761356092
 20
4.193665842374152
 10
5.870432444744427
 20
4.193665842374152
 10
5.882715128132755
 20
4.193665842374152
  0
LWPOLYLINE
  5
60
100
AcDbEntity
  8
0
  6
ByLayer
 62
  256
370
   -1
100
AcDbPolyline
 90
   17
 70
    0
 43
0
 10
5.673909510531086
 20
4.132252425432485
 10
5.686192193919421
 20
4.132252425432485
 10
5.698474877307749
 20
4.132252425432485
 10
5.710757560696084
 20
4.132252425432485
 10
5.723040244084419
 20
4.132252425432485
 10
5.735322927472755
 20
4.132252425432485
 10
5.74760561086109
 20
4.132252425432485
 10
5.759888294249425
 20
4.144535108820817
 10
5.772170977637753
 20
4.144535108820817
 10
5.784453661026088
 20
4.144535108820817
 10
5.796736344414423
 20
4.144535108820817
 10
5.809019027802751
 20
4.144535108820817
 10
5.809019027802751
 20
4.156817792209152
 10
5.821301711191087
 20
4.156817792209152
 10
5.833584394579422
 20
4.156817792209152
 10
5.845867077967757
 20
4.156817792209152
 10
5.858149761356092
 20
4.156817792209152
  0
LWPOLYLINE
  5
61
100
AcDbEntity
  8
0
  6
ByLayer
 62
  256
370
   -1
100
AcDbPolyline
 90
    8
 70
    0
 43
0
 10
3.598136017902714
 20
3.297029955025801
 10
3.610418701291046
 20
3.297029955025801
 10
3.610418701291046
 20
3.309312638414134
 10
3.622701384679381
 20
3.309312638414134
 10
3.634984068067713
 20
3.309312638414134
 10
3.647266751456048
 20
3.309312638414134
 10
3.659549434844383
 20
3.309312638414134
 10
3.659549434844383
 20
3.297029955025801
  0
LWPOLYLINE
  5
62
100
AcDbEntity
  8
0
  6
ByLayer
 62
  256
370
   -1
100
AcDbPolyline
 90
   11
 70
    0
 43
0
 10
3.573570651126047
 20
3.247899221472467
 10
3.585853334514379
 20
3.247899221472467
 10
3.598136017902714
 20
3.247899221472467
 10
3.610418701291046
 20
3.247899221472467
 10
3.622701384679381
 20
3.247899221472467
 10
3.622701384679381
 20
3.235616538084134
 10
3.634984068067713
 20
3.235616538084134
 10
3.647266751456048
 20
3.235616538084134
 10
3.659549434844383
 20
3.235616538084134
 10
3.671832118232714
 20
3.235616538084134
 10
3.671832118232714
 20
3.223333854695801
  0
LWPOLYLINE
  5
63
100
AcDbEntity
  8
0
  6
ByLayer
 62
  256
370
   -1
100
AcDbPolyline
 90
   18
 70
    0
 43
0
 10
3.536722600961046
 20
3.211051171307467
 10
3.549005284349381
 20
3.211051171307467
 10
3.561287967737712
 20
3.211051171307467
 10
3.573570651126047
 20
3.211051171307467
 10
3.585853334514379
 20
3.211051171307467
 10
3.598136017902714
 20
3.211051171307467
 10
3.610418701291046
 20
3.211051171307467
 10
3.622701384679381
 20
3.211051171307467
 10
3.634984068067713
 20
3.211051171307467
 10
3.647266751456048
 20
3.211051171307467
 10
3.659549434844383
 20
3.211051171307467
 10
3.671832118232714
 20
3.211051171307467
 10
3.68411480162105
 20
3.211051171307467
 10
3.696397485009381
 20
3.211051171307467
 10
3.708680168397716
 20
3.211051171307467
 10
3.708680168397716
 20
3.198768487919134
 10
3.720962851786048
 20
3.198768487919134
 10
3.733245535174383
 20
3.198768487919134
  0
LWPOLYLINE
  5
64
100
AcDbEntity
  8
0
  6
ByLayer
 62
  256
370
   -1
100
AcDbPolyline
 90
   18
 70
    0
 43
0
 10
3.52443991757271
 20
3.149637754365799
 10
3.536722600961046
 20
3.149637754365799
 10
3.549005284349381
 20
3.149637754365799
 10
3.561287967737712
 20
3.149637754365799
 10
3.573570651126047
 20
3.149637754365799
 10
3.585853334514379
 20
3.149637754365799
 10
3.598136017902714
 20
3.149637754365799
 10
3.610418701291046
 20
3.149637754365799
 10
3.622701384679381
 20
3.149637754365799
 10
3.634984068067713
 20
3.149637754365799
 10
3.647266751456048
 20
3.149637754365799
 10
3.659549434844383
 20
3.149637754365799
 10
3.671832118232714
 20
3.149637754365799
 10
3.68411480162105
 20
3.149637754365799
 10
3.696397485009381
 20
3.149637754365799
 10
3.708680168397716
 20
3.149637754365799
 10
3.720962851786048
 20
3.149637754365799
 10
3.720962851786048
 20
3.137355070977465
  0
LWPOLYLINE
  5
65
100
AcDbEntity
  8
0
  6
ByLayer
 62
  256
370
   -1
100
AcDbPolyline
 90
   14
 70
    0
 43
0
 10
3.536722600961046
 20
3.100507020812463
 10
3.549005284349381
 20
3.100507020812463
 10
3.561287967737712
 20
3.100507020812463
 10
3.573570651126047
 20
3.100507020812463
 10
3.610418701291046
 20
3.100507020812463
 10
3.622701384679381
 20
3.100507020812463
 10
3.647266751456048
 20
3.100507020812463
 10
3.659549434844383
 20
3.100507020812463
 10
3.68411480162105
 20
3.100507020812463
 10
3.696397485009381
 20
3.100507020812463
 10
3.708680168397716
 20
3.100507020812463
 10
3.720962851786048
 20
3.100507020812463
 10
3.733245535174383
 20
3.100507020812463
 10
3.745528218562715
 20
3.100507020812463
  0
LWPOLYLINE
  5
66
100
AcDbEntity
  8
0
  6
ByLayer
 62
  256
370
   -1
100
AcDbPolyline
 90
    9
 70
    0
 43
0
 10
3.610418701291046
 20
3.05137628725913
 10
3.622701384679381
 20
3.05137628725913
 10
3.647266751456048
 20
3.05137628725913
 10
3.68411480162105
 20
3.05137628725913
 10
3.696397485009381
 20
3.05137628725913
 10
3.708680168397716
 20
3.05137628725913
 10
3.720962851786048
 20
3.05137628725913
 10
3.733245535174383
 20
3.05137628725913
 10
3.733245535174383
 20
3.039093603870796
  0
LWPOLYLINE
  5
67
100
AcDbEntity
  8
0
  6
ByLayer
 62
  256
370
   -1
100
AcDbPolyline
 90
    8
 70
    0
 43
0
 10
3.634984068067713
 20
3.186485804530799
 10
3.647266751456048
 20
3.186485804530799
 10
3.659549434844383
 20
3.186485804530799
 10
3.671832118232714
 20
3.186485804530799
 10
3.68411480162105
 20
3.186485804530799
 10
3.696397485009381
 20
3.186485804530799
 10
3.708680168397716
 20
3.186485804530799
 10
3.720962851786048
 20
3.186485804530799
  0
LWPOLYLINE
  5
68
100
AcDbEntity
  8
0
  6
ByLayer
 62
  256
370
   -1
100
AcDbPolyline
 90
   14
 70
    0
 43
0
 10
4.101726036824388
 20
3.01452823709413
 10
4.114008720212723
 20
3.01452823709413
 10
4.114008720212723
 20
3.026810920482463
 10
4.126291403601059
 20
3.026810920482463
 10
4.13857408698939
 20
3.026810920482463
 10
4.150856770377725
 20
3.026810920482463
 10
4.163139453766057
 20
3.026810920482463
 10
4.175422137154392
 20
3.026810920482463
 10
4.187704820542724
 20
3.026810920482463
 10
4.199987503931059
 20
3.026810920482463
 10
4.21227018731939
 20
3.026810920482463
 10
4.224552870707726
 20
3.026810920482463
 10
4.236835554096061
 20
3.026810920482463
 10
4.236835554096061
 20
3.01452823709413
  0
LWPOLYLINE
  5
69
100
AcDbEntity
  8
0
  6
ByLayer
 62
  256
370
   -1
100
AcDbPolyline
 90
    9
 70
    0
 43
0
 10
4.089443353436057
 20
2.74430920255079
 10
4.101726036824388
 20
2.74430920255079
 10
4.114008720212723
 20
2.74430920255079
 10
4.150856770377725
 20
2.74430920255079
 10
4.175422137154392
 20
2.74430920255079
 10
4.199987503931059
 20
2.74430920255079
 10
4.21227018731939
 20
2.74430920255079
 10
4.224552870707726
 20
2.74430920255079
 10
4.236835554096061
 20
2.74430920255079
  0
LWPOLYLINE
  5
6A
100
AcDbEntity
  8
0
  6
ByLayer
 62
  256
370
   -1
100
AcDbPolyline
 90
   14
 70
    0
 43
0
 10
4.089443353436057
 20
2.891701403210794
 10
4.101726036824388
 20
2.891701403210794
 10
4.114008720212723
 20
2.891701403210794
 10
4.126291403601059
 20
2.891701403210794
 10
4.13857408698939
 20
2.891701403210794
 10
4.150856770377725
 20
2.891701403210794
 10
4.163139453766057
 20
2.891701403210794
 10
4.175422137154392
 20
2.891701403210794
 10
4.199987503931059
 20
2.891701403210794
 10
4.224552870707726
 20
2.891701403210794
 10
4.236835554096061
 20
2.891701403210794
 10
4.261400920872727
 20
2.891701403210794
 10
4.273683604261059
 20
2.891701403210794
 10
4.285966287649394
 20
2.891701403210794
  0
LWPOLYLINE
  5
6B
100
AcDbEntity
  8
0
  6
ByLayer
 62
  256
370
   -1
100
AcDbPolyline
 90
   12
 70
    0
 43
0
 10
4.101726036824388
 20
2.953114820152461
 10
4.114008720212723
 20
2.953114820152461
 10
4.126291403601059
 20
2.953114820152461
 10
4.13857408698939
 20
2.953114820152461
 10
4.13857408698939
 20
2.940832136764127
 10
4.163139453766057
 20
2.940832136764127
 10
4.175422137154392
 20
2.940832136764127
 10
4.199987503931059
 20
2.940832136764127
 10
4.21227018731939
 20
2.940832136764127
 10
4.224552870707726
 20
2.940832136764127
 10
4.236835554096061
 20
2.940832136764127
 10
4.249118237484392
 20
2.940832136764127
  0
LWPOLYLINE
  5
6C
100
AcDbEntity
  8
0
  6
ByLayer
 62
  256
370
   -1
100
AcDbPolyline
 90
   11
 70
    0
 43
0
 10
4.163139453766057
 20
2.805722619492458
 10
4.175422137154392
 20
2.805722619492458
 10
4.199987503931059
 20
2.818005302880792
 10
4.21227018731939
 20
2.818005302880792
 10
4.224552870707726
 20
2.818005302880792
 10
4.236835554096061
 20
2.818005302880792
 10
4.249118237484392
 20
2.818005302880792
 10
4.261400920872727
 20
2.818005302880792
 10
4.273683604261059
 20
2.818005302880792
 10
4.285966287649394
 20
2.818005302880792
 10
4.298248971037726
 20
2.818005302880792
  0
LWPOLYLINE
  5
6D
100
AcDbEntity
  8
0
  6
ByLayer
 62
  256
370
   -1
100
AcDbPolyline
 90
   13
 70
    0
 43
0
 10
4.077160670047721
 20
2.756591885939125
 10
4.089443353436057
 20
2.756591885939125
 10
4.114008720212723
 20
2.756591885939125
 10
4.126291403601059
 20
2.756591885939125
 10
4.13857408698939
 20
2.756591885939125
 10
4.150856770377725
 20
2.756591885939125
 10
4.150856770377725
 20
2.768874569327458
 10
4.163139453766057
 20
2.768874569327458
 10
4.175422137154392
 20
2.768874569327458
 10
4.187704820542724
 20
2.768874569327458
 10
4.199987503931059
 20
2.768874569327458
 10
4.21227018731939
 20
2.768874569327458
 10
4.224552870707726
 20
2.768874569327458
  0
LWPOLYLINE
  5
6E
100
AcDbEntity
  8
0
  6
ByLayer
 62
  256
370
   -1
100
AcDbPolyline
 90
   15
 70
    0
 43
0
 10
4.150856770377725
 20
2.695178468997456
 10
4.163139453766057
 20
2.695178468997456
 10
4.175422137154392
 20
2.695178468997456
 10
4.187704820542724
 20
2.695178468997456
 10
4.199987503931059
 20
2.695178468997456
 10
4.21227018731939
 20
2.695178468997456
 10
4.224552870707726
 20
2.695178468997456
 10
4.236835554096061
 20
2.695178468997456
 10
4.249118237484392
 20
2.695178468997456
 10
4.261400920872727
 20
2.695178468997456
 10
4.273683604261059
 20
2.695178468997456
 10
4.285966287649394
 20
2.695178468997456
 10
4.298248971037726
 20
2.695178468997456
 10
4.310531654426061
 20
2.695178468997456
 10
4.322814337814393
 20
2.695178468997456
  0
LWPOLYLINE
  5
6F
100
AcDbEntity
  8
0
  6
ByLayer
 62
  256
370
   -1
100
AcDbPolyline
 90
    5
 70
    0
 43
0
 10
4.261400920872727
 20
2.658330418832456
 10
4.273683604261059
 20
2.658330418832456
 10
4.285966287649394
 20
2.658330418832456
 10
4.298248971037726
 20
2.658330418832456
 10
4.310531654426061
 20
2.658330418832456
  0
LWPOLYLINE
  5
70
100
AcDbEntity
  8
0
  6
ByLayer
 62
  256
370
   -1
100
AcDbPolyline
 90
    5
 70
    0
 43
0
 10
4.322814337814393
 20
2.609199685279121
 10
4.335097021202728
 20
2.609199685279121
 10
4.347379704591059
 20
2.609199685279121
 10
4.359662387979395
 20
2.609199685279121
 10
4.37194507136773
 20
2.609199685279121
  0
LWPOLYLINE
  5
71
100
AcDbEntity
  8
0
  6
ByLayer
 62
  256
370
   -1
100
AcDbPolyline
 90
   12
 70
    0
 43
0
 10
4.37194507136773
 20
2.547786268337454
 10
4.384227754756061
 20
2.547786268337454
 10
4.396510438144396
 20
2.547786268337454
 10
4.408793121532728
 20
2.547786268337454
 10
4.421075804921063
 20
2.547786268337454
 10
4.433358488309395
 20
2.547786268337454
 10
4.44564117169773
 20
2.547786268337454
 10
4.457923855086062
 20
2.547786268337454
 10
4.470206538474397
 20
2.547786268337454
 10
4.482489221862732
 20
2.547786268337454
 10
4.494771905251064
 20
2.547786268337454
 10
4.507054588639399
 20
2.547786268337454
  0
LWPOLYLINE
  5
72
100
AcDbEntity
  8
0
  6
ByLayer
 62
  256
370
   -1
100
AcDbPolyline
 90
    9
 70
    0
 43
0
 10
4.470206538474397
 20
2.510938218172454
 10
4.482489221862732
 20
2.510938218172454
 10
4.494771905251064
 20
2.510938218172454
 10
4.507054588639399
 20
2.510938218172454
 10
4.51933727202773
 20
2.510938218172454
 10
4.531619955416065
 20
2.510938218172454
 10
4.543902638804397
 20
2.510938218172454
 10
4.556185322192732
 20
2.510938218172454
 10
4.568468005581064
 20
2.510938218172454
  0
LWPOLYLINE
  5
73
100
AcDbEntity
  8
0
  6
ByLayer
 62
  256
370
   -1
100
AcDbPolyline
 90
   18
 70
    0
 43
0
 10
4.543902638804397
 20
2.461807484619118
 10
4.556185322192732
 20
2.461807484619118
 10
4.568468005581064
 20
2.461807484619118
 10
4.580750688969399
 20
2.461807484619118
 10
4.593033372357731
 20
2.461807484619118
 10
4.605316055746066
 20
2.461807484619118
 10
4.617598739134401
 20
2.461807484619118
 10
4.642164105911068
 20
2.461807484619118
 10
4.654446789299399
 20
2.461807484619118
 10
4.679012156076066
 20
2.461807484619118
 10
4.703577522852733
 20
2.461807484619118
 10
4.728142889629403
 20
2.461807484619118
 10
4.75270825640607
 20
2.461807484619118
 10
4.75270825640607
 20
2.449524801230785
 10
4.764990939794401
 20
2.449524801230785
 10
4.764990939794401
 20
2.437242117842452
 10
4.75270825640607
 20
2.437242117842452
 10
4.740425573017735
 20
2.437242117842452
  0
LWPOLYLINE
  5
74
100
AcDbEntity
  8
0
  6
ByLayer
 62
  256
370
   -1
100
AcDbPolyline
 90
    7
 70
    0
 43
0
 10
4.666729472687734
 20
2.412676751065785
 10
4.679012156076066
 20
2.412676751065785
 10
4.691294839464401
 20
2.412676751065785
 10
4.703577522852733
 20
2.412676751065785
 10
4.703577522852733
 20
2.400394067677452
 10
4.715860206241068
 20
2.400394067677452
 10
4.715860206241068
 20
2.388111384289118
  0
LWPOLYLINE
  5
75
100
AcDbEntity
  8
0
  6
ByLayer
 62
  256
370
   -1
100
AcDbPolyline
 90
    3
 70
    0
 43
0
 10
4.715860206241068
 20
2.388111384289118
 10
4.715860206241068
 20
2.375828700900783
 10
4.728142889629403
 20
2.375828700900783
  0
LWPOLYLINE
  5
76
100
AcDbEntity
  8
0
  6
ByLayer
 62
  256
370
   -1
100
AcDbPolyline
 90
   17
 70
    0
 43
0
 10
2.578673296671028
 20
3.161920437754132
 10
2.590955980059359
 20
3.161920437754132
 10
2.603238663447694
 20
3.161920437754132
 10
2.615521346836029
 20
3.161920437754132
 10
2.627804030224361
 20
3.161920437754132
 10
2.640086713612696
 20
3.161920437754132
 10
2.652369397001028
 20
3.161920437754132
 10
2.664652080389363
 20
3.161920437754132
 10
2.676934763777695
 20
3.161920437754132
 10
2.68921744716603
 20
3.161920437754132
 10
2.68921744716603
 20
3.149637754365799
 10
2.701500130554361
 20
3.149637754365799
 10
2.713782813942696
 20
3.149637754365799
 10
2.726065497331028
 20
3.149637754365799
 10
2.726065497331028
 20
3.137355070977465
 10
2.738348180719363
 20
3.137355070977465
 10
2.750630864107698
 20
3.137355070977465
  0
LWPOLYLINE
  5
77
100
AcDbEntity
  8
0
  6
ByLayer
 62
  256
370
   -1
100
AcDbPolyline
 90
   27
 70
    0
 43
0
 10
2.566390613282692
 20
3.100507020812463
 10
2.578673296671028
 20
3.100507020812463
 10
2.590955980059359
 20
3.100507020812463
 10
2.603238663447694
 20
3.100507020812463
 10
2.615521346836029
 20
3.100507020812463
 10
2.627804030224361
 20
3.100507020812463
 10
2.627804030224361
 20
3.088224337424132
 10
2.640086713612696
 20
3.088224337424132
 10
2.652369397001028
 20
3.088224337424132
 10
2.664652080389363
 20
3.088224337424132
 10
2.664652080389363
 20
3.075941654035796
 10
2.676934763777695
 20
3.075941654035796
 10
2.68921744716603
 20
3.075941654035796
 10
2.701500130554361
 20
3.075941654035796
 10
2.713782813942696
 20
3.075941654035796
 10
2.726065497331028
 20
3.075941654035796
 10
2.738348180719363
 20
3.075941654035796
 10
2.750630864107698
 20
3.075941654035796
 10
2.76291354749603
 20
3.075941654035796
 10
2.76291354749603
 20
3.063658970647463
 10
2.775196230884365
 20
3.063658970647463
 10
2.787478914272697
 20
3.063658970647463
 10
2.799761597661032
 20
3.063658970647463
 10
2.812044281049364
 20
3.063658970647463
 10
2.824326964437699
 20
3.063658970647463
 10
2.83660964782603
 20
3.063658970647463
 10
2.824326964437699
 20
3.063658970647463
  0
LWPOLYLINE
  5
78
100
AcDbEntity
  8
0
  6
ByLayer
 62
  256
370
   -1
100
AcDbPolyline
 90
   23
 70
    0
 43
0
 10
2.517259879729359
 20
3.01452823709413
 10
2.541825246506026
 20
3.002245553705796
 10
2.566390613282692
 20
3.002245553705796
 10
2.590955980059359
 20
3.002245553705796
 10
2.603238663447694
 20
3.002245553705796
 10
2.627804030224361
 20
3.002245553705796
 10
2.664652080389363
 20
3.002245553705796
 10
2.676934763777695
 20
3.002245553705796
 10
2.701500130554361
 20
2.989962870317463
 10
2.713782813942696
 20
2.989962870317463
 10
2.726065497331028
 20
2.989962870317463
 10
2.738348180719363
 20
2.989962870317463
 10
2.738348180719363
 20
2.977680186929129
 10
2.750630864107698
 20
2.977680186929129
 10
2.76291354749603
 20
2.977680186929129
 10
2.775196230884365
 20
2.977680186929129
 10
2.787478914272697
 20
2.977680186929129
 10
2.799761597661032
 20
2.977680186929129
 10
2.812044281049364
 20
2.977680186929129
 10
2.824326964437699
 20
2.965397503540794
 10
2.83660964782603
 20
2.965397503540794
 10
2.848892331214365
 20
2.965397503540794
 10
2.861175014602701
 20
2.965397503540794
  0
LWPOLYLINE
  5
79
100
AcDbEntity
  8
0
  6
ByLayer
 62
  256
370
   -1
100
AcDbPolyline
 90
   40
 70
    0
 43
0
 10
2.45584646278769
 20
2.903984086599127
 10
2.468129146176025
 20
2.903984086599127
 10
2.492694512952692
 20
2.903984086599127
 10
2.517259879729359
 20
2.903984086599127
 10
2.529542563117694
 20
2.903984086599127
 10
2.541825246506026
 20
2.903984086599127
 10
2.554107929894361
 20
2.903984086599127
 10
2.566390613282692
 20
2.903984086599127
 10
2.578673296671028
 20
2.903984086599127
 10
2.590955980059359
 20
2.903984086599127
 10
2.603238663447694
 20
2.903984086599127
 10
2.615521346836029
 20
2.903984086599127
 10
2.627804030224361
 20
2.903984086599127
 10
2.627804030224361
 20
2.891701403210794
 10
2.640086713612696
 20
2.891701403210794
 10
2.652369397001028
 20
2.891701403210794
 10
2.664652080389363
 20
2.891701403210794
 10
2.676934763777695
 20
2.891701403210794
 10
2.68921744716603
 20
2.891701403210794
 10
2.701500130554361
 20
2.891701403210794
 10
2.713782813942696
 20
2.891701403210794
 10
2.726065497331028
 20
2.891701403210794
 10
2.738348180719363
 20
2.891701403210794
 10
2.750630864107698
 20
2.891701403210794
 10
2.76291354749603
 20
2.891701403210794
 10
2.775196230884365
 20
2.891701403210794
 10
2.787478914272697
 20
2.891701403210794
 10
2.787478914272697
 20
2.879418719822461
 10
2.799761597661032
 20
2.879418719822461
 10
2.812044281049364
 20
2.879418719822461
 10
2.824326964437699
 20
2.879418719822461
 10
2.83660964782603
 20
2.879418719822461
 10
2.848892331214365
 20
2.879418719822461
 10
2.861175014602701
 20
2.879418719822461
 10
2.873457697991032
 20
2.879418719822461
 10
2.885740381379367
 20
2.879418719822461
 10
2.898023064767699
 20
2.879418719822461
 10
2.910305748156034
 20
2.879418719822461
 10
2.922588431544366
 20
2.879418719822461
 10
2.934871114932701
 20
2.879418719822461
  0
LWPOLYLINE
  5
7A
100
AcDbEntity
  8
0
  6
ByLayer
 62
  256
370
   -1
100
AcDbPolyline
 90
   36
 70
    0
 43
0
 10
2.357584995681023
 20
2.854853353045792
 10
2.369867679069355
 20
2.854853353045792
 10
2.38215036245769
 20
2.854853353045792
 10
2.394433045846025
 20
2.854853353045792
 10
2.406715729234357
 20
2.854853353045792
 10
2.45584646278769
 20
2.854853353045792
 10
2.480411829564357
 20
2.854853353045792
 10
2.504977196341027
 20
2.842570669657459
 10
2.554107929894361
 20
2.842570669657459
 10
2.566390613282692
 20
2.842570669657459
 10
2.590955980059359
 20
2.842570669657459
 10
2.603238663447694
 20
2.842570669657459
 10
2.615521346836029
 20
2.842570669657459
 10
2.627804030224361
 20
2.842570669657459
 10
2.640086713612696
 20
2.842570669657459
 10
2.652369397001028
 20
2.842570669657459
 10
2.664652080389363
 20
2.842570669657459
 10
2.676934763777695
 20
2.842570669657459
 10
2.701500130554361
 20
2.842570669657459
 10
2.713782813942696
 20
2.842570669657459
 10
2.738348180719363
 20
2.842570669657459
 10
2.76291354749603
 20
2.842570669657459
 10
2.812044281049364
 20
2.830287986269125
 10
2.83660964782603
 20
2.830287986269125
 10
2.848892331214365
 20
2.830287986269125
 10
2.873457697991032
 20
2.830287986269125
 10
2.885740381379367
 20
2.830287986269125
 10
2.898023064767699
 20
2.830287986269125
 10
2.910305748156034
 20
2.830287986269125
 10
2.922588431544366
 20
2.830287986269125
 10
2.934871114932701
 20
2.830287986269125
 10
2.947153798321033
 20
2.830287986269125
 10
2.959436481709368
 20
2.830287986269125
 10
2.959436481709368
 20
2.818005302880792
 10
2.971719165097699
 20
2.818005302880792
 10
2.984001848486034
 20
2.818005302880792
  0
LWPOLYLINE
  5
7B
100
AcDbEntity
  8
0
  6
ByLayer
 62
  256
370
   -1
100
AcDbPolyline
 90
   28
 70
    0
 43
0
 10
2.468129146176025
 20
2.756591885939125
 10
2.480411829564357
 20
2.756591885939125
 10
2.492694512952692
 20
2.756591885939125
 10
2.504977196341027
 20
2.756591885939125
 10
2.517259879729359
 20
2.756591885939125
 10
2.529542563117694
 20
2.756591885939125
 10
2.554107929894361
 20
2.756591885939125
 10
2.566390613282692
 20
2.756591885939125
 10
2.590955980059359
 20
2.756591885939125
 10
2.603238663447694
 20
2.756591885939125
 10
2.627804030224361
 20
2.756591885939125
 10
2.640086713612696
 20
2.756591885939125
 10
2.664652080389363
 20
2.756591885939125
 10
2.676934763777695
 20
2.756591885939125
 10
2.68921744716603
 20
2.756591885939125
 10
2.701500130554361
 20
2.756591885939125
 10
2.713782813942696
 20
2.756591885939125
 10
2.726065497331028
 20
2.756591885939125
 10
2.738348180719363
 20
2.756591885939125
 10
2.750630864107698
 20
2.756591885939125
 10
2.76291354749603
 20
2.756591885939125
 10
2.775196230884365
 20
2.756591885939125
 10
2.787478914272697
 20
2.756591885939125
 10
2.824326964437699
 20
2.756591885939125
 10
2.83660964782603
 20
2.756591885939125
 10
2.848892331214365
 20
2.756591885939125
 10
2.861175014602701
 20
2.756591885939125
 10
2.873457697991032
 20
2.756591885939125
  0
LWPOLYLINE
  5
7C
100
AcDbEntity
  8
0
  6
ByLayer
 62
  256
370
   -1
100
AcDbPolyline
 90
   23
 70
    0
 43
0
 10
2.394433045846025
 20
2.719743835774123
 10
2.406715729234357
 20
2.719743835774123
 10
2.431281096011023
 20
2.719743835774123
 10
2.45584646278769
 20
2.719743835774123
 10
2.492694512952692
 20
2.719743835774123
 10
2.529542563117694
 20
2.719743835774123
 10
2.554107929894361
 20
2.719743835774123
 10
2.578673296671028
 20
2.719743835774123
 10
2.603238663447694
 20
2.719743835774123
 10
2.615521346836029
 20
2.70746115238579
 10
2.627804030224361
 20
2.70746115238579
 10
2.640086713612696
 20
2.70746115238579
 10
2.652369397001028
 20
2.70746115238579
 10
2.664652080389363
 20
2.70746115238579
 10
2.676934763777695
 20
2.70746115238579
 10
2.68921744716603
 20
2.70746115238579
 10
2.701500130554361
 20
2.70746115238579
 10
2.713782813942696
 20
2.70746115238579
 10
2.726065497331028
 20
2.70746115238579
 10
2.738348180719363
 20
2.70746115238579
 10
2.750630864107698
 20
2.70746115238579
 10
2.76291354749603
 20
2.70746115238579
 10
2.775196230884365
 20
2.70746115238579
  0
LWPOLYLINE
  5
7D
100
AcDbEntity
  8
0
  6
ByLayer
 62
  256
370
   -1
100
AcDbPolyline
 90
   19
 70
    0
 43
0
 10
2.30845426212769
 20
2.658330418832456
 10
2.320736945516021
 20
2.658330418832456
 10
2.333019628904356
 20
2.658330418832456
 10
2.345302312292688
 20
2.658330418832456
 10
2.357584995681023
 20
2.658330418832456
 10
2.38215036245769
 20
2.658330418832456
 10
2.418998412622692
 20
2.658330418832456
 10
2.45584646278769
 20
2.658330418832456
 10
2.480411829564357
 20
2.658330418832456
 10
2.504977196341027
 20
2.658330418832456
 10
2.529542563117694
 20
2.658330418832456
 10
2.541825246506026
 20
2.658330418832456
 10
2.554107929894361
 20
2.658330418832456
 10
2.566390613282692
 20
2.658330418832456
 10
2.578673296671028
 20
2.658330418832456
 10
2.590955980059359
 20
2.658330418832456
 10
2.590955980059359
 20
2.646047735444123
 10
2.603238663447694
 20
2.646047735444123
 10
2.590955980059359
 20
2.633765052055789
  0
LWPOLYLINE
  5
7E
100
AcDbEntity
  8
0
  6
ByLayer
 62
  256
370
   -1
100
AcDbPolyline
 90
   19
 70
    0
 43
0
 10
2.357584995681023
 20
2.584634318502454
 10
2.369867679069355
 20
2.584634318502454
 10
2.38215036245769
 20
2.584634318502454
 10
2.394433045846025
 20
2.584634318502454
 10
2.406715729234357
 20
2.584634318502454
 10
2.418998412622692
 20
2.584634318502454
 10
2.431281096011023
 20
2.584634318502454
 10
2.431281096011023
 20
2.572351635114121
 10
2.443563779399359
 20
2.572351635114121
 10
2.45584646278769
 20
2.572351635114121
 10
2.468129146176025
 20
2.572351635114121
 10
2.480411829564357
 20
2.572351635114121
 10
2.492694512952692
 20
2.572351635114121
 10
2.492694512952692
 20
2.560068951725787
 10
2.504977196341027
 20
2.560068951725787
 10
2.517259879729359
 20
2.560068951725787
 10
2.529542563117694
 20
2.560068951725787
 10
2.541825246506026
 20
2.560068951725787
 10
2.554107929894361
 20
2.560068951725787
  0
LWPOLYLINE
  5
7F
100
AcDbEntity
  8
0
  6
ByLayer
 62
  256
370
   -1
100
AcDbPolyline
 90
   12
 70
    0
 43
0
 10
2.418998412622692
 20
2.523220901560787
 10
2.431281096011023
 20
2.523220901560787
 10
2.443563779399359
 20
2.523220901560787
 10
2.45584646278769
 20
2.523220901560787
 10
2.468129146176025
 20
2.523220901560787
 10
2.480411829564357
 20
2.523220901560787
 10
2.492694512952692
 20
2.523220901560787
 10
2.504977196341027
 20
2.523220901560787
 10
2.517259879729359
 20
2.523220901560787
 10
2.529542563117694
 20
2.523220901560787
 10
2.541825246506026
 20
2.523220901560787
 10
2.541825246506026
 20
2.510938218172454
  0
LWPOLYLINE
  5
80
100
AcDbEntity
  8
0
  6
ByLayer
 62
  256
370
   -1
100
AcDbPolyline
 90
   19
 70
    0
 43
0
 10
2.468129146176025
 20
2.461807484619118
 10
2.480411829564357
 20
2.461807484619118
 10
2.492694512952692
 20
2.461807484619118
 10
2.504977196341027
 20
2.461807484619118
 10
2.517259879729359
 20
2.461807484619118
 10
2.517259879729359
 20
2.449524801230785
 10
2.529542563117694
 20
2.449524801230785
 10
2.529542563117694
 20
2.437242117842452
 10
2.529542563117694
 20
2.424959434454118
 10
2.517259879729359
 20
2.424959434454118
 10
2.504977196341027
 20
2.424959434454118
 10
2.492694512952692
 20
2.424959434454118
 10
2.480411829564357
 20
2.424959434454118
 10
2.480411829564357
 20
2.412676751065785
 10
2.468129146176025
 20
2.412676751065785
 10
2.45584646278769
 20
2.412676751065785
 10
2.45584646278769
 20
2.400394067677452
 10
2.443563779399359
 20
2.400394067677452
 10
2.431281096011023
 20
2.400394067677452
  0
LWPOLYLINE
  5
81
100
AcDbEntity
  8
0
  6
ByLayer
 62
  256
370
   -1
100
AcDbPolyline
 90
    8
 70
    0
 43
0
 10
2.443563779399359
 20
2.400394067677452
 10
2.45584646278769
 20
2.400394067677452
 10
2.468129146176025
 20
2.400394067677452
 10
2.468129146176025
 20
2.388111384289118
 10
2.480411829564357
 20
2.388111384289118
 10
2.492694512952692
 20
2.388111384289118
 10
2.504977196341027
 20
2.388111384289118
 10
2.517259879729359
 20
2.388111384289118
  0
LWPOLYLINE
  5
82
100
AcDbEntity
  8
0
  6
ByLayer
 62
  256
370
   -1
100
AcDbPolyline
 90
   14
 70
    0
 43
0
 10
7.233810300849452
 20
4.525298293859159
 10
7.24609298423778
 20
4.525298293859159
 10
7.258375667626115
 20
4.525298293859159
 10
7.27065835101445
 20
4.525298293859159
 10
7.282941034402786
 20
4.525298293859159
 10
7.295223717791121
 20
4.525298293859159
 10
7.307506401179449
 20
4.525298293859159
 10
7.319789084567784
 20
4.525298293859159
 10
7.332071767956119
 20
4.525298293859159
 10
7.344354451344454
 20
4.525298293859159
 10
7.356637134732782
 20
4.525298293859159
 10
7.356637134732782
 20
4.537580977247492
 10
7.368919818121118
 20
4.537580977247492
 10
7.381202501509453
 20
4.537580977247492
  0
LWPOLYLINE
  5
83
100
AcDbEntity
  8
0
  6
ByLayer
 62
  256
370
   -1
100
AcDbPolyline
 90
   21
 70
    0
 43
0
 10
7.258375667626115
 20
4.463884876917492
 10
7.27065835101445
 20
4.463884876917492
 10
7.282941034402786
 20
4.463884876917492
 10
7.295223717791121
 20
4.463884876917492
 10
7.307506401179449
 20
4.463884876917492
 10
7.319789084567784
 20
4.463884876917492
 10
7.332071767956119
 20
4.463884876917492
 10
7.356637134732782
 20
4.463884876917492
 10
7.368919818121118
 20
4.463884876917492
 10
7.381202501509453
 20
4.463884876917492
 10
7.393485184897788
 20
4.463884876917492
 10
7.405767868286123
 20
4.463884876917492
 10
7.418050551674451
 20
4.463884876917492
 10
7.430333235062786
 20
4.463884876917492
 10
7.442615918451121
 20
4.463884876917492
 10
7.454898601839457
 20
4.463884876917492
 10
7.467181285227785
 20
4.463884876917492
 10
7.47946396861612
 20
4.463884876917492
 10
7.491746652004455
 20
4.463884876917492
 10
7.50402933539279
 20
4.463884876917492
 10
7.516312018781125
 20
4.463884876917492
  0
LWPOLYLINE
  5
84
100
AcDbEntity
  8
0
  6
ByLayer
 62
  256
370
   -1
100
AcDbPolyline
 90
   11
 70
    0
 43
0
 10
7.319789084567784
 20
4.353340726422489
 10
7.332071767956119
 20
4.353340726422489
 10
7.344354451344454
 20
4.353340726422489
 10
7.356637134732782
 20
4.353340726422489
 10
7.368919818121118
 20
4.353340726422489
 10
7.381202501509453
 20
4.353340726422489
 10
7.393485184897788
 20
4.353340726422489
 10
7.405767868286123
 20
4.353340726422489
 10
7.418050551674451
 20
4.353340726422489
 10
7.430333235062786
 20
4.353340726422489
 10
7.442615918451121
 20
4.353340726422489
  0
LWPOLYLINE
  5
85
100
AcDbEntity
  8
0
  6
ByLayer
 62
  256
370
   -1
100
AcDbPolyline
 90
   11
 70
    0
 43
0
 10
7.172396883907783
 20
4.255079259315819
 10
7.184679567296119
 20
4.255079259315819
 10
7.209244934072782
 20
4.255079259315819
 10
7.221527617461117
 20
4.255079259315819
 10
7.233810300849452
 20
4.255079259315819
 10
7.24609298423778
 20
4.255079259315819
 10
7.258375667626115
 20
4.255079259315819
 10
7.27065835101445
 20
4.255079259315819
 10
7.282941034402786
 20
4.255079259315819
 10
7.295223717791121
 20
4.255079259315819
 10
7.307506401179449
 20
4.255079259315819
  0
LWPOLYLINE
  5
86
100
AcDbEntity
  8
0
  6
ByLayer
 62
  256
370
   -1
100
AcDbPolyline
 90
   10
 70
    0
 43
0
 10
7.147831517131113
 20
4.169100475597485
 10
7.160114200519448
 20
4.169100475597485
 10
7.184679567296119
 20
4.169100475597485
 10
7.196962250684447
 20
4.169100475597485
 10
7.209244934072782
 20
4.169100475597485
 10
7.221527617461117
 20
4.169100475597485
 10
7.233810300849452
 20
4.169100475597485
 10
7.233810300849452
 20
4.156817792209152
 10
7.24609298423778
 20
4.156817792209152
 10
7.258375667626115
 20
4.156817792209152
  0
LWPOLYLINE
  5
87
100
AcDbEntity
  8
0
  6
ByLayer
 62
  256
370
   -1
100
AcDbPolyline
 90
   15
 70
    0
 43
0
 10
7.086418100189444
 20
4.095404375267483
 10
7.086418100189444
 20
4.08312169187915
 10
7.09870078357778
 20
4.08312169187915
 10
7.110983466966115
 20
4.08312169187915
 10
7.12326615035445
 20
4.08312169187915
 10
7.135548833742778
 20
4.08312169187915
 10
7.147831517131113
 20
4.08312169187915
 10
7.160114200519448
 20
4.08312169187915
 10
7.172396883907783
 20
4.08312169187915
 10
7.184679567296119
 20
4.08312169187915
 10
7.196962250684447
 20
4.08312169187915
 10
7.209244934072782
 20
4.08312169187915
 10
7.221527617461117
 20
4.08312169187915
 10
7.233810300849452
 20
4.08312169187915
 10
7.24609298423778
 20
4.08312169187915
  0
LWPOLYLINE
  5
88
100
AcDbEntity
  8
0
  6
ByLayer
 62
  256
370
   -1
100
AcDbPolyline
 90
    9
 70
    0
 43
0
 10
7.037287366636111
 20
4.021708274937483
 10
7.049570050024446
 20
4.021708274937483
 10
7.061852733412781
 20
4.021708274937483
 10
7.074135416801116
 20
4.021708274937483
 10
7.086418100189444
 20
4.021708274937483
 10
7.09870078357778
 20
4.021708274937483
 10
7.110983466966115
 20
4.021708274937483
 10
7.12326615035445
 20
4.021708274937483
 10
7.135548833742778
 20
4.021708274937483
  0
LWPOLYLINE
  5
89
100
AcDbEntity
  8
0
  6
ByLayer
 62
  256
370
   -1
100
AcDbPolyline
 90
   11
 70
    0
 43
0
 10
6.975873949694442
 20
3.923446807830814
 10
6.988156633082777
 20
3.923446807830814
 10
6.988156633082777
 20
3.911164124442481
 10
7.000439316471113
 20
3.911164124442481
 10
7.012721999859448
 20
3.911164124442481
 10
7.025004683247776
 20
3.911164124442481
 10
7.037287366636111
 20
3.911164124442481
 10
7.049570050024446
 20
3.911164124442481
 10
7.061852733412781
 20
3.911164124442481
 10
7.074135416801116
 20
3.911164124442481
 10
7.074135416801116
 20
3.898881441054145
  0
LWPOLYLINE
  5
8A
100
AcDbEntity
  8
0
  6
ByLayer
 62
  256
370
   -1
100
AcDbPolyline
 90
    8
 70
    0
 43
0
 10
6.926743216141109
 20
3.849750707500812
 10
6.939025899529444
 20
3.849750707500812
 10
6.951308582917779
 20
3.849750707500812
 10
6.963591266306114
 20
3.849750707500812
 10
6.963591266306114
 20
3.837468024112479
 10
6.975873949694442
 20
3.837468024112479
 10
6.988156633082777
 20
3.837468024112479
 10
7.000439316471113
 20
3.837468024112479
  0
LWPOLYLINE
  5
8B
100
AcDbEntity
  8
0
  6
ByLayer
 62
  256
370
   -1
100
AcDbPolyline
 90
   12
 70
    0
 43
0
 10
6.853047115811112
 20
3.763771923782476
 10
6.86532979919944
 20
3.763771923782476
 10
6.877612482587775
 20
3.763771923782476
 10
6.88989516597611
 20
3.763771923782476
 10
6.914460532752774
 20
3.763771923782476
 10
6.926743216141109
 20
3.763771923782476
 10
6.939025899529444
 20
3.763771923782476
 10
6.951308582917779
 20
3.763771923782476
 10
6.963591266306114
 20
3.763771923782476
 10
6.975873949694442
 20
3.763771923782476
 10
6.975873949694442
 20
3.751489240394143
 10
6.988156633082777
 20
3.751489240394143
  0
LWPOLYLINE
  5
8C
100
AcDbEntity
  8
0
  6
ByLayer
 62
  256
370
   -1
100
AcDbPolyline
 90
    6
 70
    0
 43
0
 10
6.853047115811112
 20
3.714641190229143
 10
6.853047115811112
 20
3.70235850684081
 10
6.86532979919944
 20
3.70235850684081
 10
6.877612482587775
 20
3.70235850684081
 10
6.88989516597611
 20
3.70235850684081
 10
6.88989516597611
 20
3.690075823452476
  0
LWPOLYLINE
  5
8D
100
AcDbEntity
  8
0
  6
ByLayer
 62
  256
370
   -1
100
AcDbPolyline
 90
    6
 70
    0
 43
0
 10
6.791633698869443
 20
3.640945089899141
 10
6.803916382257771
 20
3.640945089899141
 10
6.816199065646106
 20
3.640945089899141
 10
6.828481749034442
 20
3.640945089899141
 10
6.840764432422777
 20
3.640945089899141
 10
6.840764432422777
 20
3.628662406510808
  0
LWPOLYLINE
  5
8E
100
AcDbEntity
  8
0
  6
ByLayer
 62
  256
370
   -1
100
AcDbPolyline
 90
    2
 70
    0
 43
0
 10
6.74250296531611
 20
3.591814356345807
 10
6.754785648704438
 20
3.591814356345807
  0
LWPOLYLINE
  5
8F
100
AcDbEntity
  8
0
  6
ByLayer
 62
  256
370
   -1
100
AcDbPolyline
 90
    2
 70
    0
 43
0
 10
6.779351015481108
 20
3.530400939404139
 10
6.791633698869443
 20
3.530400939404139
  0
LWPOLYLINE
  5
90
100
AcDbEntity
  8
0
  6
ByLayer
 62
  256
370
   -1
100
AcDbPolyline
 90
    6
 70
    0
 43
0
 10
6.779351015481108
 20
3.383008738744136
 10
6.791633698869443
 20
3.383008738744136
 10
6.803916382257771
 20
3.383008738744136
 10
6.816199065646106
 20
3.383008738744136
 10
6.828481749034442
 20
3.383008738744136
 10
6.840764432422777
 20
3.383008738744136
  0
LWPOLYLINE
  5
91
100
AcDbEntity
  8
0
  6
ByLayer
 62
  256
370
   -1
100
AcDbPolyline
 90
    8
 70
    0
 43
0
 10
6.803916382257771
 20
3.297029955025801
 10
6.816199065646106
 20
3.297029955025801
 10
6.828481749034442
 20
3.297029955025801
 10
6.840764432422777
 20
3.297029955025801
 10
6.840764432422777
 20
3.284747271637467
 10
6.853047115811112
 20
3.284747271637467
 10
6.86532979919944
 20
3.284747271637467
 10
6.86532979919944
 20
3.272464588249134
  0
LWPOLYLINE
  5
92
100
AcDbEntity
  8
0
  6
ByLayer
 62
  256
370
   -1
100
AcDbPolyline
 90
   12
 70
    0
 43
0
 10
6.853047115811112
 20
3.235616538084134
 10
6.853047115811112
 20
3.223333854695801
 10
6.86532979919944
 20
3.223333854695801
 10
6.877612482587775
 20
3.223333854695801
 10
6.88989516597611
 20
3.223333854695801
 10
6.902177849364445
 20
3.223333854695801
 10
6.914460532752774
 20
3.223333854695801
 10
6.926743216141109
 20
3.211051171307467
 10
6.939025899529444
 20
3.211051171307467
 10
6.951308582917779
 20
3.211051171307467
 10
6.963591266306114
 20
3.211051171307467
 10
6.963591266306114
 20
3.198768487919134
  0
LWPOLYLINE
  5
93
100
AcDbEntity
  8
0
  6
ByLayer
 62
  256
370
   -1
100
AcDbPolyline
 90
   11
 70
    0
 43
0
 10
6.914460532752774
 20
3.149637754365799
 10
6.926743216141109
 20
3.149637754365799
 10
6.939025899529444
 20
3.149637754365799
 10
6.951308582917779
 20
3.149637754365799
 10
6.963591266306114
 20
3.149637754365799
 10
6.975873949694442
 20
3.149637754365799
 10
6.988156633082777
 20
3.137355070977465
 10
7.000439316471113
 20
3.137355070977465
 10
7.012721999859448
 20
3.137355070977465
 10
7.025004683247776
 20
3.137355070977465
 10
7.037287366636111
 20
3.137355070977465
  0
LWPOLYLINE
  5
94
100
AcDbEntity
  8
0
  6
ByLayer
 62
  256
370
   -1
100
AcDbPolyline
 90
   11
 70
    0
 43
0
 10
7.000439316471113
 20
3.100507020812463
 10
7.012721999859448
 20
3.100507020812463
 10
7.025004683247776
 20
3.100507020812463
 10
7.049570050024446
 20
3.100507020812463
 10
7.086418100189444
 20
3.100507020812463
 10
7.12326615035445
 20
3.088224337424132
 10
7.147831517131113
 20
3.088224337424132
 10
7.160114200519448
 20
3.088224337424132
 10
7.172396883907783
 20
3.075941654035796
 10
7.184679567296119
 20
3.075941654035796
 10
7.172396883907783
 20
3.075941654035796
  0
LWPOLYLINE
  5
95
100
AcDbEntity
  8
0
  6
ByLayer
 62
  256
370
   -1
100
AcDbPolyline
 90
    8
 70
    0
 43
0
 10
7.061852733412781
 20
3.01452823709413
 10
7.086418100189444
 20
3.01452823709413
 10
7.110983466966115
 20
3.002245553705796
 10
7.135548833742778
 20
3.002245553705796
 10
7.172396883907783
 20
3.002245553705796
 10
7.184679567296119
 20
2.989962870317463
 10
7.196962250684447
 20
2.989962870317463
 10
7.209244934072782
 20
2.977680186929129
  0
LWPOLYLINE
  5
96
100
AcDbEntity
  8
0
  6
ByLayer
 62
  256
370
   -1
100
AcDbPolyline
 90
    3
 70
    0
 43
0
 10
7.221527617461117
 20
2.916266769987461
 10
7.233810300849452
 20
2.916266769987461
 10
7.233810300849452
 20
2.903984086599127
  0
LWPOLYLINE
  5
97
100
AcDbEntity
  8
0
  6
ByLayer
 62
  256
370
   -1
100
AcDbPolyline
 90
    5
 70
    0
 43
0
 10
7.172396883907783
 20
2.842570669657459
 10
7.184679567296119
 20
2.842570669657459
 10
7.196962250684447
 20
2.842570669657459
 10
7.209244934072782
 20
2.842570669657459
 10
7.221527617461117
 20
2.842570669657459
  0
LWPOLYLINE
  5
98
100
AcDbEntity
  8
0
  6
ByLayer
 62
  256
370
   -1
100
AcDbPolyline
 90
    7
 70
    0
 43
0
 10
7.196962250684447
 20
2.830287986269125
 10
7.209244934072782
 20
2.830287986269125
 10
7.221527617461117
 20
2.830287986269125
 10
7.233810300849452
 20
2.830287986269125
 10
7.24609298423778
 20
2.818005302880792
 10
7.258375667626115
 20
2.818005302880792
 10
7.27065835101445
 20
2.818005302880792
  0
LWPOLYLINE
  5
99
100
AcDbEntity
  8
0
  6
ByLayer
 62
  256
370
   -1
100
AcDbPolyline
 90
    8
 70
    0
 43
0
 10
7.258375667626115
 20
2.768874569327458
 10
7.27065835101445
 20
2.768874569327458
 10
7.295223717791121
 20
2.756591885939125
 10
7.332071767956119
 20
2.756591885939125
 10
7.344354451344454
 20
2.756591885939125
 10
7.368919818121118
 20
2.74430920255079
 10
7.381202501509453
 20
2.74430920255079
 10
7.393485184897788
 20
2.74430920255079
  0
LWPOLYLINE
  5
9A
100
AcDbEntity
  8
0
  6
ByLayer
 62
  256
370
   -1
100
AcDbPolyline
 90
   13
 70
    0
 43
0
 10
7.307506401179449
 20
2.682895785609123
 10
7.319789084567784
 20
2.682895785609123
 10
7.332071767956119
 20
2.682895785609123
 10
7.344354451344454
 20
2.682895785609123
 10
7.356637134732782
 20
2.682895785609123
 10
7.368919818121118
 20
2.682895785609123
 10
7.393485184897788
 20
2.67061310222079
 10
7.418050551674451
 20
2.67061310222079
 10
7.442615918451121
 20
2.658330418832456
 10
7.47946396861612
 20
2.658330418832456
 10
7.491746652004455
 20
2.658330418832456
 10
7.491746652004455
 20
2.646047735444123
 10
7.47946396861612
 20
2.646047735444123
  0
LWPOLYLINE
  5
9B
100
AcDbEntity
  8
0
  6
ByLayer
 62
  256
370
   -1
100
AcDbPolyline
 90
   10
 70
    0
 43
0
 10
7.418050551674451
 20
2.609199685279121
 10
7.430333235062786
 20
2.609199685279121
 10
7.442615918451121
 20
2.609199685279121
 10
7.454898601839457
 20
2.609199685279121
 10
7.467181285227785
 20
2.609199685279121
 10
7.47946396861612
 20
2.596917001890787
 10
7.491746652004455
 20
2.596917001890787
 10
7.50402933539279
 20
2.596917001890787
 10
7.516312018781125
 20
2.596917001890787
 10
7.516312018781125
 20
2.584634318502454
  0
LWPOLYLINE
  5
9C
100
AcDbEntity
  8
0
  6
ByLayer
 62
  256
370
   -1
100
AcDbPolyline
 90
    8
 70
    0
 43
0
 10
7.491746652004455
 20
2.547786268337454
 10
7.50402933539279
 20
2.535503584949121
 10
7.516312018781125
 20
2.535503584949121
 10
7.528594702169453
 20
2.523220901560787
 10
7.540877385557788
 20
2.523220901560787
 10
7.553160068946124
 20
2.523220901560787
 10
7.565442752334459
 20
2.523220901560787
 10
7.565442752334459
 20
2.510938218172454
  0
LWPOLYLINE
  5
9D
100
AcDbEntity
  8
0
  6
ByLayer
 62
  256
370
   -1
100
AcDbPolyline
 90
   12
 70
    0
 43
0
 10
7.565442752334459
 20
2.461807484619118
 10
7.602290802499457
 20
2.461807484619118
 10
7.614573485887792
 20
2.461807484619118
 10
7.62685616927612
 20
2.449524801230785
 10
7.639138852664455
 20
2.449524801230785
 10
7.651421536052791
 20
2.449524801230785
 10
7.675986902829461
 20
2.449524801230785
 10
7.688269586217789
 20
2.449524801230785
 10
7.688269586217789
 20
2.437242117842452
 10
7.700552269606124
 20
2.437242117842452
 10
7.688269586217789
 20
2.437242117842452
 10
7.688269586217789
 20
2.424959434454118
  0
LWPOLYLINE
  5
9E
100
AcDbEntity
  8
0
  6
ByLayer
 62
  256
370
   -1
100
AcDbPolyline
 90
    2
 70
    0
 43
0
 10
7.639138852664455
 20
2.400394067677452
 10
7.639138852664455
 20
2.388111384289118
  0
LWPOLYLINE
  5
9F
100
AcDbEntity
  8
0
  6
ByLayer
 62
  256
370
   -1
100
AcDbPolyline
 90
    2
 70
    0
 43
0
 10
7.675986902829461
 20
2.326697967347449
 10
7.688269586217789
 20
2.326697967347449
  0
LWPOLYLINE
  5
A0
100
AcDbEntity
  8
0
  6
ByLayer
 62
  256
370
   -1
100
AcDbPolyline
 90
    7
 70
    0
 43
0
 10
7.835661786877797
 20
3.530400939404139
 10
7.847944470266125
 20
3.530400939404139
 10
7.86022715365446
 20
3.530400939404139
 10
7.872509837042795
 20
3.530400939404139
 10
7.872509837042795
 20
3.518118256015805
 10
7.872509837042795
 20
3.505835572627472
 10
7.872509837042795
 20
3.493552889239139
  0
LWPOLYLINE
  5
A1
100
AcDbEntity
  8
0
  6
ByLayer
 62
  256
370
   -1
100
AcDbPolyline
 90
    7
 70
    0
 43
0
 10
7.847944470266125
 20
3.407574105520803
 10
7.86022715365446
 20
3.407574105520803
 10
7.86022715365446
 20
3.39529142213247
 10
7.872509837042795
 20
3.39529142213247
 10
7.88479252043113
 20
3.39529142213247
 10
7.897075203819465
 20
3.39529142213247
 10
7.909357887207793
 20
3.39529142213247
  0
LWPOLYLINE
  5
A2
100
AcDbEntity
  8
0
  6
ByLayer
 62
  256
370
   -1
100
AcDbPolyline
 90
    9
 70
    0
 43
0
 10
7.88479252043113
 20
3.333878005190803
 10
7.88479252043113
 20
3.321595321802469
 10
7.897075203819465
 20
3.321595321802469
 10
7.909357887207793
 20
3.321595321802469
 10
7.921640570596129
 20
3.321595321802469
 10
7.921640570596129
 20
3.309312638414134
 10
7.933923253984464
 20
3.309312638414134
 10
7.933923253984464
 20
3.297029955025801
 10
7.946205937372799
 20
3.297029955025801
  0
LWPOLYLINE
  5
A3
100
AcDbEntity
  8
0
  6
ByLayer
 62
  256
370
   -1
100
AcDbPolyline
 90
    6
 70
    0
 43
0
 10
7.921640570596129
 20
3.247899221472467
 10
7.921640570596129
 20
3.235616538084134
 10
7.921640570596129
 20
3.223333854695801
 10
7.933923253984464
 20
3.223333854695801
 10
7.946205937372799
 20
3.223333854695801
 10
7.946205937372799
 20
3.211051171307467
  0
LWPOLYLINE
  5
A4
100
AcDbEntity
  8
0
  6
ByLayer
 62
  256
370
   -1
100
AcDbPolyline
 90
    9
 70
    0
 43
0
 10
7.933923253984464
 20
3.112789704200798
 10
7.946205937372799
 20
3.112789704200798
 10
7.958488620761127
 20
3.112789704200798
 10
7.970771304149462
 20
3.112789704200798
 10
7.970771304149462
 20
3.100507020812463
 10
7.983053987537797
 20
3.100507020812463
 10
7.995336670926132
 20
3.100507020812463
 10
8.007619354314468
 20
3.100507020812463
 10
8.019902037702796
 20
3.100507020812463
  0
LWPOLYLINE
  5
A5
100
AcDbEntity
  8
0
  6
ByLayer
 62
  256
370
   -1
100
AcDbPolyline
 90
   12
 70
    0
 43
0
 10
7.946205937372799
 20
3.05137628725913
 10
7.946205937372799
 20
3.039093603870796
 10
7.958488620761127
 20
3.039093603870796
 10
7.970771304149462
 20
3.039093603870796
 10
7.970771304149462
 20
3.026810920482463
 10
7.983053987537797
 20
3.026810920482463
 10
7.983053987537797
 20
3.01452823709413
 10
7.983053987537797
 20
3.002245553705796
 10
7.970771304149462
 20
3.002245553705796
 10
7.970771304149462
 20
2.989962870317463
 10
7.958488620761127
 20
2.989962870317463
 10
7.958488620761127
 20
2.977680186929129
  0
LWPOLYLINE
  5
A6
100
AcDbEntity
  8
0
  6
ByLayer
 62
  256
370
   -1
100
AcDbPolyline
 90
    5
 70
    0
 43
0
 10
7.921640570596129
 20
2.953114820152461
 10
7.933923253984464
 20
2.953114820152461
 10
7.946205937372799
 20
2.953114820152461
 10
7.958488620761127
 20
2.953114820152461
 10
7.970771304149462
 20
2.953114820152461
  0
LWPOLYLINE
  5
A7
100
AcDbEntity
  8
0
  6
ByLayer
 62
  256
370
   -1
100
AcDbPolyline
 90
    5
 70
    0
 43
0
 10
7.872509837042795
 20
2.903984086599127
 10
7.88479252043113
 20
2.903984086599127
 10
7.897075203819465
 20
2.903984086599127
 10
7.909357887207793
 20
2.903984086599127
 10
7.921640570596129
 20
2.903984086599127
  0
LWPOLYLINE
  5
A8
100
AcDbEntity
  8
0
  6
ByLayer
 62
  256
370
   -1
100
AcDbPolyline
 90
   13
 70
    0
 43
0
 10
7.897075203819465
 20
2.842570669657459
 10
7.909357887207793
 20
2.842570669657459
 10
7.909357887207793
 20
2.830287986269125
 10
7.921640570596129
 20
2.830287986269125
 10
7.946205937372799
 20
2.830287986269125
 10
7.958488620761127
 20
2.818005302880792
 10
7.983053987537797
 20
2.818005302880792
 10
7.995336670926132
 20
2.818005302880792
 10
8.007619354314468
 20
2.805722619492458
 10
8.019902037702796
 20
2.805722619492458
 10
8.032184721091131
 20
2.805722619492458
 10
8.044467404479466
 20
2.805722619492458
 10
8.044467404479466
 20
2.793439936104125
  0
LWPOLYLINE
  5
A9
100
AcDbEntity
  8
0
  6
ByLayer
 62
  256
370
   -1
100
AcDbPolyline
 90
   12
 70
    0
 43
0
 10
7.921640570596129
 20
2.732026519162456
 10
7.933923253984464
 20
2.732026519162456
 10
7.946205937372799
 20
2.732026519162456
 10
7.958488620761127
 20
2.732026519162456
 10
7.970771304149462
 20
2.732026519162456
 10
7.995336670926132
 20
2.732026519162456
 10
8.032184721091131
 20
2.732026519162456
 10
8.056750087867801
 20
2.732026519162456
 10
8.069032771256129
 20
2.719743835774123
 10
8.081315454644464
 20
2.719743835774123
 10
8.093598138032799
 20
2.719743835774123
 10
8.105880821421135
 20
2.719743835774123
  0
LWPOLYLINE
  5
AA
100
AcDbEntity
  8
0
  6
ByLayer
 62
  256
370
   -1
100
AcDbPolyline
 90
   14
 70
    0
 43
0
 10
7.946205937372799
 20
2.658330418832456
 10
7.958488620761127
 20
2.658330418832456
 10
7.970771304149462
 20
2.658330418832456
 10
7.983053987537797
 20
2.658330418832456
 10
7.995336670926132
 20
2.658330418832456
 10
8.007619354314468
 20
2.658330418832456
 10
8.019902037702796
 20
2.646047735444123
 10
8.032184721091131
 20
2.646047735444123
 10
8.044467404479466
 20
2.646047735444123
 10
8.056750087867801
 20
2.646047735444123
 10
8.069032771256129
 20
2.646047735444123
 10
8.069032771256129
 20
2.633765052055789
 10
8.081315454644464
 20
2.633765052055789
 10
8.081315454644464
 20
2.621482368667454
  0
LWPOLYLINE
  5
AB
100
AcDbEntity
  8
0
  6
ByLayer
 62
  256
370
   -1
100
AcDbPolyline
 90
   17
 70
    0
 43
0
 10
7.897075203819465
 20
2.584634318502454
 10
7.909357887207793
 20
2.584634318502454
 10
7.921640570596129
 20
2.584634318502454
 10
7.933923253984464
 20
2.584634318502454
 10
7.946205937372799
 20
2.584634318502454
 10
7.958488620761127
 20
2.584634318502454
 10
7.970771304149462
 20
2.584634318502454
 10
7.983053987537797
 20
2.584634318502454
 10
7.995336670926132
 20
2.584634318502454
 10
8.019902037702796
 20
2.584634318502454
 10
8.044467404479466
 20
2.572351635114121
 10
8.056750087867801
 20
2.572351635114121
 10
8.069032771256129
 20
2.572351635114121
 10
8.081315454644464
 20
2.572351635114121
 10
8.093598138032799
 20
2.572351635114121
 10
8.093598138032799
 20
2.560068951725787
 10
8.105880821421135
 20
2.560068951725787
  0
LWPOLYLINE
  5
AC
100
AcDbEntity
  8
0
  6
ByLayer
 62
  256
370
   -1
100
AcDbPolyline
 90
   13
 70
    0
 43
0
 10
7.983053987537797
 20
2.486372851395785
 10
7.983053987537797
 20
2.474090168007452
 10
7.995336670926132
 20
2.474090168007452
 10
8.007619354314468
 20
2.474090168007452
 10
8.019902037702796
 20
2.474090168007452
 10
8.032184721091131
 20
2.474090168007452
 10
8.056750087867801
 20
2.474090168007452
 10
8.081315454644464
 20
2.461807484619118
 10
8.093598138032799
 20
2.461807484619118
 10
8.105880821421135
 20
2.461807484619118
 10
8.11816350480947
 20
2.461807484619118
 10
8.130446188197798
 20
2.461807484619118
 10
8.142728871586133
 20
2.461807484619118
  0
LWPOLYLINE
  5
AD
100
AcDbEntity
  8
0
  6
ByLayer
 62
  256
370
   -1
100
AcDbPolyline
 90
   17
 70
    0
 43
0
 10
7.995336670926132
 20
2.424959434454118
 10
8.007619354314468
 20
2.424959434454118
 10
8.019902037702796
 20
2.424959434454118
 10
8.032184721091131
 20
2.424959434454118
 10
8.056750087867801
 20
2.400394067677452
 10
8.11816350480947
 20
2.400394067677452
 10
8.167294238362803
 20
2.388111384289118
 10
8.204142288527802
 20
2.388111384289118
 10
8.228707655304465
 20
2.388111384289118
 10
8.253273022081135
 20
2.375828700900783
 10
8.26555570546947
 20
2.375828700900783
 10
8.26555570546947
 20
2.36354601751245
 10
8.253273022081135
 20
2.36354601751245
 10
8.2409903386928
 20
2.36354601751245
 10
8.228707655304465
 20
2.36354601751245
 10
8.216424971916137
 20
2.36354601751245
 10
8.204142288527802
 20
2.351263334124116
  0
LWPOLYLINE
  5
AE
100
AcDbEntity
  8
0
  6
ByLayer
 62
  256
370
   -1
100
AcDbPolyline
 90
   10
 70
    0
 43
0
 10
8.069032771256129
 20
2.326697967347449
 10
8.081315454644464
 20
2.326697967347449
 10
8.093598138032799
 20
2.326697967347449
 10
8.105880821421135
 20
2.326697967347449
 10
8.11816350480947
 20
2.326697967347449
 10
8.142728871586133
 20
2.326697967347449
 10
8.167294238362803
 20
2.326697967347449
 10
8.179576921751131
 20
2.314415283959116
 10
8.191859605139467
 20
2.314415283959116
 10
8.204142288527802
 20
2.314415283959116
  0
LWPOLYLINE
  5
AF
100
AcDbEntity
  8
0
  6
ByLayer
 62
  256
370
   -1
100
AcDbPolyline
 90
   17
 70
    0
 43
0
 10
8.105880821421135
 20
2.253001867017447
 10
8.11816350480947
 20
2.253001867017447
 10
8.130446188197798
 20
2.253001867017447
 10
8.155011554974468
 20
2.240719183629114
 10
8.204142288527802
 20
2.228436500240781
 10
8.26555570546947
 20
2.228436500240781
 10
8.314686439022804
 20
2.216153816852447
 10
8.351534489187802
 20
2.216153816852447
 10
8.376099855964473
 20
2.216153816852447
 10
8.388382539352808
 20
2.203871133464114
 10
8.376099855964473
 20
2.203871133464114
 10
8.363817172576137
 20
2.203871133464114
 10
8.339251805799467
 20
2.203871133464114
 10
8.314686439022804
 20
2.203871133464114
 10
8.277838388857806
 20
2.203871133464114
 10
8.253273022081135
 20
2.203871133464114
 10
8.228707655304465
 20
2.203871133464114
  0
LWPOLYLINE
  5
B0
100
AcDbEntity
  8
0
  6
ByLayer
 62
  256
370
   -1
100
AcDbPolyline
 90
   11
 70
    0
 43
0
 10
8.167294238362803
 20
2.19158845007578
 10
8.179576921751131
 20
2.19158845007578
 10
8.191859605139467
 20
2.19158845007578
 10
8.204142288527802
 20
2.19158845007578
 10
8.216424971916137
 20
2.19158845007578
 10
8.228707655304465
 20
2.19158845007578
 10
8.253273022081135
 20
2.19158845007578
 10
8.26555570546947
 20
2.19158845007578
 10
8.290121072246134
 20
2.19158845007578
 10
8.302403755634469
 20
2.19158845007578
 10
8.302403755634469
 20
2.179305766687446
  0
LWPOLYLINE
  5
B1
100
AcDbEntity
  8
0
  6
ByLayer
 62
  256
370
   -1
100
AcDbPolyline
 90
   11
 70
    0
 43
0
 10
8.204142288527802
 20
2.117892349745778
 10
8.228707655304465
 20
2.105609666357445
 10
8.2409903386928
 20
2.105609666357445
 10
8.290121072246134
 20
2.105609666357445
 10
8.314686439022804
 20
2.093326982969112
 10
8.363817172576137
 20
2.081044299580777
 10
8.388382539352808
 20
2.081044299580777
 10
8.400665222741136
 20
2.081044299580777
 10
8.400665222741136
 20
2.068761616192444
 10
8.388382539352808
 20
2.068761616192444
 10
8.376099855964473
 20
2.068761616192444
  0
LWPOLYLINE
  5
B2
100
AcDbEntity
  8
0
  6
ByLayer
 62
  256
370
   -1
100
AcDbPolyline
 90
    9
 70
    0
 43
0
 10
8.290121072246134
 20
2.068761616192444
 10
8.290121072246134
 20
2.056478932804111
 10
8.302403755634469
 20
2.056478932804111
 10
8.314686439022804
 20
2.056478932804111
 10
8.326969122411139
 20
2.056478932804111
 10
8.339251805799467
 20
2.056478932804111
 10
8.351534489187802
 20
2.056478932804111
 10
8.363817172576137
 20
2.056478932804111
 10
8.376099855964473
 20
2.056478932804111
  0
LWPOLYLINE
  5
B3
100
AcDbEntity
  8
0
  6
ByLayer
 62
  256
370
   -1
100
AcDbPolyline
 90
    9
 70
    0
 43
0
 10
8.167294238362803
 20
1.909086732144108
 10
8.167294238362803
 20
1.896804048755774
 10
8.179576921751131
 20
1.896804048755774
 10
8.191859605139467
 20
1.896804048755774
 10
8.204142288527802
 20
1.896804048755774
 10
8.204142288527802
 20
1.884521365367441
 10
8.216424971916137
 20
1.884521365367441
 10
8.228707655304465
 20
1.884521365367441
 10
8.2409903386928
 20
1.872238681979107
  0
LWPOLYLINE
  5
B4
100
AcDbEntity
  8
0
  6
ByLayer
 62
  256
370
   -1
100
AcDbPolyline
 90
   15
 70
    0
 43
0
 10
8.216424971916137
 20
1.663433064377436
 10
8.228707655304465
 20
1.663433064377436
 10
8.228707655304465
 20
1.651150380989103
 10
8.2409903386928
 20
1.651150380989103
 10
8.253273022081135
 20
1.651150380989103
 10
8.26555570546947
 20
1.651150380989103
 10
8.277838388857806
 20
1.651150380989103
 10
8.290121072246134
 20
1.651150380989103
 10
8.302403755634469
 20
1.651150380989103
 10
8.314686439022804
 20
1.638867697600769
 10
8.326969122411139
 20
1.638867697600769
 10
8.339251805799467
 20
1.638867697600769
 10
8.351534489187802
 20
1.638867697600769
 10
8.363817172576137
 20
1.626585014212436
 10
8.376099855964473
 20
1.626585014212436
  0
LWPOLYLINE
  5
B5
100
AcDbEntity
  8
0
  6
ByLayer
 62
  256
370
   -1
100
AcDbPolyline
 90
   25
 70
    0
 43
0
 10
8.253273022081135
 20
1.565171597270768
 10
8.26555570546947
 20
1.565171597270768
 10
8.277838388857806
 20
1.565171597270768
 10
8.290121072246134
 20
1.565171597270768
 10
8.302403755634469
 20
1.565171597270768
 10
8.314686439022804
 20
1.565171597270768
 10
8.326969122411139
 20
1.565171597270768
 10
8.339251805799467
 20
1.565171597270768
 10
8.351534489187802
 20
1.565171597270768
 10
8.363817172576137
 20
1.565171597270768
 10
8.376099855964473
 20
1.565171597270768
 10
8.388382539352808
 20
1.565171597270768
 10
8.400665222741136
 20
1.565171597270768
 10
8.412947906129471
 20
1.565171597270768
 10
8.425230589517806
 20
1.565171597270768
 10
8.437513272906141
 20
1.565171597270768
 10
8.449795956294469
 20
1.565171597270768
 10
8.462078639682804
 20
1.565171597270768
 10
8.47436132307114
 20
1.565171597270768
 10
8.486644006459475
 20
1.565171597270768
 10
8.49892668984781
 20
1.565171597270768
 10
8.49892668984781
 20
1.552888913882435
 10
8.511209373236138
 20
1.552888913882435
 10
8.523492056624473
 20
1.552888913882435
 10
8.511209373236138
 20
1.552888913882435
  0
LWPOLYLINE
  5
B6
100
AcDbEntity
  8
0
  6
ByLayer
 62
  256
370
   -1
100
AcDbPolyline
 90
   25
 70
    0
 43
0
 10
8.339251805799467
 20
1.5037581803291
 10
8.351534489187802
 20
1.5037581803291
 10
8.363817172576137
 20
1.5037581803291
 10
8.376099855964473
 20
1.5037581803291
 10
8.388382539352808
 20
1.5037581803291
 10
8.400665222741136
 20
1.5037581803291
 10
8.412947906129471
 20
1.5037581803291
 10
8.425230589517806
 20
1.5037581803291
 10
8.437513272906141
 20
1.5037581803291
 10
8.449795956294469
 20
1.5037581803291
 10
8.462078639682804
 20
1.5037581803291
 10
8.47436132307114
 20
1.5037581803291
 10
8.486644006459475
 20
1.5037581803291
 10
8.49892668984781
 20
1.5037581803291
 10
8.511209373236138
 20
1.5037581803291
 10
8.523492056624473
 20
1.5037581803291
 10
8.535774740012808
 20
1.5037581803291
 10
8.548057423401143
 20
1.5037581803291
 10
8.560340106789472
 20
1.5037581803291
 10
8.572622790177807
 20
1.491475496940767
 10
8.560340106789472
 20
1.491475496940767
 10
8.560340106789472
 20
1.479192813552433
 10
8.548057423401143
 20
1.479192813552433
 10
8.535774740012808
 20
1.479192813552433
 10
8.523492056624473
 20
1.479192813552433
  0
LWPOLYLINE
  5
B7
100
AcDbEntity
  8
0
  6
ByLayer
 62
  256
370
   -1
100
AcDbPolyline
 90
   14
 70
    0
 43
0
 10
8.339251805799467
 20
1.454627446775766
 10
8.339251805799467
 20
1.442344763387433
 10
8.351534489187802
 20
1.442344763387433
 10
8.363817172576137
 20
1.442344763387433
 10
8.376099855964473
 20
1.442344763387433
 10
8.400665222741136
 20
1.442344763387433
 10
8.412947906129471
 20
1.442344763387433
 10
8.437513272906141
 20
1.442344763387433
 10
8.47436132307114
 20
1.442344763387433
 10
8.486644006459475
 20
1.442344763387433
 10
8.49892668984781
 20
1.442344763387433
 10
8.511209373236138
 20
1.442344763387433
 10
8.523492056624473
 20
1.442344763387433
 10
8.535774740012808
 20
1.442344763387433
  0
LWPOLYLINE
  5
B8
100
AcDbEntity
  8
0
  6
ByLayer
 62
  256
370
   -1
100
AcDbPolyline
 90
   15
 70
    0
 43
0
 10
7.958488620761127
 20
1.380931346445765
 10
7.995336670926132
 20
1.380931346445765
 10
8.007619354314468
 20
1.380931346445765
 10
8.032184721091131
 20
1.380931346445765
 10
8.069032771256129
 20
1.380931346445765
 10
8.093598138032799
 20
1.380931346445765
 10
8.11816350480947
 20
1.380931346445765
 10
8.130446188197798
 20
1.380931346445765
 10
8.155011554974468
 20
1.405496713222432
 10
8.179576921751131
 20
1.405496713222432
 10
8.191859605139467
 20
1.405496713222432
 10
8.228707655304465
 20
1.405496713222432
 10
8.2409903386928
 20
1.405496713222432
 10
8.253273022081135
 20
1.405496713222432
 10
8.253273022081135
 20
1.417779396610765
  0
LWPOLYLINE
  5
B9
100
AcDbEntity
  8
0
  6
ByLayer
 62
  256
370
   -1
100
AcDbPolyline
 90
    6
 70
    0
 43
0
 10
8.069032771256129
 20
1.430062079999099
 10
8.081315454644464
 20
1.430062079999099
 10
8.093598138032799
 20
1.430062079999099
 10
8.105880821421135
 20
1.430062079999099
 10
8.105880821421135
 20
1.442344763387433
 10
8.093598138032799
 20
1.442344763387433
  0
LWPOLYLINE
  5
BA
100
AcDbEntity
  8
0
  6
ByLayer
 62
  256
370
   -1
100
AcDbPolyline
 90
   15
 70
    0
 43
0
 10
7.933923253984464
 20
1.466910130164099
 10
7.946205937372799
 20
1.466910130164099
 10
7.958488620761127
 20
1.466910130164099
 10
7.970771304149462
 20
1.466910130164099
 10
7.983053987537797
 20
1.466910130164099
 10
7.995336670926132
 20
1.466910130164099
 10
8.007619354314468
 20
1.466910130164099
 10
8.019902037702796
 20
1.466910130164099
 10
8.044467404479466
 20
1.466910130164099
 10
8.069032771256129
 20
1.466910130164099
 10
8.081315454644464
 20
1.466910130164099
 10
8.093598138032799
 20
1.466910130164099
 10
8.105880821421135
 20
1.466910130164099
 10
8.11816350480947
 20
1.466910130164099
 10
8.11816350480947
 20
1.479192813552433
  0
LWPOLYLINE
  5
BB
100
AcDbEntity
  8
0
  6
ByLayer
 62
  256
370
   -1
100
AcDbPolyline
 90
   14
 70
    0
 43
0
 10
7.774248369936128
 20
1.417779396610765
 10
7.786531053324463
 20
1.417779396610765
 10
7.798813736712791
 20
1.417779396610765
 10
7.811096420101126
 20
1.417779396610765
 10
7.835661786877797
 20
1.417779396610765
 10
7.847944470266125
 20
1.417779396610765
 10
7.872509837042795
 20
1.417779396610765
 10
7.909357887207793
 20
1.417779396610765
 10
7.921640570596129
 20
1.417779396610765
 10
7.946205937372799
 20
1.417779396610765
 10
7.958488620761127
 20
1.417779396610765
 10
7.970771304149462
 20
1.417779396610765
 10
7.983053987537797
 20
1.417779396610765
 10
7.995336670926132
 20
1.417779396610765
  0
LWPOLYLINE
  5
BC
100
AcDbEntity
  8
0
  6
ByLayer
 62
  256
370
   -1
100
AcDbPolyline
 90
   20
 70
    0
 43
0
 10
7.590008119111122
 20
1.368648663057431
 10
7.602290802499457
 20
1.368648663057431
 10
7.614573485887792
 20
1.368648663057431
 10
7.62685616927612
 20
1.368648663057431
 10
7.62685616927612
 20
1.356365979669097
 10
7.639138852664455
 20
1.356365979669097
 10
7.651421536052791
 20
1.356365979669097
 10
7.675986902829461
 20
1.356365979669097
 10
7.688269586217789
 20
1.356365979669097
 10
7.700552269606124
 20
1.356365979669097
 10
7.712834952994459
 20
1.356365979669097
 10
7.737400319771123
 20
1.356365979669097
 10
7.749683003159458
 20
1.356365979669097
 10
7.774248369936128
 20
1.356365979669097
 10
7.786531053324463
 20
1.356365979669097
 10
7.811096420101126
 20
1.356365979669097
 10
7.823379103489462
 20
1.356365979669097
 10
7.847944470266125
 20
1.356365979669097
 10
7.86022715365446
 20
1.356365979669097
 10
7.872509837042795
 20
1.356365979669097
  0
LWPOLYLINE
  5
BD
100
AcDbEntity
  8
0
  6
ByLayer
 62
  256
370
   -1
100
AcDbPolyline
 90
   17
 70
    0
 43
0
 10
7.565442752334459
 20
1.319517929504097
 10
7.577725435722787
 20
1.319517929504097
 10
7.602290802499457
 20
1.319517929504097
 10
7.651421536052791
 20
1.307235246115764
 10
7.675986902829461
 20
1.307235246115764
 10
7.725117636382794
 20
1.307235246115764
 10
7.749683003159458
 20
1.307235246115764
 10
7.774248369936128
 20
1.307235246115764
 10
7.786531053324463
 20
1.307235246115764
 10
7.798813736712791
 20
1.307235246115764
 10
7.811096420101126
 20
1.307235246115764
 10
7.811096420101126
 20
1.294952562727429
 10
7.823379103489462
 20
1.294952562727429
 10
7.835661786877797
 20
1.294952562727429
 10
7.847944470266125
 20
1.294952562727429
 10
7.86022715365446
 20
1.294952562727429
 10
7.872509837042795
 20
1.294952562727429
  0
LWPOLYLINE
  5
BE
100
AcDbEntity
  8
0
  6
ByLayer
 62
  256
370
   -1
100
AcDbPolyline
 90
   11
 70
    0
 43
0
 10
7.528594702169453
 20
1.258104512562429
 10
7.540877385557788
 20
1.258104512562429
 10
7.553160068946124
 20
1.258104512562429
 10
7.577725435722787
 20
1.258104512562429
 10
7.602290802499457
 20
1.258104512562429
 10
7.639138852664455
 20
1.258104512562429
 10
7.675986902829461
 20
1.258104512562429
 10
7.712834952994459
 20
1.258104512562429
 10
7.749683003159458
 20
1.258104512562429
 10
7.761965686547793
 20
1.258104512562429
 10
7.774248369936128
 20
1.258104512562429
  0
LWPOLYLINE
  5
BF
100
AcDbEntity
  8
0
  6
ByLayer
 62
  256
370
   -1
100
AcDbPolyline
 90
   13
 70
    0
 43
0
 10
7.430333235062786
 20
1.208973779009095
 10
7.442615918451121
 20
1.208973779009095
 10
7.454898601839457
 20
1.208973779009095
 10
7.491746652004455
 20
1.208973779009095
 10
7.540877385557788
 20
1.208973779009095
 10
7.590008119111122
 20
1.208973779009095
 10
7.639138852664455
 20
1.196691095620761
 10
7.675986902829461
 20
1.196691095620761
 10
7.712834952994459
 20
1.196691095620761
 10
7.737400319771123
 20
1.196691095620761
 10
7.749683003159458
 20
1.196691095620761
 10
7.761965686547793
 20
1.196691095620761
 10
7.761965686547793
 20
1.184408412232427
  0
LWPOLYLINE
  5
C0
100
AcDbEntity
  8
0
  6
ByLayer
 62
  256
370
   -1
100
AcDbPolyline
 90
   14
 70
    0
 43
0
 10
7.405767868286123
 20
1.15984304545576
 10
7.418050551674451
 20
1.15984304545576
 10
7.442615918451121
 20
1.15984304545576
 10
7.491746652004455
 20
1.15984304545576
 10
7.528594702169453
 20
1.15984304545576
 10
7.577725435722787
 20
1.15984304545576
 10
7.602290802499457
 20
1.15984304545576
 10
7.651421536052791
 20
1.15984304545576
 10
7.663704219441126
 20
1.15984304545576
 10
7.675986902829461
 20
1.15984304545576
 10
7.688269586217789
 20
1.147560362067427
 10
7.700552269606124
 20
1.147560362067427
 10
7.712834952994459
 20
1.147560362067427
 10
7.712834952994459
 20
1.15984304545576
  0
LWPOLYLINE
  5
C1
100
AcDbEntity
  8
0
  6
ByLayer
 62
  256
370
   -1
100
AcDbPolyline
 90
   15
 70
    0
 43
0
 10
7.946205937372799
 20
1.196691095620761
 10
7.958488620761127
 20
1.196691095620761
 10
7.983053987537797
 20
1.196691095620761
 10
8.019902037702796
 20
1.196691095620761
 10
8.044467404479466
 20
1.196691095620761
 10
8.069032771256129
 20
1.196691095620761
 10
8.081315454644464
 20
1.196691095620761
 10
8.093598138032799
 20
1.196691095620761
 10
8.105880821421135
 20
1.196691095620761
 10
8.11816350480947
 20
1.196691095620761
 10
8.130446188197798
 20
1.196691095620761
 10
8.142728871586133
 20
1.196691095620761
 10
8.155011554974468
 20
1.184408412232427
 10
8.167294238362803
 20
1.184408412232427
 10
8.179576921751131
 20
1.184408412232427
  0
LWPOLYLINE
  5
C2
100
AcDbEntity
  8
0
  6
ByLayer
 62
  256
370
   -1
100
AcDbPolyline
 90
   10
 70
    0
 43
0
 10
8.130446188197798
 20
1.147560362067427
 10
8.142728871586133
 20
1.147560362067427
 10
8.167294238362803
 20
1.147560362067427
 10
8.191859605139467
 20
1.147560362067427
 10
8.216424971916137
 20
1.147560362067427
 10
8.2409903386928
 20
1.147560362067427
 10
8.26555570546947
 20
1.147560362067427
 10
8.302403755634469
 20
1.135277678679094
 10
8.326969122411139
 20
1.135277678679094
 10
8.339251805799467
 20
1.135277678679094
  0
LWPOLYLINE
  5
C3
100
AcDbEntity
  8
0
  6
ByLayer
 62
  256
370
   -1
100
AcDbPolyline
 90
   13
 70
    0
 43
0
 10
7.258375667626115
 20
1.184408412232427
 10
7.27065835101445
 20
1.184408412232427
 10
7.27065835101445
 20
1.196691095620761
 10
7.282941034402786
 20
1.196691095620761
 10
7.307506401179449
 20
1.196691095620761
 10
7.332071767956119
 20
1.196691095620761
 10
7.368919818121118
 20
1.208973779009095
 10
7.393485184897788
 20
1.208973779009095
 10
7.418050551674451
 20
1.208973779009095
 10
7.442615918451121
 20
1.208973779009095
 10
7.467181285227785
 20
1.208973779009095
 10
7.47946396861612
 20
1.208973779009095
 10
7.491746652004455
 20
1.208973779009095
  0
LWPOLYLINE
  5
C4
100
AcDbEntity
  8
0
  6
ByLayer
 62
  256
370
   -1
100
AcDbPolyline
 90
   14
 70
    0
 43
0
 10
7.074135416801116
 20
1.15984304545576
 10
7.086418100189444
 20
1.15984304545576
 10
7.09870078357778
 20
1.15984304545576
 10
7.110983466966115
 20
1.15984304545576
 10
7.12326615035445
 20
1.15984304545576
 10
7.160114200519448
 20
1.15984304545576
 10
7.184679567296119
 20
1.15984304545576
 10
7.209244934072782
 20
1.15984304545576
 10
7.258375667626115
 20
1.15984304545576
 10
7.282941034402786
 20
1.15984304545576
 10
7.307506401179449
 20
1.135277678679094
 10
7.344354451344454
 20
1.135277678679094
 10
7.356637134732782
 20
1.135277678679094
 10
7.368919818121118
 20
1.135277678679094
  0
LWPOLYLINE
  5
C5
100
AcDbEntity
  8
0
  6
ByLayer
 62
  256
370
   -1
100
AcDbPolyline
 90
   12
 70
    0
 43
0
 10
6.939025899529444
 20
1.098429628514093
 10
6.951308582917779
 20
1.098429628514093
 10
6.975873949694442
 20
1.098429628514093
 10
7.012721999859448
 20
1.086146945125759
 10
7.037287366636111
 20
1.086146945125759
 10
7.074135416801116
 20
1.086146945125759
 10
7.12326615035445
 20
1.086146945125759
 10
7.147831517131113
 20
1.086146945125759
 10
7.184679567296119
 20
1.086146945125759
 10
7.196962250684447
 20
1.086146945125759
 10
7.209244934072782
 20
1.086146945125759
 10
7.209244934072782
 20
1.073864261737425
  0
LWPOLYLINE
  5
C6
100
AcDbEntity
  8
0
  6
ByLayer
 62
  256
370
   -1
100
AcDbPolyline
 90
   12
 70
    0
 43
0
 10
6.545980031102768
 20
1.049298894960758
 10
6.570545397879439
 20
1.049298894960758
 10
6.595110764656102
 20
1.049298894960758
 10
6.631958814821107
 20
1.049298894960758
 10
6.668806864986106
 20
1.049298894960758
 10
6.693372231762769
 20
1.049298894960758
 10
6.717937598539439
 20
1.049298894960758
 10
6.74250296531611
 20
1.049298894960758
 10
6.754785648704438
 20
1.049298894960758
 10
6.767068332092773
 20
1.049298894960758
 10
6.779351015481108
 20
1.049298894960758
 10
6.791633698869443
 20
1.049298894960758
  0
LWPOLYLINE
  5
C7
100
AcDbEntity
  8
0
  6
ByLayer
 62
  256
370
   -1
100
AcDbPolyline
 90
   10
 70
    0
 43
0
 10
6.50913198093777
 20
0.9756027946307571
 10
6.521414664326105
 20
0.9756027946307571
 10
6.545980031102768
 20
0.9510374278540894
 10
6.582828081267767
 20
0.9510374278540894
 10
6.631958814821107
 20
0.9510374278540894
 10
6.693372231762769
 20
0.9510374278540894
 10
6.74250296531611
 20
0.938754744465756
 10
6.791633698869443
 20
0.938754744465756
 10
6.816199065646106
 20
0.938754744465756
 10
6.828481749034442
 20
0.938754744465756
  0
LWPOLYLINE
  5
C8
100
AcDbEntity
  8
0
  6
ByLayer
 62
  256
370
   -1
100
AcDbPolyline
 90
    9
 70
    0
 43
0
 10
6.472283930772765
 20
0.9264720610774226
 10
6.4845666141611
 20
0.9264720610774226
 10
6.496849297549435
 20
0.9264720610774226
 10
6.50913198093777
 20
0.9264720610774226
 10
6.533697347714433
 20
0.9264720610774226
 10
6.545980031102768
 20
0.9264720610774226
 10
6.570545397879439
 20
0.9264720610774226
 10
6.582828081267767
 20
0.9264720610774226
 10
6.595110764656102
 20
0.9264720610774226
  0
LWPOLYLINE
  5
C9
100
AcDbEntity
  8
0
  6
ByLayer
 62
  256
370
   -1
100
AcDbPolyline
 90
   18
 70
    0
 43
0
 10
3.68411480162105
 20
1.540606230494101
 10
3.696397485009381
 20
1.540606230494101
 10
3.708680168397716
 20
1.540606230494101
 10
3.720962851786048
 20
1.540606230494101
 10
3.733245535174383
 20
1.540606230494101
 10
3.745528218562715
 20
1.540606230494101
 10
3.75781090195105
 20
1.540606230494101
 10
3.770093585339385
 20
1.540606230494101
 10
3.782376268727717
 20
1.540606230494101
 10
3.806941635504383
 20
1.540606230494101
 10
3.819224318892719
 20
1.540606230494101
 10
3.843789685669385
 20
1.540606230494101
 10
3.880637735834387
 20
1.540606230494101
 10
3.905203102611054
 20
1.540606230494101
 10
3.929768469387721
 20
1.540606230494101
 10
3.954333836164388
 20
1.540606230494101
 10
3.966616519552719
 20
1.540606230494101
 10
3.978899202941054
 20
1.540606230494101
  0
LWPOLYLINE
  5
CA
100
AcDbEntity
  8
0
  6
ByLayer
 62
  256
370
   -1
100
AcDbPolyline
 90
   12
 70
    0
 43
0
 10
3.634984068067713
 20
1.5037581803291
 10
3.671832118232714
 20
1.5037581803291
 10
3.696397485009381
 20
1.5037581803291
 10
3.733245535174383
 20
1.491475496940767
 10
3.75781090195105
 20
1.491475496940767
 10
3.782376268727717
 20
1.491475496940767
 10
3.794658952116052
 20
1.479192813552433
 10
3.819224318892719
 20
1.479192813552433
 10
3.83150700228105
 20
1.479192813552433
 10
3.843789685669385
 20
1.479192813552433
 10
3.843789685669385
 20
1.466910130164099
 10
3.856072369057717
 20
1.466910130164099
  0
LWPOLYLINE
  5
CB
100
AcDbEntity
  8
0
  6
ByLayer
 62
  256
370
   -1
100
AcDbPolyline
 90
   15
 70
    0
 43
0
 10
3.720962851786048
 20
1.442344763387433
 10
3.733245535174383
 20
1.442344763387433
 10
3.745528218562715
 20
1.442344763387433
 10
3.75781090195105
 20
1.442344763387433
 10
3.782376268727717
 20
1.430062079999099
 10
3.806941635504383
 20
1.430062079999099
 10
3.856072369057717
 20
1.430062079999099
 10
3.892920419222719
 20
1.430062079999099
 10
3.942051152776052
 20
1.430062079999099
 10
3.954333836164388
 20
1.430062079999099
 10
3.978899202941054
 20
1.417779396610765
 10
3.991181886329386
 20
1.417779396610765
 10
4.003464569717721
 20
1.417779396610765
 10
4.015747253106056
 20
1.417779396610765
 10
4.028029936494388
 20
1.417779396610765
  0
LWPOLYLINE
  5
CC
100
AcDbEntity
  8
0
  6
ByLayer
 62
  256
370
   -1
100
AcDbPolyline
 90
   14
 70
    0
 43
0
 10
3.364765033524375
 20
1.405496713222432
 10
3.37704771691271
 20
1.405496713222432
 10
3.389330400301041
 20
1.405496713222432
 10
3.413895767077708
 20
1.405496713222432
 10
3.463026500631045
 20
1.405496713222432
 10
3.52443991757271
 20
1.405496713222432
 10
3.610418701291046
 20
1.405496713222432
 10
3.68411480162105
 20
1.405496713222432
 10
3.770093585339385
 20
1.405496713222432
 10
3.868355052446052
 20
1.405496713222432
 10
3.917485785999386
 20
1.405496713222432
 10
3.942051152776052
 20
1.380931346445765
 10
3.954333836164388
 20
1.380931346445765
 10
3.942051152776052
 20
1.380931346445765
  0
LWPOLYLINE
  5
CD
100
AcDbEntity
  8
0
  6
ByLayer
 62
  256
370
   -1
100
AcDbPolyline
 90
   14
 70
    0
 43
0
 10
3.192807466087704
 20
1.356365979669097
 10
3.205090149476039
 20
1.356365979669097
 10
3.217372832864374
 20
1.356365979669097
 10
3.229655516252706
 20
1.356365979669097
 10
3.241938199641041
 20
1.356365979669097
 10
3.266503566417708
 20
1.356365979669097
 10
3.327916983359376
 20
1.356365979669097
 10
3.389330400301041
 20
1.356365979669097
 10
3.438461133854378
 20
1.356365979669097
 10
3.487591867407712
 20
1.356365979669097
 10
3.512157234184379
 20
1.356365979669097
 10
3.536722600961046
 20
1.356365979669097
 10
3.549005284349381
 20
1.356365979669097
 10
3.549005284349381
 20
1.344083296280764
  0
LWPOLYLINE
  5
CE
100
AcDbEntity
  8
0
  6
ByLayer
 62
  256
370
   -1
100
AcDbPolyline
 90
   23
 70
    0
 43
0
 10
3.06998063220437
 20
1.368648663057431
 10
3.131394049146039
 20
1.368648663057431
 10
3.217372832864374
 20
1.368648663057431
 10
3.315634299971041
 20
1.368648663057431
 10
3.401613083689377
 20
1.344083296280764
 10
3.499874550796044
 20
1.344083296280764
 10
3.610418701291046
 20
1.344083296280764
 10
3.68411480162105
 20
1.33180061289243
 10
3.733245535174383
 20
1.33180061289243
 10
3.782376268727717
 20
1.307235246115764
 10
3.806941635504383
 20
1.307235246115764
 10
3.843789685669385
 20
1.307235246115764
 10
3.856072369057717
 20
1.294952562727429
 10
3.868355052446052
 20
1.294952562727429
 10
3.880637735834387
 20
1.294952562727429
 10
3.892920419222719
 20
1.294952562727429
 10
3.905203102611054
 20
1.294952562727429
 10
3.917485785999386
 20
1.294952562727429
 10
3.929768469387721
 20
1.282669879339096
 10
3.954333836164388
 20
1.282669879339096
 10
3.966616519552719
 20
1.282669879339096
 10
3.978899202941054
 20
1.282669879339096
 10
3.991181886329386
 20
1.282669879339096
  0
LWPOLYLINE
  5
CF
100
AcDbEntity
  8
0
  6
ByLayer
 62
  256
370
   -1
100
AcDbPolyline
 90
   21
 70
    0
 43
0
 10
3.229655516252706
 20
1.245821829174096
 10
3.303351616582706
 20
1.245821829174096
 10
3.364765033524375
 20
1.245821829174096
 10
3.413895767077708
 20
1.245821829174096
 10
3.45074381724271
 20
1.245821829174096
 10
3.487591867407712
 20
1.245821829174096
 10
3.512157234184379
 20
1.245821829174096
 10
3.536722600961046
 20
1.245821829174096
 10
3.561287967737712
 20
1.245821829174096
 10
3.573570651126047
 20
1.245821829174096
 10
3.598136017902714
 20
1.245821829174096
 10
3.610418701291046
 20
1.245821829174096
 10
3.634984068067713
 20
1.245821829174096
 10
3.647266751456048
 20
1.245821829174096
 10
3.671832118232714
 20
1.245821829174096
 10
3.68411480162105
 20
1.245821829174096
 10
3.708680168397716
 20
1.245821829174096
 10
3.720962851786048
 20
1.245821829174096
 10
3.733245535174383
 20
1.245821829174096
 10
3.745528218562715
 20
1.245821829174096
 10
3.75781090195105
 20
1.245821829174096
  0
LWPOLYLINE
  5
D0
100
AcDbEntity
  8
0
  6
ByLayer
 62
  256
370
   -1
100
AcDbPolyline
 90
   19
 70
    0
 43
0
 10
3.352482350136043
 20
1.196691095620761
 10
3.413895767077708
 20
1.196691095620761
 10
3.463026500631045
 20
1.196691095620761
 10
3.512157234184379
 20
1.196691095620761
 10
3.536722600961046
 20
1.196691095620761
 10
3.573570651126047
 20
1.196691095620761
 10
3.598136017902714
 20
1.196691095620761
 10
3.622701384679381
 20
1.196691095620761
 10
3.647266751456048
 20
1.196691095620761
 10
3.696397485009381
 20
1.196691095620761
 10
3.733245535174383
 20
1.196691095620761
 10
3.782376268727717
 20
1.196691095620761
 10
3.83150700228105
 20
1.172125728844094
 10
3.892920419222719
 20
1.172125728844094
 10
3.942051152776052
 20
1.172125728844094
 10
3.991181886329386
 20
1.172125728844094
 10
4.015747253106056
 20
1.172125728844094
 10
4.040312619882723
 20
1.172125728844094
 10
4.052595303271055
 20
1.172125728844094
  0
LWPOLYLINE
  5
D1
100
AcDbEntity
  8
0
  6
ByLayer
 62
  256
370
   -1
100
AcDbPolyline
 90
   25
 70
    0
 43
0
 10
2.873457697991032
 20
1.110712311902426
 10
2.922588431544366
 20
1.110712311902426
 10
3.008567215262701
 20
1.110712311902426
 10
3.106828682369372
 20
1.110712311902426
 10
3.229655516252706
 20
1.110712311902426
 10
3.315634299971041
 20
1.110712311902426
 10
3.413895767077708
 20
1.110712311902426
 10
3.487591867407712
 20
1.110712311902426
 10
3.536722600961046
 20
1.110712311902426
 10
3.573570651126047
 20
1.110712311902426
 10
3.622701384679381
 20
1.110712311902426
 10
3.647266751456048
 20
1.110712311902426
 10
3.68411480162105
 20
1.110712311902426
 10
3.708680168397716
 20
1.110712311902426
 10
3.733245535174383
 20
1.110712311902426
 10
3.75781090195105
 20
1.110712311902426
 10
3.782376268727717
 20
1.110712311902426
 10
3.83150700228105
 20
1.135277678679094
 10
3.856072369057717
 20
1.135277678679094
 10
3.905203102611054
 20
1.135277678679094
 10
3.954333836164388
 20
1.135277678679094
 10
3.991181886329386
 20
1.135277678679094
 10
4.040312619882723
 20
1.135277678679094
 10
4.089443353436057
 20
1.135277678679094
 10
4.114008720212723
 20
1.135277678679094
  0
LWPOLYLINE
  5
D2
100
AcDbEntity
  8
0
  6
ByLayer
 62
  256
370
   -1
100
AcDbPolyline
 90
   12
 70
    0
 43
0
 10
2.873457697991032
 20
1.086146945125759
 10
2.910305748156034
 20
1.086146945125759
 10
2.99628453187437
 20
1.086146945125759
 10
3.106828682369372
 20
1.086146945125759
 10
3.229655516252706
 20
1.086146945125759
 10
3.37704771691271
 20
1.086146945125759
 10
3.487591867407712
 20
1.086146945125759
 10
3.598136017902714
 20
1.086146945125759
 10
3.647266751456048
 20
1.086146945125759
 10
3.68411480162105
 20
1.073864261737425
 10
3.696397485009381
 20
1.073864261737425
 10
3.708680168397716
 20
1.073864261737425
  0
LWPOLYLINE
  5
D3
100
AcDbEntity
  8
0
  6
ByLayer
 62
  256
370
   -1
100
AcDbPolyline
 90
   17
 70
    0
 43
0
 10
2.848892331214365
 20
1.073864261737425
 10
2.873457697991032
 20
1.073864261737425
 10
2.898023064767699
 20
1.073864261737425
 10
2.922588431544366
 20
1.073864261737425
 10
2.947153798321033
 20
1.073864261737425
 10
2.984001848486034
 20
1.073864261737425
 10
3.008567215262701
 20
1.073864261737425
 10
3.033132582039368
 20
1.073864261737425
 10
3.082263315592702
 20
1.073864261737425
 10
3.14367673253437
 20
1.073864261737425
 10
3.229655516252706
 20
1.073864261737425
 10
3.327916983359376
 20
1.073864261737425
 10
3.389330400301041
 20
1.073864261737425
 10
3.463026500631045
 20
1.073864261737425
 10
3.512157234184379
 20
1.073864261737425
 10
3.52443991757271
 20
1.073864261737425
 10
3.536722600961046
 20
1.073864261737425
  0
LWPOLYLINE
  5
D4
100
AcDbEntity
  8
0
  6
ByLayer
 62
  256
370
   -1
100
AcDbPolyline
 90
   23
 70
    0
 43
0
 10
2.578673296671028
 20
1.000168161407424
 10
2.664652080389363
 20
1.000168161407424
 10
2.750630864107698
 20
1.000168161407424
 10
2.848892331214365
 20
1.000168161407424
 10
2.922588431544366
 20
1.000168161407424
 10
2.971719165097699
 20
1.000168161407424
 10
2.99628453187437
 20
1.000168161407424
 10
3.020849898651036
 20
1.000168161407424
 10
3.033132582039368
 20
1.000168161407424
 10
3.057697948816035
 20
1.000168161407424
 10
3.06998063220437
 20
1.000168161407424
 10
3.082263315592702
 20
1.000168161407424
 10
3.106828682369372
 20
1.000168161407424
 10
3.131394049146039
 20
1.000168161407424
 10
3.168242099311037
 20
1.000168161407424
 10
3.192807466087704
 20
1.000168161407424
 10
3.229655516252706
 20
1.000168161407424
 10
3.278786249806039
 20
1.000168161407424
 10
3.340199666747708
 20
1.000168161407424
 10
3.413895767077708
 20
1.000168161407424
 10
3.463026500631045
 20
1.000168161407424
 10
3.499874550796044
 20
1.000168161407424
 10
3.536722600961046
 20
1.000168161407424
  0
LWPOLYLINE
  5
D5
100
AcDbEntity
  8
0
  6
ByLayer
 62
  256
370
   -1
100
AcDbPolyline
 90
   19
 70
    0
 43
0
 10
2.885740381379367
 20
0.9141893776890893
 10
2.959436481709368
 20
0.9141893776890893
 10
3.020849898651036
 20
0.9141893776890893
 10
3.06998063220437
 20
0.9141893776890893
 10
3.106828682369372
 20
0.9141893776890893
 10
3.14367673253437
 20
0.9141893776890893
 10
3.192807466087704
 20
0.9141893776890893
 10
3.217372832864374
 20
0.9141893776890893
 10
3.241938199641041
 20
0.9141893776890893
 10
3.291068933194374
 20
0.9141893776890893
 10
3.340199666747708
 20
0.9141893776890893
 10
3.37704771691271
 20
0.9141893776890893
 10
3.45074381724271
 20
0.9141893776890893
 10
3.512157234184379
 20
0.9141893776890893
 10
3.598136017902714
 20
0.9141893776890893
 10
3.647266751456048
 20
0.9141893776890893
 10
3.696397485009381
 20
0.9141893776890893
 10
3.720962851786048
 20
0.9141893776890893
 10
3.733245535174383
 20
0.9141893776890893
  0
LWPOLYLINE
  5
D6
100
AcDbEntity
  8
0
  6
ByLayer
 62
  256
370
   -1
100
AcDbPolyline
 90
   30
 70
    0
 43
0
 10
2.554107929894361
 20
0.8650586441357548
 10
2.566390613282692
 20
0.8650586441357548
 10
2.578673296671028
 20
0.8650586441357548
 10
2.590955980059359
 20
0.8650586441357548
 10
2.640086713612696
 20
0.8650586441357548
 10
2.713782813942696
 20
0.8650586441357548
 10
2.775196230884365
 20
0.8650586441357548
 10
2.873457697991032
 20
0.8650586441357548
 10
2.959436481709368
 20
0.8650586441357548
 10
3.033132582039368
 20
0.8650586441357548
 10
3.094545998981037
 20
0.8650586441357548
 10
3.14367673253437
 20
0.8650586441357548
 10
3.180524782699372
 20
0.8650586441357548
 10
3.192807466087704
 20
0.8650586441357548
 10
3.205090149476039
 20
0.8650586441357548
 10
3.217372832864374
 20
0.8650586441357548
 10
3.229655516252706
 20
0.8650586441357548
 10
3.241938199641041
 20
0.8650586441357548
 10
3.266503566417708
 20
0.8650586441357548
 10
3.303351616582706
 20
0.8650586441357548
 10
3.352482350136043
 20
0.8650586441357548
 10
3.401613083689377
 20
0.8773413275240882
 10
3.463026500631045
 20
0.8773413275240882
 10
3.52443991757271
 20
0.8773413275240882
 10
3.622701384679381
 20
0.8773413275240882
 10
3.671832118232714
 20
0.8896240109124216
 10
3.720962851786048
 20
0.8896240109124216
 10
3.745528218562715
 20
0.8896240109124216
 10
3.770093585339385
 20
0.8896240109124216
 10
3.770093585339385
 20
0.901906694300755
  0
LWPOLYLINE
  5
D7
100
AcDbEntity
  8
0
  6
ByLayer
 62
  256
370
   -1
100
AcDbPolyline
 90
   14
 70
    0
 43
0
 10
4.052595303271055
 20
0.9510374278540894
 10
4.236835554096061
 20
0.9510374278540894
 10
4.457923855086062
 20
0.9510374278540894
 10
4.654446789299399
 20
0.9510374278540894
 10
4.850969723512737
 20
0.9510374278540894
 10
4.973796557396074
 20
0.9510374278540894
 10
5.072058024502741
 20
0.938754744465756
 10
5.145754124832745
 20
0.938754744465756
 10
5.158036808221073
 20
0.938754744465756
 10
5.170319491609408
 20
0.938754744465756
 10
5.170319491609408
 20
0.9264720610774226
 10
5.158036808221073
 20
0.9264720610774226
 10
5.145754124832745
 20
0.9264720610774226
 10
5.096623391279412
 20
0.9264720610774226
  0
LWPOLYLINE
  5
D8
100
AcDbEntity
  8
0
  6
ByLayer
 62
  256
370
   -1
100
AcDbPolyline
 90
   11
 70
    0
 43
0
 10
4.298248971037726
 20
0.8896240109124216
 10
4.347379704591059
 20
0.8896240109124216
 10
4.408793121532728
 20
0.8896240109124216
 10
4.482489221862732
 20
0.8896240109124216
 10
4.531619955416065
 20
0.8896240109124216
 10
4.568468005581064
 20
0.8896240109124216
 10
4.605316055746066
 20
0.8896240109124216
 10
4.629881422522732
 20
0.8896240109124216
 10
4.654446789299399
 20
0.8896240109124216
 10
4.666729472687734
 20
0.8896240109124216
 10
4.679012156076066
 20
0.8896240109124216
  0
LWPOLYLINE
  5
D9
100
AcDbEntity
  8
0
  6
ByLayer
 62
  256
370
   -1
100
AcDbPolyline
 90
   12
 70
    0
 43
0
 10
4.285966287649394
 20
0.8282105939707538
 10
4.347379704591059
 20
0.8282105939707538
 10
4.408793121532728
 20
0.8282105939707538
 10
4.51933727202773
 20
0.8282105939707538
 10
4.617598739134401
 20
0.8282105939707538
 10
4.740425573017735
 20
0.8282105939707538
 10
4.814121673347735
 20
0.8282105939707538
 10
4.90010045706607
 20
0.8282105939707538
 10
4.973796557396074
 20
0.8282105939707538
 10
4.998361924172741
 20
0.8282105939707538
 10
5.010644607561073
 20
0.8282105939707538
 10
4.998361924172741
 20
0.8282105939707538
  0
LWPOLYLINE
  5
DA
100
AcDbEntity
  8
0
  6
ByLayer
 62
  256
370
   -1
100
AcDbPolyline
 90
   10
 70
    0
 43
0
 10
4.126291403601059
 20
1.024733528184091
 10
4.187704820542724
 20
1.024733528184091
 10
4.261400920872727
 20
1.024733528184091
 10
4.347379704591059
 20
1.024733528184091
 10
4.433358488309395
 20
1.024733528184091
 10
4.507054588639399
 20
1.024733528184091
 10
4.580750688969399
 20
1.024733528184091
 10
4.617598739134401
 20
1.024733528184091
 10
4.654446789299399
 20
1.024733528184091
 10
4.679012156076066
 20
1.024733528184091
  0
LWPOLYLINE
  5
DB
100
AcDbEntity
  8
0
  6
ByLayer
 62
  256
370
   -1
100
AcDbPolyline
 90
    5
 70
    0
 43
0
 10
4.408793121532728
 20
1.110712311902426
 10
4.433358488309395
 20
1.110712311902426
 10
4.457923855086062
 20
1.135277678679094
 10
4.470206538474397
 20
1.135277678679094
 10
4.457923855086062
 20
1.135277678679094
  0
LWPOLYLINE
  5
DC
100
AcDbEntity
  8
0
  6
ByLayer
 62
  256
370
   -1
100
AcDbPolyline
 90
   10
 70
    0
 43
0
 10
4.199987503931059
 20
1.196691095620761
 10
4.21227018731939
 20
1.208973779009095
 10
4.224552870707726
 20
1.208973779009095
 10
4.236835554096061
 20
1.208973779009095
 10
4.261400920872727
 20
1.221256462397428
 10
4.285966287649394
 20
1.221256462397428
 10
4.298248971037726
 20
1.221256462397428
 10
4.310531654426061
 20
1.221256462397428
 10
4.322814337814393
 20
1.221256462397428
 10
4.322814337814393
 20
1.233539145785762
  0
LWPOLYLINE
  5
DD
100
AcDbEntity
  8
0
  6
ByLayer
 62
  256
370
   -1
100
AcDbPolyline
 90
   11
 70
    0
 43
0
 10
4.175422137154392
 20
1.282669879339096
 10
4.21227018731939
 20
1.282669879339096
 10
4.249118237484392
 20
1.282669879339096
 10
4.298248971037726
 20
1.282669879339096
 10
4.322814337814393
 20
1.294952562727429
 10
4.347379704591059
 20
1.294952562727429
 10
4.359662387979395
 20
1.294952562727429
 10
4.37194507136773
 20
1.294952562727429
 10
4.37194507136773
 20
1.307235246115764
 10
4.359662387979395
 20
1.307235246115764
 10
4.347379704591059
 20
1.319517929504097
  0
LWPOLYLINE
  5
DE
100
AcDbEntity
  8
0
  6
ByLayer
 62
  256
370
   -1
100
AcDbPolyline
 90
   10
 70
    0
 43
0
 10
4.249118237484392
 20
1.356365979669097
 10
4.261400920872727
 20
1.356365979669097
 10
4.273683604261059
 20
1.356365979669097
 10
4.285966287649394
 20
1.356365979669097
 10
4.285966287649394
 20
1.368648663057431
 10
4.310531654426061
 20
1.368648663057431
 10
4.335097021202728
 20
1.380931346445765
 10
4.359662387979395
 20
1.380931346445765
 10
4.384227754756061
 20
1.380931346445765
 10
4.396510438144396
 20
1.380931346445765
  0
LWPOLYLINE
  5
DF
100
AcDbEntity
  8
0
  6
ByLayer
 62
  256
370
   -1
100
AcDbPolyline
 90
    6
 70
    0
 43
0
 10
4.236835554096061
 20
1.454627446775766
 10
4.261400920872727
 20
1.466910130164099
 10
4.273683604261059
 20
1.466910130164099
 10
4.298248971037726
 20
1.466910130164099
 10
4.322814337814393
 20
1.479192813552433
 10
4.335097021202728
 20
1.479192813552433
  0
LWPOLYLINE
  5
E0
100
AcDbEntity
  8
0
  6
ByLayer
 62
  256
370
   -1
100
AcDbPolyline
 90
   10
 70
    0
 43
0
 10
4.21227018731939
 20
1.491475496940767
 10
4.21227018731939
 20
1.5037581803291
 10
4.224552870707726
 20
1.5037581803291
 10
4.249118237484392
 20
1.516040863717434
 10
4.273683604261059
 20
1.528323547105767
 10
4.322814337814393
 20
1.528323547105767
 10
4.347379704591059
 20
1.540606230494101
 10
4.384227754756061
 20
1.540606230494101
 10
4.408793121532728
 20
1.540606230494101
 10
4.408793121532728
 20
1.552888913882435
  0
LWPOLYLINE
  5
E1
100
AcDbEntity
  8
0
  6
ByLayer
 62
  256
370
   -1
100
AcDbPolyline
 90
   10
 70
    0
 43
0
 10
5.833584394579422
 20
6.072916400789188
 10
5.845867077967757
 20
6.072916400789188
 10
5.858149761356092
 20
6.072916400789188
 10
5.870432444744427
 20
6.072916400789188
 10
5.882715128132755
 20
6.072916400789188
 10
5.882715128132755
 20
6.060633717400854
 10
5.89499781152109
 20
6.060633717400854
 10
5.907280494909426
 20
6.060633717400854
 10
5.919563178297754
 20
6.060633717400854
 10
5.931845861686089
 20
6.060633717400854
  0
LWPOLYLINE
  5
E2
100
AcDbEntity
  8
0
  6
ByLayer
 62
  256
370
   -1
100
AcDbPolyline
 90
   16
 70
    0
 43
0
 10
5.784453661026088
 20
6.011502983847521
 10
5.796736344414423
 20
6.011502983847521
 10
5.809019027802751
 20
6.011502983847521
 10
5.833584394579422
 20
6.011502983847521
 10
5.845867077967757
 20
6.011502983847521
 10
5.858149761356092
 20
6.011502983847521
 10
5.870432444744427
 20
6.011502983847521
 10
5.882715128132755
 20
6.011502983847521
 10
5.89499781152109
 20
6.011502983847521
 10
5.907280494909426
 20
6.011502983847521
 10
5.919563178297754
 20
6.011502983847521
 10
5.931845861686089
 20
6.011502983847521
 10
5.944128545074424
 20
6.011502983847521
 10
5.956411228462759
 20
6.011502983847521
 10
5.968693911851094
 20
6.011502983847521
 10
5.980976595239429
 20
6.011502983847521
  0
LWPOLYLINE
  5
E3
100
AcDbEntity
  8
0
  6
ByLayer
 62
  256
370
   -1
100
AcDbPolyline
 90
   14
 70
    0
 43
0
 10
5.735322927472755
 20
5.962372250294186
 10
5.74760561086109
 20
5.962372250294186
 10
5.759888294249425
 20
5.962372250294186
 10
5.772170977637753
 20
5.962372250294186
 10
5.796736344414423
 20
5.962372250294186
 10
5.809019027802751
 20
5.950089566905852
 10
5.833584394579422
 20
5.950089566905852
 10
5.858149761356092
 20
5.950089566905852
 10
5.882715128132755
 20
5.950089566905852
 10
5.919563178297754
 20
5.950089566905852
 10
5.931845861686089
 20
5.950089566905852
 10
5.944128545074424
 20
5.950089566905852
 10
5.968693911851094
 20
5.950089566905852
 10
5.980976595239429
 20
5.950089566905852
  0
LWPOLYLINE
  5
E4
100
AcDbEntity
  8
0
  6
ByLayer
 62
  256
370
   -1
100
AcDbPolyline
 90
   22
 70
    0
 43
0
 10
5.759888294249425
 20
5.87639346657585
 10
5.772170977637753
 20
5.87639346657585
 10
5.784453661026088
 20
5.87639346657585
 10
5.809019027802751
 20
5.87639346657585
 10
5.833584394579422
 20
5.87639346657585
 10
5.858149761356092
 20
5.864110783187517
 10
5.882715128132755
 20
5.864110783187517
 10
5.907280494909426
 20
5.864110783187517
 10
5.919563178297754
 20
5.864110783187517
 10
5.931845861686089
 20
5.864110783187517
 10
5.944128545074424
 20
5.864110783187517
 10
5.956411228462759
 20
5.864110783187517
 10
5.968693911851094
 20
5.864110783187517
 10
5.980976595239429
 20
5.864110783187517
 10
5.993259278627757
 20
5.864110783187517
 10
6.005541962016093
 20
5.864110783187517
 10
6.017824645404428
 20
5.864110783187517
 10
6.030107328792756
 20
5.864110783187517
 10
6.042390012181091
 20
5.864110783187517
 10
6.054672695569426
 20
5.864110783187517
 10
6.066955378957761
 20
5.864110783187517
 10
6.079238062346096
 20
5.864110783187517
  0
LWPOLYLINE
  5
E5
100
AcDbEntity
  8
0
  6
ByLayer
 62
  256
370
   -1
100
AcDbPolyline
 90
   19
 70
    0
 43
0
 10
5.89499781152109
 20
5.814980049634183
 10
5.907280494909426
 20
5.814980049634183
 10
5.907280494909426
 20
5.802697366245848
 10
5.919563178297754
 20
5.802697366245848
 10
5.931845861686089
 20
5.802697366245848
 10
5.944128545074424
 20
5.802697366245848
 10
5.956411228462759
 20
5.790414682857516
 10
5.980976595239429
 20
5.790414682857516
 10
5.993259278627757
 20
5.790414682857516
 10
6.030107328792756
 20
5.790414682857516
 10
6.042390012181091
 20
5.778131999469181
 10
6.054672695569426
 20
5.778131999469181
 10
6.079238062346096
 20
5.778131999469181
 10
6.091520745734432
 20
5.778131999469181
 10
6.10380342912276
 20
5.778131999469181
 10
6.116086112511095
 20
5.778131999469181
 10
6.12836879589943
 20
5.778131999469181
 10
6.140651479287758
 20
5.778131999469181
 10
6.152934162676093
 20
5.778131999469181
  0
LWPOLYLINE
  5
E6
100
AcDbEntity
  8
0
  6
ByLayer
 62
  256
370
   -1
100
AcDbPolyline
 90
   13
 70
    0
 43
0
 10
5.980976595239429
 20
5.72900126591585
 10
5.993259278627757
 20
5.72900126591585
 10
6.005541962016093
 20
5.72900126591585
 10
6.005541962016093
 20
5.716718582527514
 10
6.017824645404428
 20
5.716718582527514
 10
6.030107328792756
 20
5.716718582527514
 10
6.042390012181091
 20
5.716718582527514
 10
6.054672695569426
 20
5.716718582527514
 10
6.066955378957761
 20
5.716718582527514
 10
6.079238062346096
 20
5.716718582527514
 10
6.091520745734432
 20
5.716718582527514
 10
6.10380342912276
 20
5.704435899139181
 10
6.116086112511095
 20
5.704435899139181
  0
LWPOLYLINE
  5
E7
100
AcDbEntity
  8
0
  6
ByLayer
 62
  256
370
   -1
100
AcDbPolyline
 90
    9
 70
    0
 43
0
 10
6.030107328792756
 20
5.630739798809179
 10
6.079238062346096
 20
5.630739798809179
 10
6.10380342912276
 20
5.630739798809179
 10
6.12836879589943
 20
5.630739798809179
 10
6.152934162676093
 20
5.630739798809179
 10
6.189782212841099
 20
5.630739798809179
 10
6.202064896229434
 20
5.630739798809179
 10
6.202064896229434
 20
5.643022482197514
 10
6.214347579617762
 20
5.643022482197514
  0
LWPOLYLINE
  5
E8
100
AcDbEntity
  8
0
  6
ByLayer
 62
  256
370
   -1
100
AcDbPolyline
 90
   22
 70
    0
 43
0
 10
6.030107328792756
 20
5.569326381867512
 10
6.042390012181091
 20
5.569326381867512
 10
6.054672695569426
 20
5.569326381867512
 10
6.066955378957761
 20
5.569326381867512
 10
6.079238062346096
 20
5.569326381867512
 10
6.091520745734432
 20
5.569326381867512
 10
6.116086112511095
 20
5.569326381867512
 10
6.140651479287758
 20
5.557043698479179
 10
6.165216846064428
 20
5.557043698479179
 10
6.177499529452763
 20
5.557043698479179
 10
6.189782212841099
 20
5.544761015090844
 10
6.202064896229434
 20
5.544761015090844
 10
6.214347579617762
 20
5.544761015090844
 10
6.226630263006097
 20
5.544761015090844
 10
6.238912946394432
 20
5.544761015090844
 10
6.25119562978276
 20
5.544761015090844
 10
6.263478313171095
 20
5.544761015090844
 10
6.275760996559431
 20
5.544761015090844
 10
6.288043679947766
 20
5.544761015090844
 10
6.312609046724436
 20
5.544761015090844
 10
6.324891730112764
 20
5.544761015090844
 10
6.337174413501099
 20
5.532478331702512
  0
LWPOLYLINE
  5
E9
100
AcDbEntity
  8
0
  6
ByLayer
 62
  256
370
   -1
100
AcDbPolyline
 90
   18
 70
    0
 43
0
 10
5.796736344414423
 20
5.397368814430843
 10
5.809019027802751
 20
5.397368814430843
 10
5.821301711191087
 20
5.397368814430843
 10
5.833584394579422
 20
5.397368814430843
 10
5.845867077967757
 20
5.397368814430843
 10
5.870432444744427
 20
5.397368814430843
 10
5.919563178297754
 20
5.397368814430843
 10
5.944128545074424
 20
5.397368814430843
 10
5.993259278627757
 20
5.397368814430843
 10
6.017824645404428
 20
5.397368814430843
 10
6.042390012181091
 20
5.397368814430843
 10
6.079238062346096
 20
5.42193418120751
 10
6.10380342912276
 20
5.42193418120751
 10
6.116086112511095
 20
5.42193418120751
 10
6.12836879589943
 20
5.42193418120751
 10
6.140651479287758
 20
5.42193418120751
 10
6.140651479287758
 20
5.434216864595841
 10
6.152934162676093
 20
5.434216864595841
  0
LWPOLYLINE
  5
EA
100
AcDbEntity
  8
0
  6
ByLayer
 62
  256
370
   -1
100
AcDbPolyline
 90
   14
 70
    0
 43
0
 10
5.944128545074424
 20
5.372803447654176
 10
5.956411228462759
 20
5.372803447654176
 10
5.956411228462759
 20
5.360520764265841
 10
5.968693911851094
 20
5.360520764265841
 10
5.980976595239429
 20
5.360520764265841
 10
5.993259278627757
 20
5.360520764265841
 10
5.993259278627757
 20
5.348238080877508
 10
6.017824645404428
 20
5.348238080877508
 10
6.042390012181091
 20
5.348238080877508
 10
6.066955378957761
 20
5.335955397489174
 10
6.079238062346096
 20
5.335955397489174
 10
6.091520745734432
 20
5.335955397489174
 10
6.10380342912276
 20
5.335955397489174
 10
6.116086112511095
 20
5.335955397489174
  0
LWPOLYLINE
  5
EB
100
AcDbEntity
  8
0
  6
ByLayer
 62
  256
370
   -1
100
AcDbPolyline
 90
    9
 70
    0
 43
0
 10
5.993259278627757
 20
5.262259297159174
 10
6.005541962016093
 20
5.262259297159174
 10
6.017824645404428
 20
5.262259297159174
 10
6.030107328792756
 20
5.262259297159174
 10
6.042390012181091
 20
5.262259297159174
 10
6.054672695569426
 20
5.262259297159174
 10
6.054672695569426
 20
5.249976613770839
 10
6.066955378957761
 20
5.249976613770839
 10
6.079238062346096
 20
5.249976613770839
  0
LWPOLYLINE
  5
EC
100
AcDbEntity
  8
0
  6
ByLayer
 62
  256
370
   -1
100
AcDbPolyline
 90
    6
 70
    0
 43
0
 10
5.944128545074424
 20
5.163997830052503
 10
5.956411228462759
 20
5.163997830052503
 10
5.968693911851094
 20
5.163997830052503
 10
5.980976595239429
 20
5.163997830052503
 10
5.980976595239429
 20
5.151715146664172
 10
5.993259278627757
 20
5.151715146664172
  0
LWPOLYLINE
  5
ED
100
AcDbEntity
  8
0
  6
ByLayer
 62
  256
370
   -1
100
AcDbPolyline
 90
   12
 70
    0
 43
0
 10
5.944128545074424
 20
5.078019046334168
 10
5.956411228462759
 20
5.078019046334168
 10
5.968693911851094
 20
5.078019046334168
 10
5.980976595239429
 20
5.078019046334168
 10
6.005541962016093
 20
5.078019046334168
 10
6.030107328792756
 20
5.065736362945836
 10
6.054672695569426
 20
5.065736362945836
 10
6.091520745734432
 20
5.065736362945836
 10
6.10380342912276
 20
5.053453679557501
 10
6.116086112511095
 20
5.053453679557501
 10
6.12836879589943
 20
5.053453679557501
 10
6.12836879589943
 20
5.04117099616917
  0
LWPOLYLINE
  5
EE
100
AcDbEntity
  8
0
  6
ByLayer
 62
  256
370
   -1
100
AcDbPolyline
 90
    6
 70
    0
 43
0
 10
6.595110764656102
 20
5.581609065255845
 10
6.607393448044437
 20
5.581609065255845
 10
6.619676131432772
 20
5.581609065255845
 10
6.631958814821107
 20
5.581609065255845
 10
6.644241498209436
 20
5.581609065255845
 10
6.644241498209436
 20
5.569326381867512
  0
LWPOLYLINE
  5
EF
100
AcDbEntity
  8
0
  6
ByLayer
 62
  256
370
   -1
100
AcDbPolyline
 90
   10
 70
    0
 43
0
 10
6.570545397879439
 20
5.483347598149178
 10
6.570545397879439
 20
5.471064914760843
 10
6.582828081267767
 20
5.471064914760843
 10
6.595110764656102
 20
5.471064914760843
 10
6.595110764656102
 20
5.45878223137251
 10
6.631958814821107
 20
5.45878223137251
 10
6.644241498209436
 20
5.446499547984176
 10
6.656524181597771
 20
5.446499547984176
 10
6.668806864986106
 20
5.446499547984176
 10
6.668806864986106
 20
5.434216864595841
  0
LWPOLYLINE
  5
F0
100
AcDbEntity
  8
0
  6
ByLayer
 62
  256
370
   -1
100
AcDbPolyline
 90
   11
 70
    0
 43
0
 10
6.472283930772765
 20
5.348238080877508
 10
6.4845666141611
 20
5.348238080877508
 10
6.496849297549435
 20
5.348238080877508
 10
6.50913198093777
 20
5.348238080877508
 10
6.521414664326105
 20
5.348238080877508
 10
6.558262714491104
 20
5.348238080877508
 10
6.570545397879439
 20
5.348238080877508
 10
6.582828081267767
 20
5.348238080877508
 10
6.595110764656102
 20
5.348238080877508
 10
6.607393448044437
 20
5.348238080877508
 10
6.619676131432772
 20
5.348238080877508
  0
LWPOLYLINE
  5
F1
100
AcDbEntity
  8
0
  6
ByLayer
 62
  256
370
   -1
100
AcDbPolyline
 90
   14
 70
    0
 43
0
 10
6.472283930772765
 20
5.249976613770839
 10
6.4845666141611
 20
5.249976613770839
 10
6.496849297549435
 20
5.249976613770839
 10
6.50913198093777
 20
5.249976613770839
 10
6.521414664326105
 20
5.249976613770839
 10
6.545980031102768
 20
5.249976613770839
 10
6.570545397879439
 20
5.249976613770839
 10
6.582828081267767
 20
5.249976613770839
 10
6.595110764656102
 20
5.249976613770839
 10
6.607393448044437
 20
5.249976613770839
 10
6.619676131432772
 20
5.249976613770839
 10
6.631958814821107
 20
5.249976613770839
 10
6.644241498209436
 20
5.249976613770839
 10
6.644241498209436
 20
5.237693930382505
  0
LWPOLYLINE
  5
F2
100
AcDbEntity
  8
0
  6
ByLayer
 62
  256
370
   -1
100
AcDbPolyline
 90
   13
 70
    0
 43
0
 10
6.472283930772765
 20
5.163997830052503
 10
6.4845666141611
 20
5.163997830052503
 10
6.496849297549435
 20
5.163997830052503
 10
6.50913198093777
 20
5.163997830052503
 10
6.521414664326105
 20
5.163997830052503
 10
6.533697347714433
 20
5.163997830052503
 10
6.558262714491104
 20
5.163997830052503
 10
6.570545397879439
 20
5.163997830052503
 10
6.582828081267767
 20
5.163997830052503
 10
6.595110764656102
 20
5.163997830052503
 10
6.607393448044437
 20
5.163997830052503
 10
6.619676131432772
 20
5.163997830052503
 10
6.631958814821107
 20
5.163997830052503
  0
LWPOLYLINE
  5
F3
100
AcDbEntity
  8
0
  6
ByLayer
 62
  256
370
   -1
100
AcDbPolyline
 90
    7
 70
    0
 43
0
 10
6.4845666141611
 20
5.11486709649917
 10
6.496849297549435
 20
5.11486709649917
 10
6.50913198093777
 20
5.11486709649917
 10
6.521414664326105
 20
5.11486709649917
 10
6.533697347714433
 20
5.11486709649917
 10
6.545980031102768
 20
5.11486709649917
 10
6.558262714491104
 20
5.11486709649917
  0
LWPOLYLINE
  5
F4
100
AcDbEntity
  8
0
  6
ByLayer
 62
  256
370
   -1
100
AcDbPolyline
 90
    6
 70
    0
 43
0
 10
6.447718563996101
 20
5.04117099616917
 10
6.460001247384437
 20
5.04117099616917
 10
6.472283930772765
 20
5.04117099616917
 10
6.4845666141611
 20
5.04117099616917
 10
6.496849297549435
 20
5.04117099616917
 10
6.50913198093777
 20
5.04117099616917
  0
LWPOLYLINE
  5
F5
100
AcDbEntity
  8
0
  6
ByLayer
 62
  256
370
   -1
100
AcDbPolyline
 90
   14
 70
    0
 43
0
 10
6.435435880607766
 20
4.967474895839166
 10
6.435435880607766
 20
4.955192212450834
 10
6.447718563996101
 20
4.955192212450834
 10
6.460001247384437
 20
4.955192212450834
 10
6.472283930772765
 20
4.955192212450834
 10
6.4845666141611
 20
4.955192212450834
 10
6.496849297549435
 20
4.955192212450834
 10
6.50913198093777
 20
4.955192212450834
 10
6.521414664326105
 20
4.955192212450834
 10
6.533697347714433
 20
4.955192212450834
 10
6.545980031102768
 20
4.955192212450834
 10
6.558262714491104
 20
4.955192212450834
 10
6.570545397879439
 20
4.955192212450834
 10
6.570545397879439
 20
4.942909529062499
  0
LWPOLYLINE
  5
F6
100
AcDbEntity
  8
0
  6
ByLayer
 62
  256
370
   -1
100
AcDbPolyline
 90
    4
 70
    0
 43
0
 10
6.472283930772765
 20
4.893778795509165
 10
6.4845666141611
 20
4.893778795509165
 10
6.496849297549435
 20
4.893778795509165
 10
6.50913198093777
 20
4.893778795509165
  0
LWPOLYLINE
  5
F7
100
AcDbEntity
  8
0
  6
ByLayer
 62
  256
370
   -1
100
AcDbPolyline
 90
   16
 70
    0
 43
0
 10
2.885740381379367
 20
5.335955397489174
 10
2.898023064767699
 20
5.335955397489174
 10
2.898023064767699
 20
5.323672714100839
 10
2.934871114932701
 20
5.311390030712507
 10
2.959436481709368
 20
5.299107347324172
 10
2.984001848486034
 20
5.299107347324172
 10
3.008567215262701
 20
5.274541980547506
 10
3.020849898651036
 20
5.274541980547506
 10
3.033132582039368
 20
5.274541980547506
 10
3.045415265427703
 20
5.274541980547506
 10
3.057697948816035
 20
5.274541980547506
 10
3.06998063220437
 20
5.274541980547506
 10
3.082263315592702
 20
5.274541980547506
 10
3.094545998981037
 20
5.274541980547506
 10
3.106828682369372
 20
5.274541980547506
 10
3.119111365757703
 20
5.274541980547506
  0
LWPOLYLINE
  5
F8
100
AcDbEntity
  8
0
  6
ByLayer
 62
  256
370
   -1
100
AcDbPolyline
 90
   21
 70
    0
 43
0
 10
2.898023064767699
 20
5.262259297159174
 10
2.898023064767699
 20
5.249976613770839
 10
2.910305748156034
 20
5.249976613770839
 10
2.934871114932701
 20
5.237693930382505
 10
2.959436481709368
 20
5.237693930382505
 10
2.984001848486034
 20
5.225411246994172
 10
3.008567215262701
 20
5.225411246994172
 10
3.045415265427703
 20
5.213128563605837
 10
3.057697948816035
 20
5.213128563605837
 10
3.06998063220437
 20
5.200845880217505
 10
3.094545998981037
 20
5.200845880217505
 10
3.106828682369372
 20
5.200845880217505
 10
3.119111365757703
 20
5.200845880217505
 10
3.131394049146039
 20
5.18856319682917
 10
3.14367673253437
 20
5.18856319682917
 10
3.155959415922705
 20
5.18856319682917
 10
3.168242099311037
 20
5.18856319682917
 10
3.180524782699372
 20
5.18856319682917
 10
3.180524782699372
 20
5.176280513440839
 10
3.192807466087704
 20
5.176280513440839
 10
3.205090149476039
 20
5.176280513440839
  0
LWPOLYLINE
  5
F9
100
AcDbEntity
  8
0
  6
ByLayer
 62
  256
370
   -1
100
AcDbPolyline
 90
   26
 70
    0
 43
0
 10
2.83660964782603
 20
5.102584413110835
 10
2.848892331214365
 20
5.102584413110835
 10
2.848892331214365
 20
5.090301729722503
 10
2.861175014602701
 20
5.090301729722503
 10
2.885740381379367
 20
5.078019046334168
 10
2.922588431544366
 20
5.078019046334168
 10
2.971719165097699
 20
5.065736362945836
 10
2.99628453187437
 20
5.065736362945836
 10
3.033132582039368
 20
5.053453679557501
 10
3.057697948816035
 20
5.053453679557501
 10
3.06998063220437
 20
5.053453679557501
 10
3.082263315592702
 20
5.053453679557501
 10
3.106828682369372
 20
5.053453679557501
 10
3.106828682369372
 20
5.04117099616917
 10
3.119111365757703
 20
5.04117099616917
 10
3.131394049146039
 20
5.04117099616917
 10
3.14367673253437
 20
5.04117099616917
 10
3.155959415922705
 20
5.04117099616917
 10
3.168242099311037
 20
5.04117099616917
 10
3.180524782699372
 20
5.04117099616917
 10
3.192807466087704
 20
5.04117099616917
 10
3.217372832864374
 20
5.04117099616917
 10
3.241938199641041
 20
5.028888312780834
 10
3.266503566417708
 20
5.028888312780834
 10
3.278786249806039
 20
5.028888312780834
 10
3.291068933194374
 20
5.028888312780834
  0
LWPOLYLINE
  5
FA
100
AcDbEntity
  8
0
  6
ByLayer
 62
  256
370
   -1
100
AcDbPolyline
 90
   15
 70
    0
 43
0
 10
2.787478914272697
 20
4.906061478897501
 10
2.812044281049364
 20
4.906061478897501
 10
2.861175014602701
 20
4.893778795509165
 10
2.885740381379367
 20
4.893778795509165
 10
2.934871114932701
 20
4.893778795509165
 10
2.971719165097699
 20
4.893778795509165
 10
3.020849898651036
 20
4.893778795509165
 10
3.045415265427703
 20
4.893778795509165
 10
3.082263315592702
 20
4.881496112120834
 10
3.094545998981037
 20
4.881496112120834
 10
3.106828682369372
 20
4.881496112120834
 10
3.119111365757703
 20
4.881496112120834
 10
3.131394049146039
 20
4.881496112120834
 10
3.14367673253437
 20
4.881496112120834
 10
3.155959415922705
 20
4.881496112120834
  0
LWPOLYLINE
  5
FB
100
AcDbEntity
  8
0
  6
ByLayer
 62
  256
370
   -1
100
AcDbPolyline
 90
   15
 70
    0
 43
0
 10
2.713782813942696
 20
4.881496112120834
 10
2.726065497331028
 20
4.881496112120834
 10
2.738348180719363
 20
4.881496112120834
 10
2.750630864107698
 20
4.881496112120834
 10
2.76291354749603
 20
4.881496112120834
 10
2.812044281049364
 20
4.881496112120834
 10
2.83660964782603
 20
4.881496112120834
 10
2.885740381379367
 20
4.869213428732499
 10
2.922588431544366
 20
4.869213428732499
 10
2.971719165097699
 20
4.869213428732499
 10
3.020849898651036
 20
4.844648061955832
 10
3.033132582039368
 20
4.844648061955832
 10
3.057697948816035
 20
4.844648061955832
 10
3.06998063220437
 20
4.844648061955832
 10
3.082263315592702
 20
4.844648061955832
  0
LWPOLYLINE
  5
FC
100
AcDbEntity
  8
0
  6
ByLayer
 62
  256
370
   -1
100
AcDbPolyline
 90
   17
 70
    0
 43
0
 10
2.76291354749603
 20
4.955192212450834
 10
2.775196230884365
 20
4.955192212450834
 10
2.787478914272697
 20
4.955192212450834
 10
2.799761597661032
 20
4.955192212450834
 10
2.83660964782603
 20
4.955192212450834
 10
2.861175014602701
 20
4.955192212450834
 10
2.898023064767699
 20
4.955192212450834
 10
2.947153798321033
 20
4.955192212450834
 10
2.99628453187437
 20
4.955192212450834
 10
3.033132582039368
 20
4.955192212450834
 10
3.082263315592702
 20
4.942909529062499
 10
3.106828682369372
 20
4.942909529062499
 10
3.14367673253437
 20
4.942909529062499
 10
3.155959415922705
 20
4.942909529062499
 10
3.168242099311037
 20
4.942909529062499
 10
3.180524782699372
 20
4.942909529062499
 10
3.192807466087704
 20
4.942909529062499
  0
LWPOLYLINE
  5
FD
100
AcDbEntity
  8
0
  6
ByLayer
 62
  256
370
   -1
100
AcDbPolyline
 90
   27
 70
    0
 43
0
 10
2.480411829564357
 20
4.80780001179083
 10
2.492694512952692
 20
4.80780001179083
 10
2.492694512952692
 20
4.795517328402498
 10
2.517259879729359
 20
4.795517328402498
 10
2.566390613282692
 20
4.795517328402498
 10
2.627804030224361
 20
4.795517328402498
 10
2.676934763777695
 20
4.783234645014163
 10
2.738348180719363
 20
4.783234645014163
 10
2.812044281049364
 20
4.77095196162583
 10
2.848892331214365
 20
4.77095196162583
 10
2.922588431544366
 20
4.746386594849161
 10
2.971719165097699
 20
4.746386594849161
 10
2.99628453187437
 20
4.746386594849161
 10
3.045415265427703
 20
4.746386594849161
 10
3.06998063220437
 20
4.746386594849161
 10
3.094545998981037
 20
4.746386594849161
 10
3.106828682369372
 20
4.73410391146083
 10
3.131394049146039
 20
4.73410391146083
 10
3.14367673253437
 20
4.73410391146083
 10
3.155959415922705
 20
4.73410391146083
 10
3.180524782699372
 20
4.73410391146083
 10
3.192807466087704
 20
4.73410391146083
 10
3.205090149476039
 20
4.73410391146083
 10
3.254220883029372
 20
4.73410391146083
 10
3.266503566417708
 20
4.721821228072494
 10
3.291068933194374
 20
4.721821228072494
 10
3.303351616582706
 20
4.721821228072494
  0
LWPOLYLINE
  5
FE
100
AcDbEntity
  8
0
  6
ByLayer
 62
  256
370
   -1
100
AcDbPolyline
 90
   13
 70
    0
 43
0
 10
2.615521346836029
 20
4.684973177907496
 10
2.627804030224361
 20
4.684973177907496
 10
2.640086713612696
 20
4.684973177907496
 10
2.676934763777695
 20
4.684973177907496
 10
2.750630864107698
 20
4.684973177907496
 10
2.812044281049364
 20
4.684973177907496
 10
2.885740381379367
 20
4.684973177907496
 10
2.971719165097699
 20
4.660407811130828
 10
3.020849898651036
 20
4.660407811130828
 10
3.082263315592702
 20
4.660407811130828
 10
3.119111365757703
 20
4.660407811130828
 10
3.14367673253437
 20
4.660407811130828
 10
3.155959415922705
 20
4.660407811130828
  0
LWPOLYLINE
  5
FF
100
AcDbEntity
  8
0
  6
ByLayer
 62
  256
370
   -1
100
AcDbPolyline
 90
   14
 70
    0
 43
0
 10
2.590955980059359
 20
4.598994394189161
 10
2.603238663447694
 20
4.598994394189161
 10
2.615521346836029
 20
4.598994394189161
 10
2.652369397001028
 20
4.598994394189161
 10
2.701500130554361
 20
4.598994394189161
 10
2.76291354749603
 20
4.586711710800826
 10
2.812044281049364
 20
4.586711710800826
 10
2.861175014602701
 20
4.562146344024159
 10
2.910305748156034
 20
4.562146344024159
 10
2.934871114932701
 20
4.562146344024159
 10
2.947153798321033
 20
4.562146344024159
 10
2.959436481709368
 20
4.562146344024159
 10
2.971719165097699
 20
4.562146344024159
 10
2.984001848486034
 20
4.562146344024159
  0
LWPOLYLINE
  5
100
100
AcDbEntity
  8
0
  6
ByLayer
 62
  256
370
   -1
100
AcDbPolyline
 90
   19
 70
    0
 43
0
 10
2.418998412622692
 20
4.476167560305823
 10
2.443563779399359
 20
4.463884876917492
 10
2.492694512952692
 20
4.463884876917492
 10
2.517259879729359
 20
4.463884876917492
 10
2.566390613282692
 20
4.463884876917492
 10
2.590955980059359
 20
4.463884876917492
 10
2.615521346836029
 20
4.463884876917492
 10
2.640086713612696
 20
4.463884876917492
 10
2.676934763777695
 20
4.463884876917492
 10
2.68921744716603
 20
4.463884876917492
 10
2.713782813942696
 20
4.463884876917492
 10
2.726065497331028
 20
4.463884876917492
 10
2.738348180719363
 20
4.463884876917492
 10
2.750630864107698
 20
4.463884876917492
 10
2.775196230884365
 20
4.463884876917492
 10
2.787478914272697
 20
4.463884876917492
 10
2.799761597661032
 20
4.463884876917492
 10
2.812044281049364
 20
4.463884876917492
 10
2.824326964437699
 20
4.463884876917492
  0
LWPOLYLINE
  5
101
100
AcDbEntity
  8
0
  6
ByLayer
 62
  256
370
   -1
100
AcDbPolyline
 90
   10
 70
    0
 43
0
 10
2.406715729234357
 20
4.402471459975823
 10
2.45584646278769
 20
4.377906093199156
 10
2.517259879729359
 20
4.377906093199156
 10
2.566390613282692
 20
4.377906093199156
 10
2.615521346836029
 20
4.377906093199156
 10
2.664652080389363
 20
4.377906093199156
 10
2.68921744716603
 20
4.377906093199156
 10
2.713782813942696
 20
4.377906093199156
 10
2.726065497331028
 20
4.377906093199156
 10
2.738348180719363
 20
4.377906093199156
  0
LWPOLYLINE
  5
102
100
AcDbEntity
  8
0
  6
ByLayer
 62
  256
370
   -1
100
AcDbPolyline
 90
   12
 70
    0
 43
0
 10
2.504977196341027
 20
4.291927309480821
 10
2.517259879729359
 20
4.291927309480821
 10
2.517259879729359
 20
4.279644626092486
 10
2.541825246506026
 20
4.279644626092486
 10
2.578673296671028
 20
4.279644626092486
 10
2.603238663447694
 20
4.279644626092486
 10
2.640086713612696
 20
4.279644626092486
 10
2.68921744716603
 20
4.279644626092486
 10
2.713782813942696
 20
4.279644626092486
 10
2.750630864107698
 20
4.279644626092486
 10
2.76291354749603
 20
4.279644626092486
 10
2.775196230884365
 20
4.279644626092486
  0
LWPOLYLINE
  5
103
100
AcDbEntity
  8
0
  6
ByLayer
 62
  256
370
   -1
100
AcDbPolyline
 90
   10
 70
    0
 43
0
 10
2.578673296671028
 20
4.242796575927487
 10
2.590955980059359
 20
4.242796575927487
 10
2.603238663447694
 20
4.242796575927487
 10
2.627804030224361
 20
4.242796575927487
 10
2.652369397001028
 20
4.242796575927487
 10
2.676934763777695
 20
4.242796575927487
 10
2.713782813942696
 20
4.242796575927487
 10
2.738348180719363
 20
4.242796575927487
 10
2.738348180719363
 20
4.230513892539152
 10
2.750630864107698
 20
4.230513892539152
  0
LWPOLYLINE
  5
104
100
AcDbEntity
  8
0
  6
ByLayer
 62
  256
370
   -1
100
AcDbPolyline
 90
   11
 70
    0
 43
0
 10
2.615521346836029
 20
4.144535108820817
 10
2.627804030224361
 20
4.144535108820817
 10
2.664652080389363
 20
4.144535108820817
 10
2.676934763777695
 20
4.156817792209152
 10
2.713782813942696
 20
4.156817792209152
 10
2.738348180719363
 20
4.156817792209152
 10
2.750630864107698
 20
4.156817792209152
 10
2.775196230884365
 20
4.156817792209152
 10
2.812044281049364
 20
4.156817792209152
 10
2.824326964437699
 20
4.156817792209152
 10
2.83660964782603
 20
4.156817792209152
  0
LWPOLYLINE
  5
105
100
AcDbEntity
  8
0
  6
ByLayer
 62
  256
370
   -1
100
AcDbPolyline
 90
    4
 70
    0
 43
0
 10
2.873457697991032
 20
4.08312169187915
 10
2.885740381379367
 20
4.08312169187915
 10
2.885740381379367
 20
4.070839008490816
 10
2.873457697991032
 20
4.070839008490816
  0
LWPOLYLINE
  5
106
100
AcDbEntity
  8
0
  6
ByLayer
 62
  256
370
   -1
100
AcDbPolyline
 90
   10
 70
    0
 43
0
 10
2.726065497331028
 20
3.972577541384148
 10
2.750630864107698
 20
3.972577541384148
 10
2.775196230884365
 20
3.984860224772481
 10
2.799761597661032
 20
3.984860224772481
 10
2.812044281049364
 20
3.984860224772481
 10
2.848892331214365
 20
3.984860224772481
 10
2.873457697991032
 20
3.984860224772481
 10
2.885740381379367
 20
3.984860224772481
 10
2.898023064767699
 20
3.984860224772481
 10
2.910305748156034
 20
3.984860224772481
  0
LWPOLYLINE
  5
107
100
AcDbEntity
  8
0
  6
ByLayer
 62
  256
370
   -1
100
AcDbPolyline
 90
    5
 70
    0
 43
0
 10
2.750630864107698
 20
3.874316074277479
 10
2.76291354749603
 20
3.874316074277479
 10
2.775196230884365
 20
3.874316074277479
 10
2.787478914272697
 20
3.874316074277479
 10
2.799761597661032
 20
3.874316074277479
  0
LWPOLYLINE
  5
108
100
AcDbEntity
  8
0
  6
ByLayer
 62
  256
370
   -1
100
AcDbPolyline
 90
    2
 70
    0
 43
0
 10
2.76291354749603
 20
3.825185340724145
 10
2.775196230884365
 20
3.825185340724145
  0
LWPOLYLINE
  5
109
100
AcDbEntity
  8
0
  6
ByLayer
 62
  256
370
   -1
100
AcDbPolyline
 90
   21
 70
    0
 43
0
 10
2.320736945516021
 20
5.163997830052503
 10
2.333019628904356
 20
5.163997830052503
 10
2.345302312292688
 20
5.163997830052503
 10
2.357584995681023
 20
5.163997830052503
 10
2.357584995681023
 20
5.151715146664172
 10
2.369867679069355
 20
5.151715146664172
 10
2.38215036245769
 20
5.151715146664172
 10
2.394433045846025
 20
5.139432463275837
 10
2.406715729234357
 20
5.139432463275837
 10
2.418998412622692
 20
5.139432463275837
 10
2.431281096011023
 20
5.139432463275837
 10
2.468129146176025
 20
5.127149779887505
 10
2.480411829564357
 20
5.127149779887505
 10
2.492694512952692
 20
5.127149779887505
 10
2.517259879729359
 20
5.127149779887505
 10
2.541825246506026
 20
5.11486709649917
 10
2.554107929894361
 20
5.11486709649917
 10
2.566390613282692
 20
5.11486709649917
 10
2.578673296671028
 20
5.11486709649917
 10
2.590955980059359
 20
5.11486709649917
 10
2.603238663447694
 20
5.11486709649917
  0
LWPOLYLINE
  5
10A
100
AcDbEntity
  8
0
  6
ByLayer
 62
  256
370
   -1
100
AcDbPolyline
 90
   12
 70
    0
 43
0
 10
2.30845426212769
 20
5.04117099616917
 10
2.30845426212769
 20
5.028888312780834
 10
2.333019628904356
 20
5.028888312780834
 10
2.345302312292688
 20
5.028888312780834
 10
2.369867679069355
 20
5.016605629392503
 10
2.38215036245769
 20
5.016605629392503
 10
2.418998412622692
 20
5.004322946004168
 10
2.431281096011023
 20
5.004322946004168
 10
2.45584646278769
 20
5.004322946004168
 10
2.492694512952692
 20
4.992040262615832
 10
2.504977196341027
 20
4.992040262615832
 10
2.517259879729359
 20
4.992040262615832
  0
LWPOLYLINE
  5
10B
100
AcDbEntity
  8
0
  6
ByLayer
 62
  256
370
   -1
100
AcDbPolyline
 90
   14
 70
    0
 43
0
 10
2.333019628904356
 20
4.893778795509165
 10
2.345302312292688
 20
4.893778795509165
 10
2.357584995681023
 20
4.893778795509165
 10
2.369867679069355
 20
4.893778795509165
 10
2.418998412622692
 20
4.893778795509165
 10
2.443563779399359
 20
4.893778795509165
 10
2.468129146176025
 20
4.881496112120834
 10
2.504977196341027
 20
4.881496112120834
 10
2.529542563117694
 20
4.881496112120834
 10
2.554107929894361
 20
4.881496112120834
 10
2.566390613282692
 20
4.881496112120834
 10
2.578673296671028
 20
4.881496112120834
 10
2.590955980059359
 20
4.881496112120834
 10
2.603238663447694
 20
4.881496112120834
  0
LWPOLYLINE
  5
10C
100
AcDbEntity
  8
0
  6
ByLayer
 62
  256
370
   -1
100
AcDbPolyline
 90
   11
 70
    0
 43
0
 10
2.357584995681023
 20
4.783234645014163
 10
2.369867679069355
 20
4.783234645014163
 10
2.38215036245769
 20
4.783234645014163
 10
2.394433045846025
 20
4.783234645014163
 10
2.418998412622692
 20
4.783234645014163
 10
2.45584646278769
 20
4.783234645014163
 10
2.504977196341027
 20
4.783234645014163
 10
2.529542563117694
 20
4.795517328402498
 10
2.566390613282692
 20
4.795517328402498
 10
2.578673296671028
 20
4.795517328402498
 10
2.590955980059359
 20
4.80780001179083
  0
LWPOLYLINE
  5
10D
100
AcDbEntity
  8
0
  6
ByLayer
 62
  256
370
   -1
100
AcDbPolyline
 90
   13
 70
    0
 43
0
 10
2.504977196341027
 20
5.004322946004168
 10
2.517259879729359
 20
5.004322946004168
 10
2.529542563117694
 20
5.004322946004168
 10
2.541825246506026
 20
5.004322946004168
 10
2.554107929894361
 20
5.004322946004168
 10
2.566390613282692
 20
5.004322946004168
 10
2.590955980059359
 20
5.004322946004168
 10
2.615521346836029
 20
5.004322946004168
 10
2.627804030224361
 20
5.004322946004168
 10
2.652369397001028
 20
5.004322946004168
 10
2.664652080389363
 20
5.004322946004168
 10
2.676934763777695
 20
5.004322946004168
 10
2.68921744716603
 20
5.004322946004168
  0
LWPOLYLINE
  5
10E
100
AcDbEntity
  8
0
  6
ByLayer
 62
  256
370
   -1
100
AcDbPolyline
 90
   16
 70
    0
 43
0
 10
4.322814337814393
 20
3.935729491219147
 10
4.335097021202728
 20
3.935729491219147
 10
4.347379704591059
 20
3.935729491219147
 10
4.359662387979395
 20
3.935729491219147
 10
4.37194507136773
 20
3.923446807830814
 10
4.396510438144396
 20
3.923446807830814
 10
4.408793121532728
 20
3.923446807830814
 10
4.421075804921063
 20
3.911164124442481
 10
4.433358488309395
 20
3.911164124442481
 10
4.44564117169773
 20
3.911164124442481
 10
4.457923855086062
 20
3.911164124442481
 10
4.470206538474397
 20
3.911164124442481
 10
4.482489221862732
 20
3.911164124442481
 10
4.482489221862732
 20
3.898881441054145
 10
4.494771905251064
 20
3.898881441054145
 10
4.507054588639399
 20
3.898881441054145
  0
LWPOLYLINE
  5
10F
100
AcDbEntity
  8
0
  6
ByLayer
 62
  256
370
   -1
100
AcDbPolyline
 90
    4
 70
    0
 43
0
 10
4.433358488309395
 20
3.862033390889145
 10
4.44564117169773
 20
3.862033390889145
 10
4.44564117169773
 20
3.849750707500812
 10
4.457923855086062
 20
3.849750707500812
  0
LWPOLYLINE
  5
110
100
AcDbEntity
  8
0
  6
ByLayer
 62
  256
370
   -1
100
AcDbPolyline
 90
   12
 70
    0
 43
0
 10
4.347379704591059
 20
3.812902657335812
 10
4.347379704591059
 20
3.800619973947478
 10
4.359662387979395
 20
3.800619973947478
 10
4.37194507136773
 20
3.800619973947478
 10
4.384227754756061
 20
3.800619973947478
 10
4.408793121532728
 20
3.800619973947478
 10
4.421075804921063
 20
3.800619973947478
 10
4.44564117169773
 20
3.800619973947478
 10
4.470206538474397
 20
3.788337290559143
 10
4.482489221862732
 20
3.788337290559143
 10
4.494771905251064
 20
3.788337290559143
 10
4.507054588639399
 20
3.788337290559143
  0
LWPOLYLINE
  5
111
100
AcDbEntity
  8
0
  6
ByLayer
 62
  256
370
   -1
100
AcDbPolyline
 90
    6
 70
    0
 43
0
 10
4.347379704591059
 20
3.714641190229143
 10
4.359662387979395
 20
3.714641190229143
 10
4.37194507136773
 20
3.714641190229143
 10
4.384227754756061
 20
3.714641190229143
 10
4.396510438144396
 20
3.714641190229143
 10
4.408793121532728
 20
3.714641190229143
  0
LWPOLYLINE
  5
112
100
AcDbEntity
  8
0
  6
ByLayer
 62
  256
370
   -1
100
AcDbPolyline
 90
    8
 70
    0
 43
0
 10
4.715860206241068
 20
3.456704839074138
 10
4.728142889629403
 20
3.456704839074138
 10
4.740425573017735
 20
3.456704839074138
 10
4.75270825640607
 20
3.456704839074138
 10
4.777273623182737
 20
3.456704839074138
 10
4.801838989959403
 20
3.456704839074138
 10
4.82640435673607
 20
3.456704839074138
 10
4.838687040124405
 20
3.456704839074138
  0
LWPOLYLINE
  5
113
100
AcDbEntity
  8
0
  6
ByLayer
 62
  256
370
   -1
100
AcDbPolyline
 90
    4
 70
    0
 43
0
 10
4.764990939794401
 20
3.505835572627472
 10
4.764990939794401
 20
3.518118256015805
 10
4.777273623182737
 20
3.518118256015805
 10
4.777273623182737
 20
3.530400939404139
  0
LWPOLYLINE
  5
114
100
AcDbEntity
  8
0
  6
ByLayer
 62
  256
370
   -1
100
AcDbPolyline
 90
    3
 70
    0
 43
0
 10
4.777273623182737
 20
3.554966306180805
 10
4.777273623182737
 20
3.567248989569141
 10
4.777273623182737
 20
3.579531672957474
  0
LWPOLYLINE
  5
115
100
AcDbEntity
  8
0
  6
ByLayer
 62
  256
370
   -1
100
AcDbPolyline
 90
   10
 70
    0
 43
0
 10
4.887817773677739
 20
4.255079259315819
 10
4.90010045706607
 20
4.255079259315819
 10
4.912383140454406
 20
4.255079259315819
 10
4.924665823842737
 20
4.255079259315819
 10
4.936948507231072
 20
4.255079259315819
 10
4.961513874007739
 20
4.255079259315819
 10
4.973796557396074
 20
4.255079259315819
 10
4.998361924172741
 20
4.255079259315819
 10
5.010644607561073
 20
4.255079259315819
 10
5.022927290949408
 20
4.255079259315819
  0
LWPOLYLINE
  5
116
100
AcDbEntity
  8
0
  6
ByLayer
 62
  256
370
   -1
100
AcDbPolyline
 90
    9
 70
    0
 43
0
 10
4.875535090289404
 20
4.328775359645821
 10
4.887817773677739
 20
4.328775359645821
 10
4.90010045706607
 20
4.328775359645821
 10
4.912383140454406
 20
4.328775359645821
 10
4.924665823842737
 20
4.328775359645821
 10
4.936948507231072
 20
4.328775359645821
 10
4.949231190619404
 20
4.328775359645821
 10
4.949231190619404
 20
4.316492676257488
 10
4.961513874007739
 20
4.316492676257488
  0
LWPOLYLINE
  5
117
100
AcDbEntity
  8
0
  6
ByLayer
 62
  256
370
   -1
100
AcDbPolyline
 90
   17
 70
    0
 43
0
 10
4.863252406901072
 20
4.328775359645821
 10
4.863252406901072
 20
4.341058043034154
 10
4.875535090289404
 20
4.341058043034154
 10
4.887817773677739
 20
4.341058043034154
 10
4.90010045706607
 20
4.341058043034154
 10
4.912383140454406
 20
4.341058043034154
 10
4.924665823842737
 20
4.341058043034154
 10
4.936948507231072
 20
4.341058043034154
 10
4.973796557396074
 20
4.341058043034154
 10
4.986079240784406
 20
4.341058043034154
 10
4.998361924172741
 20
4.341058043034154
 10
5.010644607561073
 20
4.341058043034154
 10
5.035209974337743
 20
4.341058043034154
 10
5.047492657726071
 20
4.341058043034154
 10
5.059775341114406
 20
4.341058043034154
 10
5.059775341114406
 20
4.353340726422489
 10
5.072058024502741
 20
4.353340726422489
  0
LWPOLYLINE
  5
118
100
AcDbEntity
  8
0
  6
ByLayer
 62
  256
370
   -1
100
AcDbPolyline
 90
    4
 70
    0
 43
0
 10
5.072058024502741
 20
4.353340726422489
 10
5.084340707891077
 20
4.353340726422489
 10
5.084340707891077
 20
4.365623409810821
 10
5.096623391279412
 20
4.365623409810821
  0
LWPOLYLINE
  5
119
100
AcDbEntity
  8
0
  6
ByLayer
 62
  256
370
   -1
100
AcDbPolyline
 90
   12
 70
    0
 43
0
 10
5.072058024502741
 20
4.42703682675249
 10
5.084340707891077
 20
4.42703682675249
 10
5.096623391279412
 20
4.42703682675249
 10
5.10890607466774
 20
4.42703682675249
 10
5.121188758056075
 20
4.42703682675249
 10
5.13347144144441
 20
4.42703682675249
 10
5.145754124832745
 20
4.42703682675249
 10
5.158036808221073
 20
4.42703682675249
 10
5.170319491609408
 20
4.42703682675249
 10
5.182602174997744
 20
4.42703682675249
 10
5.194884858386079
 20
4.42703682675249
 10
5.207167541774407
 20
4.42703682675249
  0
LWPOLYLINE
  5
11A
100
AcDbEntity
  8
0
  6
ByLayer
 62
  256
370
   -1
100
AcDbPolyline
 90
    3
 70
    0
 43
0
 10
5.158036808221073
 20
4.463884876917492
 10
5.158036808221073
 20
4.476167560305823
 10
5.170319491609408
 20
4.476167560305823
  0
LWPOLYLINE
  5
11B
100
AcDbEntity
  8
0
  6
ByLayer
 62
  256
370
   -1
100
AcDbPolyline
 90
   12
 70
    0
 43
0
 10
4.936948507231072
 20
4.439319510140823
 10
4.949231190619404
 20
4.439319510140823
 10
4.961513874007739
 20
4.439319510140823
 10
4.973796557396074
 20
4.439319510140823
 10
4.986079240784406
 20
4.439319510140823
 10
4.998361924172741
 20
4.439319510140823
 10
5.010644607561073
 20
4.439319510140823
 10
5.022927290949408
 20
4.42703682675249
 10
5.047492657726071
 20
4.42703682675249
 10
5.059775341114406
 20
4.42703682675249
 10
5.072058024502741
 20
4.42703682675249
 10
5.084340707891077
 20
4.42703682675249
  0
LWPOLYLINE
  5
11C
100
AcDbEntity
  8
0
  6
ByLayer
 62
  256
370
   -1
100
AcDbPolyline
 90
    9
 70
    0
 43
0
 10
5.047492657726071
 20
4.316492676257488
 10
5.059775341114406
 20
4.316492676257488
 10
5.072058024502741
 20
4.316492676257488
 10
5.084340707891077
 20
4.316492676257488
 10
5.10890607466774
 20
4.304209992869154
 10
5.13347144144441
 20
4.304209992869154
 10
5.158036808221073
 20
4.304209992869154
 10
5.170319491609408
 20
4.304209992869154
 10
5.182602174997744
 20
4.304209992869154
  0
LWPOLYLINE
  5
11D
100
AcDbEntity
  8
0
  6
ByLayer
 62
  256
370
   -1
100
AcDbPolyline
 90
    3
 70
    0
 43
0
 10
5.10890607466774
 20
4.242796575927487
 10
5.121188758056075
 20
4.242796575927487
 10
5.13347144144441
 20
4.242796575927487
  0
LWPOLYLINE
  5
11E
100
AcDbEntity
  8
0
  6
ByLayer
 62
  256
370
   -1
100
AcDbPolyline
 90
    6
 70
    0
 43
0
 10
5.280863642104411
 20
3.862033390889145
 10
5.293146325492746
 20
3.862033390889145
 10
5.305429008881081
 20
3.862033390889145
 10
5.317711692269409
 20
3.862033390889145
 10
5.329994375657744
 20
3.862033390889145
 10
5.342277059046079
 20
3.862033390889145
  0
LWPOLYLINE
  5
11F
100
AcDbEntity
  8
0
  6
ByLayer
 62
  256
370
   -1
100
AcDbPolyline
 90
    6
 70
    0
 43
0
 10
5.293146325492746
 20
3.825185340724145
 10
5.305429008881081
 20
3.812902657335812
 10
5.317711692269409
 20
3.812902657335812
 10
5.329994375657744
 20
3.812902657335812
 10
5.342277059046079
 20
3.812902657335812
 10
5.354559742434414
 20
3.812902657335812
  0
LWPOLYLINE
  5
120
100
AcDbEntity
  8
0
  6
ByLayer
 62
  256
370
   -1
100
AcDbPolyline
 90
   13
 70
    0
 43
0
 10
6.570545397879439
 20
3.137355070977465
 10
6.582828081267767
 20
3.137355070977465
 10
6.595110764656102
 20
3.137355070977465
 10
6.607393448044437
 20
3.137355070977465
 10
6.619676131432772
 20
3.137355070977465
 10
6.631958814821107
 20
3.137355070977465
 10
6.644241498209436
 20
3.125072387589132
 10
6.656524181597771
 20
3.125072387589132
 10
6.681089548374441
 20
3.112789704200798
 10
6.705654915151104
 20
3.112789704200798
 10
6.717937598539439
 20
3.112789704200798
 10
6.730220281927775
 20
3.112789704200798
 10
6.74250296531611
 20
3.112789704200798
  0
LWPOLYLINE
  5
121
100
AcDbEntity
  8
0
  6
ByLayer
 62
  256
370
   -1
100
AcDbPolyline
 90
    8
 70
    0
 43
0
 10
6.570545397879439
 20
3.002245553705796
 10
6.582828081267767
 20
3.002245553705796
 10
6.607393448044437
 20
3.002245553705796
 10
6.644241498209436
 20
2.977680186929129
 10
6.656524181597771
 20
2.977680186929129
 10
6.681089548374441
 20
2.977680186929129
 10
6.693372231762769
 20
2.965397503540794
 10
6.705654915151104
 20
2.965397503540794
  0
LWPOLYLINE
  5
122
100
AcDbEntity
  8
0
  6
ByLayer
 62
  256
370
   -1
100
AcDbPolyline
 90
   12
 70
    0
 43
0
 10
6.521414664326105
 20
2.879418719822461
 10
6.533697347714433
 20
2.879418719822461
 10
6.545980031102768
 20
2.879418719822461
 10
6.558262714491104
 20
2.879418719822461
 10
6.582828081267767
 20
2.867136036434127
 10
6.631958814821107
 20
2.867136036434127
 10
6.644241498209436
 20
2.867136036434127
 10
6.656524181597771
 20
2.867136036434127
 10
6.668806864986106
 20
2.867136036434127
 10
6.681089548374441
 20
2.867136036434127
 10
6.681089548374441
 20
2.854853353045792
 10
6.693372231762769
 20
2.854853353045792
  0
LWPOLYLINE
  5
123
100
AcDbEntity
  8
0
  6
ByLayer
 62
  256
370
   -1
100
AcDbPolyline
 90
    8
 70
    0
 43
0
 10
6.496849297549435
 20
2.818005302880792
 10
6.50913198093777
 20
2.818005302880792
 10
6.521414664326105
 20
2.818005302880792
 10
6.533697347714433
 20
2.818005302880792
 10
6.545980031102768
 20
2.818005302880792
 10
6.558262714491104
 20
2.805722619492458
 10
6.570545397879439
 20
2.805722619492458
 10
6.582828081267767
 20
2.805722619492458
  0
LWPOLYLINE
  5
124
100
AcDbEntity
  8
0
  6
ByLayer
 62
  256
370
   -1
100
AcDbPolyline
 90
    8
 70
    0
 43
0
 10
6.435435880607766
 20
2.74430920255079
 10
6.447718563996101
 20
2.74430920255079
 10
6.460001247384437
 20
2.74430920255079
 10
6.472283930772765
 20
2.74430920255079
 10
6.4845666141611
 20
2.74430920255079
 10
6.496849297549435
 20
2.74430920255079
 10
6.521414664326105
 20
2.732026519162456
 10
6.533697347714433
 20
2.732026519162456
  0
LWPOLYLINE
  5
125
100
AcDbEntity
  8
0
  6
ByLayer
 62
  256
370
   -1
100
AcDbPolyline
 90
    8
 70
    0
 43
0
 10
6.423153197219431
 20
2.695178468997456
 10
6.435435880607766
 20
2.695178468997456
 10
6.447718563996101
 20
2.695178468997456
 10
6.472283930772765
 20
2.695178468997456
 10
6.50913198093777
 20
2.695178468997456
 10
6.533697347714433
 20
2.695178468997456
 10
6.545980031102768
 20
2.695178468997456
 10
6.558262714491104
 20
2.695178468997456
  0
LWPOLYLINE
  5
126
100
AcDbEntity
  8
0
  6
ByLayer
 62
  256
370
   -1
100
AcDbPolyline
 90
    7
 70
    0
 43
0
 10
6.398587830442768
 20
2.646047735444123
 10
6.398587830442768
 20
2.633765052055789
 10
6.423153197219431
 20
2.633765052055789
 10
6.435435880607766
 20
2.633765052055789
 10
6.447718563996101
 20
2.633765052055789
 10
6.460001247384437
 20
2.633765052055789
 10
6.472283930772765
 20
2.633765052055789
  0
LWPOLYLINE
  5
127
100
AcDbEntity
  8
0
  6
ByLayer
 62
  256
370
   -1
100
AcDbPolyline
 90
   12
 70
    0
 43
0
 10
6.263478313171095
 20
2.596917001890787
 10
6.263478313171095
 20
2.584634318502454
 10
6.275760996559431
 20
2.584634318502454
 10
6.288043679947766
 20
2.584634318502454
 10
6.300326363336101
 20
2.584634318502454
 10
6.312609046724436
 20
2.584634318502454
 10
6.337174413501099
 20
2.584634318502454
 10
6.374022463666098
 20
2.584634318502454
 10
6.410870513831103
 20
2.584634318502454
 10
6.435435880607766
 20
2.584634318502454
 10
6.447718563996101
 20
2.584634318502454
 10
6.460001247384437
 20
2.584634318502454
  0
LWPOLYLINE
  5
128
100
AcDbEntity
  8
0
  6
ByLayer
 62
  256
370
   -1
100
AcDbPolyline
 90
   10
 70
    0
 43
0
 10
6.177499529452763
 20
2.486372851395785
 10
6.189782212841099
 20
2.486372851395785
 10
6.214347579617762
 20
2.486372851395785
 10
6.25119562978276
 20
2.486372851395785
 10
6.288043679947766
 20
2.486372851395785
 10
6.324891730112764
 20
2.486372851395785
 10
6.349457096889434
 20
2.486372851395785
 10
6.374022463666098
 20
2.486372851395785
 10
6.386305147054433
 20
2.486372851395785
 10
6.398587830442768
 20
2.486372851395785
  0
LWPOLYLINE
  5
129
100
AcDbEntity
  8
0
  6
ByLayer
 62
  256
370
   -1
100
AcDbPolyline
 90
   15
 70
    0
 43
0
 10
6.214347579617762
 20
2.461807484619118
 10
6.226630263006097
 20
2.461807484619118
 10
6.238912946394432
 20
2.461807484619118
 10
6.263478313171095
 20
2.461807484619118
 10
6.275760996559431
 20
2.461807484619118
 10
6.300326363336101
 20
2.461807484619118
 10
6.337174413501099
 20
2.461807484619118
 10
6.374022463666098
 20
2.461807484619118
 10
6.398587830442768
 20
2.461807484619118
 10
6.447718563996101
 20
2.437242117842452
 10
6.472283930772765
 20
2.437242117842452
 10
6.496849297549435
 20
2.424959434454118
 10
6.50913198093777
 20
2.424959434454118
 10
6.521414664326105
 20
2.424959434454118
 10
6.50913198093777
 20
2.424959434454118
  0
LWPOLYLINE
  5
12A
100
AcDbEntity
  8
0
  6
ByLayer
 62
  256
370
   -1
100
AcDbPolyline
 90
   14
 70
    0
 43
0
 10
6.25119562978276
 20
2.388111384289118
 10
6.263478313171095
 20
2.388111384289118
 10
6.263478313171095
 20
2.375828700900783
 10
6.275760996559431
 20
2.375828700900783
 10
6.300326363336101
 20
2.375828700900783
 10
6.324891730112764
 20
2.375828700900783
 10
6.361739780277762
 20
2.375828700900783
 10
6.398587830442768
 20
2.375828700900783
 10
6.423153197219431
 20
2.375828700900783
 10
6.447718563996101
 20
2.375828700900783
 10
6.472283930772765
 20
2.375828700900783
 10
6.4845666141611
 20
2.375828700900783
 10
6.496849297549435
 20
2.375828700900783
 10
6.50913198093777
 20
2.375828700900783
  0
LWPOLYLINE
  5
12B
100
AcDbEntity
  8
0
  6
ByLayer
 62
  256
370
   -1
100
AcDbPolyline
 90
   21
 70
    0
 43
0
 10
6.288043679947766
 20
2.326697967347449
 10
6.288043679947766
 20
2.314415283959116
 10
6.300326363336101
 20
2.314415283959116
 10
6.312609046724436
 20
2.314415283959116
 10
6.337174413501099
 20
2.314415283959116
 10
6.374022463666098
 20
2.314415283959116
 10
6.423153197219431
 20
2.314415283959116
 10
6.447718563996101
 20
2.314415283959116
 10
6.472283930772765
 20
2.314415283959116
 10
6.50913198093777
 20
2.314415283959116
 10
6.533697347714433
 20
2.314415283959116
 10
6.570545397879439
 20
2.302132600570783
 10
6.607393448044437
 20
2.277567233794116
 10
6.619676131432772
 20
2.277567233794116
 10
6.607393448044437
 20
2.277567233794116
 10
6.595110764656102
 20
2.265284550405781
 10
6.558262714491104
 20
2.265284550405781
 10
6.50913198093777
 20
2.240719183629114
 10
6.460001247384437
 20
2.228436500240781
 10
6.410870513831103
 20
2.228436500240781
 10
6.374022463666098
 20
2.228436500240781
  0
LWPOLYLINE
  5
12C
100
AcDbEntity
  8
0
  6
ByLayer
 62
  256
370
   -1
100
AcDbPolyline
 90
   10
 70
    0
 43
0
 10
6.202064896229434
 20
2.203871133464114
 10
6.238912946394432
 20
2.203871133464114
 10
6.288043679947766
 20
2.203871133464114
 10
6.337174413501099
 20
2.203871133464114
 10
6.398587830442768
 20
2.203871133464114
 10
6.447718563996101
 20
2.203871133464114
 10
6.496849297549435
 20
2.203871133464114
 10
6.521414664326105
 20
2.203871133464114
 10
6.533697347714433
 20
2.203871133464114
 10
6.545980031102768
 20
2.203871133464114
  0
LWPOLYLINE
  5
12D
100
AcDbEntity
  8
0
  6
ByLayer
 62
  256
370
   -1
100
AcDbPolyline
 90
   18
 70
    0
 43
0
 10
6.263478313171095
 20
2.167023083299113
 10
6.300326363336101
 20
2.167023083299113
 10
6.337174413501099
 20
2.167023083299113
 10
6.361739780277762
 20
2.167023083299113
 10
6.410870513831103
 20
2.167023083299113
 10
6.435435880607766
 20
2.167023083299113
 10
6.447718563996101
 20
2.167023083299113
 10
6.472283930772765
 20
2.167023083299113
 10
6.4845666141611
 20
2.167023083299113
 10
6.496849297549435
 20
2.167023083299113
 10
6.50913198093777
 20
2.167023083299113
 10
6.521414664326105
 20
2.167023083299113
 10
6.533697347714433
 20
2.167023083299113
 10
6.570545397879439
 20
2.154740399910779
 10
6.607393448044437
 20
2.142457716522445
 10
6.644241498209436
 20
2.130175033134112
 10
6.668806864986106
 20
2.130175033134112
 10
6.681089548374441
 20
2.130175033134112
  0
LWPOLYLINE
  5
12E
100
AcDbEntity
  8
0
  6
ByLayer
 62
  256
370
   -1
100
AcDbPolyline
 90
   12
 70
    0
 43
0
 10
5.931845861686089
 20
2.056478932804111
 10
5.956411228462759
 20
2.056478932804111
 10
6.005541962016093
 20
2.056478932804111
 10
6.054672695569426
 20
2.056478932804111
 10
6.091520745734432
 20
2.056478932804111
 10
6.152934162676093
 20
2.056478932804111
 10
6.202064896229434
 20
2.056478932804111
 10
6.25119562978276
 20
2.056478932804111
 10
6.275760996559431
 20
2.056478932804111
 10
6.312609046724436
 20
2.056478932804111
 10
6.324891730112764
 20
2.056478932804111
 10
6.337174413501099
 20
2.068761616192444
  0
LWPOLYLINE
  5
12F
100
AcDbEntity
  8
0
  6
ByLayer
 62
  256
370
   -1
100
AcDbPolyline
 90
   11
 70
    0
 43
0
 10
5.723040244084419
 20
2.007348199250776
 10
5.74760561086109
 20
2.007348199250776
 10
5.809019027802751
 20
2.007348199250776
 10
5.870432444744427
 20
2.007348199250776
 10
5.956411228462759
 20
2.007348199250776
 10
6.054672695569426
 20
2.007348199250776
 10
6.140651479287758
 20
2.007348199250776
 10
6.214347579617762
 20
2.007348199250776
 10
6.263478313171095
 20
2.007348199250776
 10
6.300326363336101
 20
2.007348199250776
 10
6.324891730112764
 20
2.007348199250776
  0
LWPOLYLINE
  5
130
100
AcDbEntity
  8
0
  6
ByLayer
 62
  256
370
   -1
100
AcDbPolyline
 90
   13
 70
    0
 43
0
 10
5.796736344414423
 20
1.970500149085776
 10
5.809019027802751
 20
1.970500149085776
 10
5.821301711191087
 20
1.970500149085776
 10
5.833584394579422
 20
1.970500149085776
 10
5.882715128132755
 20
1.970500149085776
 10
5.944128545074424
 20
1.945934782309108
 10
6.017824645404428
 20
1.945934782309108
 10
6.10380342912276
 20
1.945934782309108
 10
6.177499529452763
 20
1.945934782309108
 10
6.263478313171095
 20
1.945934782309108
 10
6.312609046724436
 20
1.945934782309108
 10
6.337174413501099
 20
1.945934782309108
 10
6.349457096889434
 20
1.945934782309108
  0
LWPOLYLINE
  5
131
100
AcDbEntity
  8
0
  6
ByLayer
 62
  256
370
   -1
100
AcDbPolyline
 90
   13
 70
    0
 43
0
 10
6.030107328792756
 20
1.921369415532442
 10
6.079238062346096
 20
1.921369415532442
 10
6.140651479287758
 20
1.921369415532442
 10
6.189782212841099
 20
1.921369415532442
 10
6.25119562978276
 20
1.921369415532442
 10
6.300326363336101
 20
1.921369415532442
 10
6.337174413501099
 20
1.921369415532442
 10
6.361739780277762
 20
1.921369415532442
 10
6.374022463666098
 20
1.921369415532442
 10
6.386305147054433
 20
1.921369415532442
 10
6.374022463666098
 20
1.921369415532442
 10
6.361739780277762
 20
1.921369415532442
 10
6.337174413501099
 20
1.921369415532442
  0
LWPOLYLINE
  5
132
100
AcDbEntity
  8
0
  6
ByLayer
 62
  256
370
   -1
100
AcDbPolyline
 90
   10
 70
    0
 43
0
 10
5.89499781152109
 20
1.872238681979107
 10
5.944128545074424
 20
1.872238681979107
 10
6.005541962016093
 20
1.872238681979107
 10
6.091520745734432
 20
1.872238681979107
 10
6.165216846064428
 20
1.872238681979107
 10
6.226630263006097
 20
1.872238681979107
 10
6.275760996559431
 20
1.872238681979107
 10
6.324891730112764
 20
1.872238681979107
 10
6.337174413501099
 20
1.872238681979107
 10
6.349457096889434
 20
1.872238681979107
  0
LWPOLYLINE
  5
133
100
AcDbEntity
  8
0
  6
ByLayer
 62
  256
370
   -1
100
AcDbPolyline
 90
   12
 70
    0
 43
0
 10
6.202064896229434
 20
1.798542581649106
 10
6.214347579617762
 20
1.798542581649106
 10
6.226630263006097
 20
1.798542581649106
 10
6.238912946394432
 20
1.798542581649106
 10
6.25119562978276
 20
1.798542581649106
 10
6.275760996559431
 20
1.798542581649106
 10
6.337174413501099
 20
1.798542581649106
 10
6.386305147054433
 20
1.786259898260773
 10
6.435435880607766
 20
1.786259898260773
 10
6.472283930772765
 20
1.786259898260773
 10
6.50913198093777
 20
1.773977214872438
 10
6.533697347714433
 20
1.773977214872438
  0
LWPOLYLINE
  5
134
100
AcDbEntity
  8
0
  6
ByLayer
 62
  256
370
   -1
100
AcDbPolyline
 90
   13
 70
    0
 43
0
 10
6.226630263006097
 20
1.712563797930771
 10
6.238912946394432
 20
1.712563797930771
 10
6.25119562978276
 20
1.712563797930771
 10
6.263478313171095
 20
1.712563797930771
 10
6.288043679947766
 20
1.712563797930771
 10
6.324891730112764
 20
1.712563797930771
 10
6.349457096889434
 20
1.712563797930771
 10
6.386305147054433
 20
1.712563797930771
 10
6.410870513831103
 20
1.712563797930771
 10
6.435435880607766
 20
1.712563797930771
 10
6.447718563996101
 20
1.712563797930771
 10
6.472283930772765
 20
1.700281114542437
 10
6.4845666141611
 20
1.700281114542437
  0
LWPOLYLINE
  5
135
100
AcDbEntity
  8
0
  6
ByLayer
 62
  256
370
   -1
100
AcDbPolyline
 90
    5
 70
    0
 43
0
 10
6.681089548374441
 20
1.67571574776577
 10
6.693372231762769
 20
1.67571574776577
 10
6.705654915151104
 20
1.67571574776577
 10
6.717937598539439
 20
1.67571574776577
 10
6.730220281927775
 20
1.67571574776577
  0
LWPOLYLINE
  5
136
100
AcDbEntity
  8
0
  6
ByLayer
 62
  256
370
   -1
100
AcDbPolyline
 90
    4
 70
    0
 43
0
 10
6.668806864986106
 20
1.712563797930771
 10
6.681089548374441
 20
1.724846481319104
 10
6.717937598539439
 20
1.724846481319104
 10
6.730220281927775
 20
1.724846481319104
  0
LWPOLYLINE
  5
137
100
AcDbEntity
  8
0
  6
ByLayer
 62
  256
370
   -1
100
AcDbPolyline
 90
   14
 70
    0
 43
0
 10
6.4845666141611
 20
1.773977214872438
 10
6.496849297549435
 20
1.773977214872438
 10
6.521414664326105
 20
1.773977214872438
 10
6.533697347714433
 20
1.773977214872438
 10
6.558262714491104
 20
1.773977214872438
 10
6.582828081267767
 20
1.773977214872438
 10
6.619676131432772
 20
1.773977214872438
 10
6.631958814821107
 20
1.773977214872438
 10
6.656524181597771
 20
1.786259898260773
 10
6.668806864986106
 20
1.786259898260773
 10
6.681089548374441
 20
1.786259898260773
 10
6.693372231762769
 20
1.798542581649106
 10
6.705654915151104
 20
1.798542581649106
 10
6.705654915151104
 20
1.810825265037439
  0
LWPOLYLINE
  5
138
100
AcDbEntity
  8
0
  6
ByLayer
 62
  256
370
   -1
100
AcDbPolyline
 90
   13
 70
    0
 43
0
 10
6.423153197219431
 20
1.872238681979107
 10
6.435435880607766
 20
1.872238681979107
 10
6.460001247384437
 20
1.872238681979107
 10
6.4845666141611
 20
1.872238681979107
 10
6.50913198093777
 20
1.872238681979107
 10
6.558262714491104
 20
1.872238681979107
 10
6.607393448044437
 20
1.872238681979107
 10
6.631958814821107
 20
1.884521365367441
 10
6.681089548374441
 20
1.884521365367441
 10
6.705654915151104
 20
1.884521365367441
 10
6.730220281927775
 20
1.884521365367441
 10
6.74250296531611
 20
1.884521365367441
 10
6.74250296531611
 20
1.896804048755774
  0
LWPOLYLINE
  5
139
100
AcDbEntity
  8
0
  6
ByLayer
 62
  256
370
   -1
100
AcDbPolyline
 90
    9
 70
    0
 43
0
 10
6.595110764656102
 20
1.921369415532442
 10
6.607393448044437
 20
1.921369415532442
 10
6.619676131432772
 20
1.921369415532442
 10
6.644241498209436
 20
1.921369415532442
 10
6.656524181597771
 20
1.921369415532442
 10
6.693372231762769
 20
1.933652098920775
 10
6.705654915151104
 20
1.933652098920775
 10
6.717937598539439
 20
1.933652098920775
 10
6.730220281927775
 20
1.945934782309108
  0
LWPOLYLINE
  5
13A
100
AcDbEntity
  8
0
  6
ByLayer
 62
  256
370
   -1
100
AcDbPolyline
 90
   11
 70
    0
 43
0
 10
6.521414664326105
 20
1.982782832474109
 10
6.533697347714433
 20
1.982782832474109
 10
6.545980031102768
 20
1.982782832474109
 10
6.558262714491104
 20
1.982782832474109
 10
6.582828081267767
 20
1.982782832474109
 10
6.619676131432772
 20
1.982782832474109
 10
6.656524181597771
 20
1.982782832474109
 10
6.681089548374441
 20
1.982782832474109
 10
6.705654915151104
 20
1.982782832474109
 10
6.717937598539439
 20
1.995065515862443
 10
6.730220281927775
 20
1.995065515862443
  0
LWPOLYLINE
  5
13B
100
AcDbEntity
  8
0
  6
ByLayer
 62
  256
370
   -1
100
AcDbPolyline
 90
   10
 70
    0
 43
0
 10
6.619676131432772
 20
2.056478932804111
 10
6.619676131432772
 20
2.068761616192444
 10
6.631958814821107
 20
2.068761616192444
 10
6.644241498209436
 20
2.068761616192444
 10
6.656524181597771
 20
2.068761616192444
 10
6.681089548374441
 20
2.068761616192444
 10
6.705654915151104
 20
2.081044299580777
 10
6.717937598539439
 20
2.081044299580777
 10
6.754785648704438
 20
2.081044299580777
 10
6.767068332092773
 20
2.093326982969112
  0
LWPOLYLINE
  5
13C
100
AcDbEntity
  8
0
  6
ByLayer
 62
  256
370
   -1
100
AcDbPolyline
 90
    9
 70
    0
 43
0
 10
6.668806864986106
 20
2.154740399910779
 10
6.681089548374441
 20
2.154740399910779
 10
6.681089548374441
 20
2.167023083299113
 10
6.693372231762769
 20
2.167023083299113
 10
6.705654915151104
 20
2.167023083299113
 10
6.717937598539439
 20
2.167023083299113
 10
6.730220281927775
 20
2.167023083299113
 10
6.74250296531611
 20
2.167023083299113
 10
6.754785648704438
 20
2.167023083299113
  0
LWPOLYLINE
  5
13D
100
AcDbEntity
  8
0
  6
ByLayer
 62
  256
370
   -1
100
AcDbPolyline
 90
    3
 70
    0
 43
0
 10
6.656524181597771
 20
2.240719183629114
 10
6.656524181597771
 20
2.253001867017447
 10
6.668806864986106
 20
2.253001867017447
  0
LWPOLYLINE
  5
13E
100
AcDbEntity
  8
0
  6
ByLayer
 62
  256
370
   -1
100
AcDbPolyline
 90
   10
 70
    0
 43
0
 10
6.607393448044437
 20
2.289849917182449
 10
6.619676131432772
 20
2.289849917182449
 10
6.619676131432772
 20
2.302132600570783
 10
6.631958814821107
 20
2.302132600570783
 10
6.644241498209436
 20
2.302132600570783
 10
6.656524181597771
 20
2.302132600570783
 10
6.668806864986106
 20
2.314415283959116
 10
6.681089548374441
 20
2.314415283959116
 10
6.693372231762769
 20
2.314415283959116
 10
6.693372231762769
 20
2.326697967347449
  0
ENDSEC
  0
SECTION
  2
OBJECTS
  0
DICTIONARY
  5
C
330
0
100
AcDbDictionary
281
    1
  3
ACAD_GROUP
350
D
  0
DICTIONARY
  5
D
330
C
100
AcDbDictionary
281
    1
  0
ENDSEC
  0
EOF
